<?xml version="1.0" encoding="utf-8"?>
<!-- Generator: Adobe Illustrator 27.7.0, SVG Export Plug-In . SVG Version: 6.00 Build 0)  -->
<svg version="1.1" id="Layer_1" xmlns="http://www.w3.org/2000/svg" xmlns:xlink="http://www.w3.org/1999/xlink" x="0px" y="0px"
	 viewBox="0 0 674 674" style="enable-background:new 0 0 674 674;" xml:space="preserve">
<style type="text/css">
	.st0{fill:#FFFFFF;}
	.st1{fill:#FBBB00;}
	.st2{fill:#518EF8;}
	.st3{fill:#28B446;}
	.st4{fill:#F14336;}
	.st5{fill:#FFFFFF;}
	.st6{fill:#BF3300;}
	.st7{fill:#ffffff;}
	.st8{fill:#FFE000;}
	      #video, #loudspeaker, #graphics{
    animation: rotebox 50s linear infinite; 
    transform: rotate(0deg);
    transform-origin: center center;
}
@keyframes rotebox{
0%{
    transform: rotate(0deg);
}
100%{
    transform: rotate(360deg);
}
}
</style>
<g id="video">
   <path id="Rectangle_125" data-name="Rectangle 125" d="m472.2,35.5h0c14.4,0,26,11.6,26,26h0c0,14.4-11.6,26-26,26h0c-14.4,0-26-11.6-26-26h0c0-14.4,11.7-26,26-26Z" style="fill: #fff; stroke-width: 0px;"/>
    <g id="Page-1">
      <g id="_080---Stop-Frame-Animation" data-name="080---Stop-Frame-Animation">
        <g>
          <path id="Path" d="m473.27,57.91c.05.08.13.12.22.1l3.36-.35c.1-.01.18-.07.23-.16s.06-.19.02-.28l-1.32-3.11s-.05-.09-.09-.11c-.03-.02-.07-.03-.1-.03-.12,0-.22.06-.28.16l-2.04,3.46c-.06.1-.06.22,0,.32h0Z" style="fill: #e24e07; fill-rule: evenodd; stroke-width: 0px;"/>
          <path id="Path-2" data-name="Path" d="m471.82,76.43l-11.95-7.06c-.22-.13-.5-.06-.63.16s-.06.5.16.63l11.95,7.06c.22.13.5.06.63-.16s.06-.5-.16-.63Z" style="fill: #e24e07; fill-rule: evenodd; stroke-width: 0px;"/>
          <path id="Path-3" data-name="Path" d="m464.32,68.77l-1.74,1.12,7.48,4.41.14-2.06-5.88-3.47Z" style="fill: #e24e07; fill-rule: evenodd; stroke-width: 0px;"/>
          <path id="Path-4" data-name="Path" d="m456.81,62.73c-.13.22-.06.5.16.63l21.52,12.7c.22.13.5.06.63-.16l.71-1.2-22.32-13.17-.71,1.2Z" style="fill: #e24e07; fill-rule: evenodd; stroke-width: 0px;"/>
        </g>
        <path id="Shape" d="m489.31,57.73l-21.52-12.7c-.22-.13-.5-.06-.63.16l-9.17,15.54,22.32,13.17,9.17-15.54c.13-.22.06-.5-.16-.63Zm-14.79-4.08c.23-.4.67-.64,1.14-.61.44.03.82.3.99.71l1.32,3.11c.15.36.12.77-.08,1.11s-.55.56-.94.61l-3.36.35c-.44.05-.86-.16-1.1-.52-.25-.39-.25-.89-.01-1.29l2.04-3.46Zm5.58,14.22c-.71-.42-1.06-1.27-.84-2.07-2.58-1.1-5.19,2.28-5.22,2.32-.14.19-.4.24-.6.12h0c-.2-.13-.28-.39-.17-.61.02-.04,2.05-4.2-.62-5.78s-5.33,2.21-5.36,2.25c-.14.2-.41.26-.62.14-.21-.12-.29-.39-.18-.61.02-.04,2.05-4.2-.62-5.78s-5.33,2.21-5.36,2.25c-.14.2-.41.26-.62.14l-.03-.02c-.1-.07-.17-.18-.19-.3s0-.25.07-.35c1.09-1.58,3.86-4.13,6.59-2.52,1.85,1.09,2.04,3.14,1.69,4.87,1.35-1.14,3.23-1.96,5.08-.87s2.04,3.24,1.67,5.01c1.21-1,3.04-1.97,4.95-1.08.68-.69,1.76-.74,2.5-.12s.88,1.7.32,2.49c-.56.79-1.62,1.01-2.45.52h0Z" style="fill: #e24e07; stroke-width: 0px;"/>
        <circle id="Oval" cx="481.04" cy="66.28" r=".93" style="fill: #e24e07; stroke-width: 0px;"/>
      </g>
    </g>
</g>
<g id="loudspeaker">
   <path id="Rectangle_124" data-name="Rectangle 124" d="m31,326h0c14.4,0,26,11.6,26,26h0c0,14.4-11.6,26-26,26h0c-14.4,0-26-11.6-26-26h0c0-14.4,11.6-26,26-26Z" style="fill: #fff; stroke-width: 0px;"/>
  <g>
      <path d="m31.13,353.96l-5.7,10.49c-.25.47-.24,1.02.03,1.47.27.46.75.73,1.28.73h13.22c.54,0,1.03-.29,1.3-.75l5.96-10.49c.13-.23.2-.48.2-.74s-.07-.52-.2-.75c-.27-.46-.75-.74-1.29-.74h-13.49c-.55,0-1.05.3-1.31.78Z" style="fill: #e24e07; stroke-width: 0px;"/>
      <path d="m21.99,339.25c-.56,0-1.06.31-1.32.8l-5.93,11.44c-.22.43-.22.95,0,1.38l5.93,11.27c.26.49.76.8,1.32.8.55,0,1.06-.3,1.32-.79l5.97-11.27c.12-.22.17-.46.17-.7s-.06-.47-.17-.69l-5.97-11.44c-.26-.5-.77-.8-1.32-.8h0Z" style="fill: #e24e07; stroke-width: 0px;"/>
      <path d="m25.46,338.07c-.27.46-.28,1.01-.03,1.47l5.7,10.49c.26.48.76.78,1.31.78h13.49c.54,0,1.02-.28,1.29-.74.14-.23.2-.49.2-.75s-.07-.51-.2-.74l-5.96-10.49c-.26-.47-.76-.75-1.3-.75h-13.22c-.53,0-1.01.27-1.28.73h0Z" style="fill: #e24e07; stroke-width: 0px;"/>
    </g>
</g>
<g id="graphics">
   <path id="Rectangle_126" data-name="Rectangle 126" d="m546.9,534.1h0c14.4,0,26,11.6,26,26h0c0,14.4-11.6,26-26,26h0c-14.4,0-26-11.6-26-26h0c0-14.3,11.6-26,26-26Z" style="fill: #fff; stroke-width: 0px;"/>
    <path d="m558.43,548.96c-6.37-6.37-16.71-6.37-23.08,0s-6.37,16.71,0,23.08,16.71,6.37,23.08,0c6.36-6.38,6.36-16.7,0-23.08Zm-7.05,16.77c-.24.08-.5.08-.74,0h0s-9.89-3.29-9.89-3.29c-.61-.2-.94-.86-.74-1.47.06-.17.16-.33.29-.46l6.59-6.59c.46-.46,1.19-.46,1.65,0,.13.13.22.28.28.46l3.3,9.89c.2.61-.12,1.27-.74,1.48Z" style="fill: #e24e07; stroke-width: 0px;"/>
 </g>
</svg>
