<?xml version="1.0" encoding="utf-8"?>
<!-- Generator: Adobe Illustrator 27.7.0, SVG Export Plug-In . SVG Version: 6.00 Build 0)  -->
<svg version="1.1" id="Layer_1" xmlns="http://www.w3.org/2000/svg" xmlns:xlink="http://www.w3.org/1999/xlink" x="0px" y="0px"
	 viewBox="0 0 674 674" style="enable-background:new 0 0 674 674;" xml:space="preserve">
<style type="text/css">
	.st0{fill:#FFFFFF;}
	.st1{fill:#FBBB00;}
	.st2{fill:#518EF8;}
	.st3{fill:#28B446;}
	.st4{fill:#F14336;}
	.st5{fill:#FFFFFF;}
	.st6{fill:#BF3300;}
	.st7{fill:#ffffff;}
	.st8{fill:#FFE000;}
	      #video, #loudspeaker, #graphics{
    animation: rotebox 50s linear infinite;
    transform: rotate(0deg);
    transform-origin: center center;
}
@keyframes rotebox{
0%{
    transform: rotate(0deg);
}
100%{
    transform: rotate(360deg);
}
}
</style>
<g id="video">
   <path id="Rectangle_125" data-name="Rectangle 125" d="m472.2,35.5h0c14.4,0,26,11.6,26,26h0c0,14.4-11.6,26-26,26h0c-14.4,0-26-11.6-26-26h0c0-14.4,11.7-26,26-26Z" style="fill: #fff; stroke-width: 0px;"/>
    <g>
      <path d="m469.12,67.99c.39-.42.9-.69,1.48-.79,1.45-.25,2.82.73,3.07,2.17h0c.1.59,0,1.16-.26,1.66l3.55,2.51c.28.2.67.13.87-.15l8.19-11.59c1.09-1.54.72-3.68-.82-4.77l-13.65-9.65c-1.54-1.09-3.68-.72-4.77.82l-8.19,11.59c-.2.28-.13.67.15.87l10.37,7.33h0Zm2.91-14.7c.16-.23.42-.34.7-.32.28.03.52.2.63.46l3.57,8.1c.11.25.08.52-.07.74s-.41.34-.68.32l-8.83-.66c-.14-.01-.28-.06-.39-.14s-.19-.18-.25-.3c-.12-.25-.09-.54.07-.76l5.26-7.45Z" style="fill: #e55208; stroke-width: 0px;"/>
      <path d="m472.15,68.27c-.4-.28-.9-.41-1.42-.32-.5.09-.94.36-1.23.78s-.41.92-.32,1.42c.18,1.03,1.16,1.73,2.19,1.55,1.03-.18,1.73-1.16,1.55-2.19-.09-.52-.38-.95-.78-1.23h0Z" style="fill: #e55208; stroke-width: 0px;"/>
      <path d="m472.98,71.65c-.38.4-.89.69-1.48.79-.72.12-1.43-.06-1.98-.45s-.96-1-1.09-1.72c-.1-.57,0-1.15.25-1.66l-10.37-7.33c-.28-.2-.67-.13-.87.15l-.3.42c-1.09,1.54-.72,3.68.82,4.77l13.65,9.65c1.54,1.09,3.68.72,4.77-.82l.3-.42c.2-.28.13-.67-.15-.87l-3.55-2.51Z" style="fill: #e55208; stroke-width: 0px;"/>
      <path d="m476.22,61.84s0,0,0,0l-3.57-8.1-5.27,7.44,8.84.66s0,0,0,0Z" style="fill: #e55208; stroke-width: 0px;"/>
    </g>
</g>
<g id="loudspeaker">
   <path id="Rectangle_124" data-name="Rectangle 124" d="m31,326h0c14.4,0,26,11.6,26,26h0c0,14.4-11.6,26-26,26h0c-14.4,0-26-11.6-26-26h0c0-14.4,11.6-26,26-26Z" style="fill: #fff; stroke-width: 0px;"/>
     <path d="m38.78,341.93h-15.56c-1.55,0-2.8,1.25-2.8,2.8v15.56c0,1.54,1.25,2.8,2.8,2.8h15.56c1.55,0,2.8-1.26,2.8-2.8v-15.56c0-1.55-1.25-2.8-2.8-2.8Zm.47,16.8c0,1.12-.9,2.03-2.02,2.03h-12.46c-1.12,0-2.02-.91-2.02-2.03v-12.45c0-1.12.9-2.02,2.02-2.02h12.46c1.12,0,2.02.9,2.02,2.02v12.45Z" style="fill: #e55208; stroke-width: 0px;"/>
    <path d="m37.23,345.2h-12.46c-.6,0-1.09.49-1.09,1.09v12.45c0,.61.49,1.1,1.09,1.1h12.46c.6,0,1.09-.49,1.09-1.1v-12.45c0-.6-.49-1.09-1.09-1.09Zm-3.01,10.27c-.18.1-.37.16-.57.16h-5.29c-.64,0-1.15-.51-1.15-1.14,0-.21.05-.4.16-.58l2.65-4.58c.31-.55,1.01-.73,1.56-.42.18.1.32.25.41.42l2.65,4.58c.32.55.13,1.25-.41,1.56Z" style="fill: #e55208; stroke-width: 0px;"/>
    <path d="m32.71,364.63c-.26,0-.47.21-.47.47v3.89c0,.26.21.47.47.47s.47-.21.47-.47v-3.89c0-.26-.21-.47-.47-.47Z" style="fill: #e55208; stroke-width: 0px;"/>
    <path d="m29.29,364.63c-.26,0-.47.21-.47.47v3.89c0,.26.21.47.47.47s.47-.21.47-.47v-3.89c0-.26-.21-.47-.47-.47Z" style="fill: #e55208; stroke-width: 0px;"/>
    <path d="m25.94,364.63c-.26,0-.47.21-.47.47v3.89c0,.26.21.47.47.47s.47-.21.47-.47v-3.89c0-.26-.21-.47-.47-.47Z" style="fill: #e55208; stroke-width: 0px;"/>
    <path d="m36.06,364.63c-.26,0-.47.21-.47.47v3.89c0,.26.21.47.47.47s.47-.21.47-.47v-3.89c0-.26-.21-.47-.47-.47Z" style="fill: #e55208; stroke-width: 0px;"/>
    <path d="m28.82,336.02v3.89c0,.26.21.47.47.47s.47-.21.47-.47v-3.89c0-.26-.21-.47-.47-.47s-.47.21-.47.47Z" style="fill: #e55208; stroke-width: 0px;"/>
    <path d="m32.25,336.02v3.89c0,.26.21.47.47.47s.47-.21.47-.47v-3.89c0-.26-.21-.47-.47-.47s-.47.21-.47.47Z" style="fill: #e55208; stroke-width: 0px;"/>
    <path d="m36.06,340.38c.26,0,.47-.21.47-.47v-3.89c0-.26-.21-.47-.47-.47s-.47.21-.47.47v3.89c0,.26.21.47.47.47Z" style="fill: #e55208; stroke-width: 0px;"/>
    <path d="m25.48,336.02v3.89c0,.26.21.47.47.47s.47-.21.47-.47v-3.89c0-.26-.21-.47-.47-.47s-.47.21-.47.47Z" style="fill: #e55208; stroke-width: 0px;"/>
    <path d="m47.48,350.33h-3.89c-.26,0-.47.21-.47.47s.21.47.47.47h3.89c.26,0,.47-.21.47-.47s-.21-.47-.47-.47Z" style="fill: #e55208; stroke-width: 0px;"/>
    <path d="m47.48,353.75h-3.89c-.26,0-.47.21-.47.47s.21.47.47.47h3.89c.26,0,.47-.21.47-.47s-.21-.47-.47-.47Z" style="fill: #e55208; stroke-width: 0px;"/>
    <path d="m47.48,357.1h-3.89c-.26,0-.47.21-.47.47s.21.47.47.47h3.89c.26,0,.47-.21.47-.47s-.21-.47-.47-.47Z" style="fill: #e55208; stroke-width: 0px;"/>
    <path d="m47.48,346.98h-3.89c-.26,0-.47.21-.47.47s.21.47.47.47h3.89c.26,0,.47-.21.47-.47s-.21-.47-.47-.47Z" style="fill: #e55208; stroke-width: 0px;"/>
    <path d="m18.41,353.75h-3.89c-.26,0-.47.21-.47.47s.21.47.47.47h3.89c.26,0,.47-.21.47-.47s-.21-.47-.47-.47Z" style="fill: #e55208; stroke-width: 0px;"/>
    <path d="m18.41,350.33h-3.89c-.26,0-.47.21-.47.47s.21.47.47.47h3.89c.26,0,.47-.21.47-.47s-.21-.47-.47-.47Z" style="fill: #e55208; stroke-width: 0px;"/>
    <path d="m18.41,346.98h-3.89c-.26,0-.47.21-.47.47s.21.47.47.47h3.89c.26,0,.47-.21.47-.47s-.21-.47-.47-.47Z" style="fill: #e55208; stroke-width: 0px;"/>
    <path d="m18.41,357.1h-3.89c-.26,0-.47.21-.47.47s.21.47.47.47h3.89c.26,0,.47-.21.47-.47s-.21-.47-.47-.47Z" style="fill: #e55208; stroke-width: 0px;"/>
 
</g>
<g id="graphics">
   <path id="Rectangle_126" data-name="Rectangle 126" d="m546.9,534.1h0c14.4,0,26,11.6,26,26h0c0,14.4-11.6,26-26,26h0c-14.4,0-26-11.6-26-26h0c0-14.3,11.6-26,26-26Z" style="fill: #fff; stroke-width: 0px;"/>
    <path d="m559.34,557.22l.21-1.22c.09-.51-.23-1.01-.73-1.15l-1.01-.28c-.48-.14-.99.1-1.2.56l-.51,1.13c-.13.02-.26.04-.38.07,0,0,0,0,0,0-.05.01-.1.03-.16.04-.02,0-.03,0-.05.01-.05.01-.09.03-.14.04-.02,0-.04.01-.07.02-.02,0-.04.01-.06.02l-1-.7c-.4-.28-.95-.24-1.3.11l-.69.68c-.36.36-.4.92-.1,1.33l.7.94c-.12.31-.2.63-.24.95l-1.1.57c-.45.23-.66.75-.49,1.23l.32.94c.16.47.65.76,1.14.67l1.14-.2c.05.05.09.1.14.15.04.04.09.09.13.13.02.01.03.03.05.04.02.01.03.03.05.04l-.14,1.23c-.06.5.26.96.74,1.09l.9.25c.48.13.98-.1,1.19-.55l.5-1.07c.3-.04.6-.11.88-.22l1,.7c.4.28.95.24,1.3-.11l.65-.64c.35-.35.4-.91.11-1.31l-.69-.96s.02-.05.03-.08c0-.02.01-.04.02-.05.02-.05.03-.09.04-.14.01-.04.02-.08.04-.12,0,0,0,0,0,0,.06-.22.1-.45.13-.67l1.08-.59c.43-.24.63-.74.48-1.21l-.29-.87c-.16-.48-.64-.77-1.13-.69l-1.2.2s-.07-.07-.1-.11c-.04-.04-.09-.09-.13-.13-.01-.01-.03-.02-.04-.04-.01,0-.02-.02-.03-.03Zm-.67,2.98c.03.23,0,.47-.07.7,0,0,0,.01,0,.02-.01.04-.03.08-.04.12,0,.01,0,.02-.01.03-.01.03-.03.06-.04.09,0,.01-.01.03-.02.04-.02.04-.04.08-.06.11-.09.14-.19.27-.31.4-.13.13-.28.24-.44.33-.03.01-.05.03-.08.04-.02,0-.03.02-.05.02-.02.01-.05.02-.07.03-.02.01-.05.02-.07.03-.02,0-.04.02-.07.02-.02,0-.04.01-.06.02-.02,0-.04.01-.06.02-.03,0-.06.02-.09.02-.02,0-.05.01-.07.01-.02,0-.04,0-.06.01-.02,0-.04,0-.06,0-.02,0-.04,0-.06,0-.04,0-.07,0-.11,0-.02,0-.03,0-.05,0-.03,0-.05,0-.08,0-.36,0-.71-.11-1.02-.3-.02-.02-.05-.03-.07-.05,0,0-.02-.01-.03-.02-.02-.02-.05-.03-.07-.05,0,0-.02-.01-.03-.02-.02-.02-.04-.04-.07-.06,0,0-.02-.01-.02-.02-.03-.03-.06-.05-.08-.08s-.05-.05-.08-.08c0,0,0,0,0-.01-.02-.03-.04-.05-.07-.08,0,0,0,0,0,0-.02-.03-.04-.06-.06-.09h0s-.04-.06-.06-.09c-.2-.32-.3-.69-.3-1.06,0,0,0-.02,0-.03,0-.03,0-.06,0-.09,0,0,0-.01,0-.02,0-.06,0-.11.02-.17,0,0,0,0,0-.01.01-.09.03-.18.06-.27,0,0,0-.01,0-.02,0-.03.02-.05.03-.08,0,0,0-.02.01-.03.02-.04.03-.08.05-.13,0-.02.02-.03.02-.05,0-.02.02-.04.03-.06.01-.03.03-.05.04-.08.09-.15.2-.3.33-.43s.28-.24.44-.33c.03-.01.05-.03.08-.04.02,0,.03-.02.05-.02.02-.01.05-.02.07-.03.02,0,.05-.02.07-.03.02,0,.05-.02.07-.03.02,0,.04-.01.06-.02.02,0,.04-.01.06-.02.02,0,.04-.01.05-.01.03,0,.07-.02.1-.02.02,0,.03,0,.05,0,.02,0,.05,0,.07-.01.02,0,.03,0,.05,0,.04,0,.08,0,.11,0,.01,0,.02,0,.04,0,.03,0,.06,0,.09,0,.36,0,.71.11,1.02.3.02.02.05.03.07.05.01,0,.02.01.03.02.02.02.04.03.07.05,0,0,.02.02.03.02.02.02.04.04.07.05,0,0,.02.01.02.02.03.03.06.05.08.08.05.05.1.1.14.16,0,0,0,0,0,0,.02.02.04.05.06.07,0,.01.01.02.02.03.01.02.02.03.04.05.16.25.26.52.3.8,0,.08-.01.16,0,.24Zm-9.36-3.29c-.51-.51-1.22-.71-1.91-.52l-4.88,1.28c-.69.18-1.22.7-1.41,1.39-.19.69,0,1.41.51,1.93l3.56,3.59c.51.51,1.23.71,1.92.52.35-.09.65-.27.89-.51s.42-.55.52-.89l1.31-4.87c.19-.69,0-1.41-.51-1.92Zm-2.74,6.18l-3.45-3.48,4.73-1.24-1.27,4.72Zm3.9-16.84l5.33,5.37c.4.4.39,1.04,0,1.44s-1.04.39-1.44,0l-5.33-5.37c-.79-.8-2.08-.8-2.87-.01l-12.69,12.59c-.8.79-.8,2.08-.01,2.87l9.37,9.45c.79.8,2.08.8,2.87.01l5.7-5.65c.4-.4,1.04-.39,1.44,0s.39,1.04,0,1.44l-5.7,5.65c-1.59,1.58-4.17,1.57-5.75-.02l-9.37-9.45c-1.58-1.59-1.57-4.17.02-5.75l12.69-12.59c1.59-1.58,4.17-1.57,5.75.02Z" style="fill: #e55208; stroke-width: 0px;"/>
  </g>
</svg>
