<?xml version="1.0" encoding="utf-8"?>
<!-- Generator: Adobe Illustrator 27.7.0, SVG Export Plug-In . SVG Version: 6.00 Build 0)  -->
<svg version="1.1" id="Layer_1" xmlns="http://www.w3.org/2000/svg" xmlns:xlink="http://www.w3.org/1999/xlink" x="0px" y="0px"
	 viewBox="0 0 674 674" style="enable-background:new 0 0 674 674;" xml:space="preserve">
<style type="text/css">
	.st0{fill:#FFFFFF;}
	.st1{fill:#FBBB00;}
	.st2{fill:#518EF8;}
	.st3{fill:#28B446;}
	.st4{fill:#F14336;}
	.st5{fill:#FFFFFF;}
	.st6{fill:#BF3300;}
	.st7{fill:#ffffff;}
	.st8{fill:#FFE000;}
	      #video, #loudspeaker, #graphics{
    animation: rotebox 50s linear infinite;
    transform: rotate(0deg);
    transform-origin: center center;
}
@keyframes rotebox{
0%{
    transform: rotate(0deg);
}
100%{
    transform: rotate(360deg);
}
}
</style>
<g id="video">
   <path id="Rectangle_125" data-name="Rectangle 125" d="m472.2,35.5h0c14.4,0,26,11.6,26,26h0c0,14.4-11.6,26-26,26h0c-14.4,0-26-11.6-26-26h0c0-14.4,11.7-26,26-26Z" style="fill: #fff; stroke-width: 0px;"/>
   <path d="m476.49,66.94c-.49-.48-.49-1.26,0-1.75.48-.49,1.26-.49,1.75,0,.49.48.49,1.26,0,1.75-.48.48-1.26.49-1.75,0m-9.71-9.61c-.49-.48-.49-1.26,0-1.75.48-.49,1.26-.49,1.75,0,.49.48.49,1.26,0,1.75-.48.48-1.26.49-1.75,0m15.26,4.63l4.77-1.3c.27-.07.44-.36.36-.63s-.36-.44-.63-.36h0l-4.83,1.32c-.75-1.97-1.93-3.82-3.56-5.44s-3.5-2.78-5.47-3.5l1.27-4.84c.07-.27-.09-.56-.37-.63-.27-.07-.56.09-.63.37h0l-1.25,4.78c-4.64-1.34-9.72-.33-13.59,2.97l21.1,20.88c3.27-3.9,4.23-9,2.83-13.62" style="fill: #2b8a4a; stroke-width: 0px;"/>
 
 
</g>
<g id="loudspeaker">
   <path id="Rectangle_124" data-name="Rectangle 124" d="m31,326h0c14.4,0,26,11.6,26,26h0c0,14.4-11.6,26-26,26h0c-14.4,0-26-11.6-26-26h0c0-14.4,11.6-26,26-26Z" style="fill: #fff; stroke-width: 0px;"/>
    <g>
      <path d="m17.01,359.27c-.43.66-.55,1.45-.38,2.19l13.03-13.03-4.22-4.22-8.43,15.06Z" style="fill: #2b8a4a; stroke-width: 0px;"/>
      <path d="m17.69,363.08c.48.36,1.08.57,1.7.57h23.21c.63,0,1.22-.21,1.7-.57l-13.31-13.31-13.31,13.31Z" style="fill: #2b8a4a; stroke-width: 0px;"/>
      <path d="m28.52,338.69l-2.12,3.8,4.6,4.6,4.6-4.6-2.12-3.8c-.51-.91-1.44-1.45-2.48-1.45s-1.97.54-2.48,1.45Z" style="fill: #2b8a4a; stroke-width: 0px;"/>
      <path d="m32.34,348.43l13.03,13.03c.05-.21.08-.43.08-.65,0-.54-.15-1.07-.46-1.54l-8.43-15.06-4.22,4.22Z" style="fill: #2b8a4a; stroke-width: 0px;"/>
    </g>
</g>
<g id="graphics">
   <path id="Rectangle_126" data-name="Rectangle 126" d="m546.9,534.1h0c14.4,0,26,11.6,26,26h0c0,14.4-11.6,26-26,26h0c-14.4,0-26-11.6-26-26h0c0-14.3,11.6-26,26-26Z" style="fill: #fff; stroke-width: 0px;"/>
    <g>
      <path d="m547.36,575.15c.73.96,2.1,1.15,3.06.42l9.48-7.18c.96-.73,1.15-2.1.42-3.06l-.49-.65-12.96,9.82.49.65Z" style="fill: #2b8a4a; stroke-width: 0px;"/>
      <path d="m558.86,563.41l-12.96,9.82-.97-1.28,12.96-9.82.97,1.28Z" style="fill: #2b8a4a; stroke-width: 0px;"/>
      <path d="m546.42,546.99c-.73-.96-2.1-1.15-3.06-.42l-9.48,7.18c-.96.73-1.15,2.1-.42,3.06l1.78,2.35,12.96-9.82-1.78-2.35Zm-4.45,5.33l-2.17,1.65c-.35.27-.86.2-1.12-.15s-.2-.86.15-1.12l2.17-1.65c.35-.27.86-.2,1.12.15s.2.86-.15,1.12Z" style="fill: #2b8a4a; stroke-width: 0px;"/>
      <path d="m542.98,571.41l14.92-11.3c.35-.27.42-.77.15-1.12l-6.78-8.95c-.27-.35-.77-.42-1.12-.15l-14.92,11.3c-.35.27-.42.77-.15,1.12l6.78,8.95c.27.35.77.42,1.12.15Zm5.23-13.41c-.44-.06-.75-.46-.68-.9.03-.22.15-.41.31-.53s.37-.19.59-.16l2.36.33c.44.06.75.47.68.9l-.33,2.36c-.06.44-.47.75-.9.69-.44-.06-.75-.46-.68-.9l.22-1.57-1.57-.22Zm-1.21,5.75l-2.35-5.59c-.17-.4.03-.89.43-1.05.41-.17.88.02,1.05.43l2.35,5.59c.17.4-.02.88-.43,1.05-.41.17-.88-.02-1.05-.43h0Zm-5.35-.1l.33-2.36c.03-.22.15-.41.31-.53s.37-.19.59-.16c.44.06.75.47.69.9l-.22,1.57,1.57.22c.44.06.75.47.69.9-.06.44-.47.75-.9.69l-2.36-.33c-.44-.06-.75-.47-.69-.9h0Z" style="fill: #2b8a4a; stroke-width: 0px;"/>
    </g></g>
</svg>
