<?xml version="1.0" encoding="utf-8"?>
<!-- Generator: Adobe Illustrator 27.7.0, SVG Export Plug-In . SVG Version: 6.00 Build 0)  -->
<svg version="1.1" id="Layer_1" xmlns="http://www.w3.org/2000/svg" xmlns:xlink="http://www.w3.org/1999/xlink" x="0px" y="0px"
	 viewBox="0 0 674 674" style="enable-background:new 0 0 674 674;" xml:space="preserve">
<style type="text/css">
	.st0{fill:#FFFFFF;}
	.st1{fill:#FBBB00;}
	.st2{fill:#518EF8;}
	.st3{fill:#28B446;}
	.st4{fill:#F14336;}
	.st5{fill:#FFFFFF;}
	.st6{fill:#BF3300;}
	.st7{fill:#ffffff;}
	.st8{fill:#FFE000;}
	      #video, #loudspeaker, #graphics{
    animation: rotebox 50s linear infinite;
    transform: rotate(0deg);
    transform-origin: center center;
}
@keyframes rotebox{
0%{
    transform: rotate(0deg);
}
100%{
    transform: rotate(360deg);
}
}
</style>
<g id="video">
   <path id="Rectangle_125" data-name="Rectangle 125" d="m472.2,35.5h0c14.4,0,26,11.6,26,26h0c0,14.4-11.6,26-26,26h0c-14.4,0-26-11.6-26-26h0c0-14.4,11.7-26,26-26Z" style="fill: #fff; stroke-width: 0px;"/>
      <g>
      <path d="m464.46,76.36c-.39-.2-.73-.5-.97-.87l-2.51-3.94c-.38-.57-.07-.54.14-.52.84.11,1.01.13,2,.08.1,0,.2.06.26.15l1.92,3.03c.07.1.21.18.33.17l13.89-.74c.13,0,.25-.09.31-.21l6.3-12.39c.06-.12.05-.27-.02-.38l-7.58-11.65c-.07-.11-.2-.18-.33-.17l-13.88.74c-.13,0-.26.09-.32.21l-6.3,12.39c-.06.12-.05.26.02.37l2.08,3.19c1.19,1.61,2.64,1.16,3.12.22l6.21-12.23c.09-.17.29-.24.47-.15l1.36.69c.17.09.24.29.15.47l-6.22,12.23c-1.08,2.13-2.86,2.76-4.88,1.74-.62-.32-1.11-.56-2.13-1.93l-1.99-3.05c-.49-.76-.54-1.73-.13-2.53l6.3-12.39c.41-.81,1.22-1.34,2.12-1.38l13.9-.74c.88-.04,1.78.42,2.26,1.15l7.58,11.66c.49.75.54,1.72.13,2.53l-6.3,12.39c-.41.8-1.22,1.33-2.12,1.38l-13.88.75c-.45.02-.89-.07-1.28-.27" style="fill: #916563; stroke-width: 0px;"/>
      <path d="m472.11,69.51c-4.7-2.39-4.59-5.04-3.67-6.85.09-.17.3-.24.47-.15l1.39.7c.15.08.23.25.17.42-.51,1.52-.25,2.55,2.59,3.99,2.26,1.15,3.48,1.13,4.09-.07.35-.69.34-1.34-3-3.47-2.79-1.78-4.28-3.36-3.08-5.71,1.1-2.17,3.58-2.53,6.64-.97,3.44,1.75,4.53,3.81,3.45,6.48-.04.09-.11.16-.2.2-.09.03-.19.03-.28-.02l-1.39-.71c-.15-.07-.22-.24-.18-.39.42-1.66-.15-2.54-2.36-3.67-2.47-1.26-3.19-.54-3.52.1-.4.78-.17,1.18,2.93,3.32,3.08,2.12,4.33,3.53,3.15,5.85s-3.82,2.69-7.22.96m19.75-6.49l.36.18c.3.15.46-.03.52-.15.16-.32-.06-.43-.18-.49l-.37-.19-.33.64Zm.08-1.24l.8.41c.27.14.81.41.5,1.03-.22.43-.54.38-.73.35.31.18.22.4.12.72-.07.2-.2.53-.19.67l-.49-.25c.04-.11.27-.74.28-.78.03-.15.02-.24-.14-.32l-.41-.21-.47.93-.45-.23,1.18-2.32Zm-1.55.67c-.49.96-.11,2.14.85,2.62s2.14.09,2.62-.86.09-2.13-.86-2.62-2.11-.12-2.61.85m3.8,1.94c-.58,1.14-1.98,1.6-3.12,1.02s-1.6-1.97-1.02-3.12,2.01-1.58,3.12-1.02,1.61,1.95,1.01,3.12" style="fill: #916563; stroke-width: 0px;"/>
    </g>
 
</g>
<g id="loudspeaker">
   <path id="Rectangle_124" data-name="Rectangle 124" d="m31,326h0c14.4,0,26,11.6,26,26h0c0,14.4-11.6,26-26,26h0c-14.4,0-26-11.6-26-26h0c0-14.4,11.6-26,26-26Z" style="fill: #fff; stroke-width: 0px;"/>
   <path id="path1948" d="m13.94,352.2c0,1.39.13,2.72.33,3.89.61,3.44,1.88,4.07,4.23,4.07h3.1v-8.14h1.03v11.19c0,2.37,1.42,4.44,4.13,5.08,3.1.75,5.03.78,8.27,0,2.41-.58,4.13-1.96,4.13-4.33v-2.8h-3.72c-2.69,0-5.06-2.32-5.06-5.08v-8.13c0-2.26-1.86-4.07-4.14-4.07h-7.75c-2.21,0-3.86,1.86-4.23,4.07-.23,1.4-.34,2.85-.33,4.24Zm2.49,4.4c0-.84.7-1.53,1.56-1.53.85,0,1.55.69,1.55,1.53,0,.84-.69,1.53-1.55,1.53s-1.56-.68-1.56-1.53Z" style="fill: #916563; stroke-width: 0px;"/>
    <path id="path1950" d="m22.64,342.88h3.61c2.8,0,5.16,2.38,5.16,5.08v8.13c0,2.23,1.91,4.07,4.14,4.07h7.75c2.21,0,3.5-1.92,4.14-4.07.76-2.58.89-5.05,0-8.13-.59-2.05-1.79-4.07-4.14-4.07h-3.1v8.13h-1.03v-12.2c0-2.37-1.65-3.25-4.13-4.07-2.55-.85-5-.81-8.27,0-2.35.58-4.13,1.7-4.13,4.07v3.05Zm19.62,4.57c0-.84.69-1.53,1.55-1.53s1.56.68,1.56,1.53-.7,1.53-1.56,1.53-1.55-.69-1.55-1.53Z" style="fill: #916563; stroke-width: 0px;"/>
 
 
</g>
<g id="graphics">
   <path id="Rectangle_126" data-name="Rectangle 126" d="m546.9,534.1h0c14.4,0,26,11.6,26,26h0c0,14.4-11.6,26-26,26h0c-14.4,0-26-11.6-26-26h0c0-14.3,11.6-26,26-26Z" style="fill: #fff; stroke-width: 0px;"/>
   <path d="m540.66,578.69s-.07-.05-.1-.08l-4.83-4.83c-.13-.13-.18-.31-.13-.48l1.72-6.38-4.62-4.62c-.13-.13-.18-.31-.13-.48l3.59-13.32s.02-.06.04-.09c0-.01,0-.02.01-.03.04-.07.11-.14.18-.18.01,0,.03-.01.04-.02.03-.01.05-.03.08-.03l13.32-3.59c.17-.05.36,0,.48.13l14.48,14.48s.06.07.08.1c0,.01.01.03.02.04.01.03.02.05.03.08,0,.02,0,.04,0,.06,0,.02,0,.05,0,.07,0,.02,0,.04,0,.06,0,.02,0,.05,0,.07h0s-1.79,6.66-1.79,6.66c-.05.17-.18.31-.35.35l-6.66,1.79h0s-.05,0-.07,0c-.02,0-.04,0-.06,0-.03,0-.05,0-.07,0-.02,0-.04,0-.05,0-.03,0-.05-.02-.08-.03-.01,0-.03,0-.04-.02-.04-.02-.07-.05-.1-.08l-9.04-9.04-1.49,5.55,4.62,4.62s.06.07.08.1c0,.01.01.03.02.04.01.03.02.05.03.08,0,.02,0,.04,0,.05,0,.02,0,.05,0,.07,0,.02,0,.04,0,.06,0,.02,0,.05,0,.07h0s-1.79,6.66-1.79,6.66c-.05.17-.18.31-.35.35l-6.66,1.79s-.05,0-.07,0c-.02,0-.04,0-.06,0-.03,0-.05,0-.07,0-.02,0-.04,0-.05,0-.03,0-.05-.02-.08-.03-.01,0-.03,0-.04-.02Zm-4.02-5.41l4.01,4.01.63-2.33.87-3.22-4.01-4.01-1.5,5.55h0Zm-3.03-11.49l4.02,4.02.86-3.16,2.46-9.02-4.05-4.05s-3.29,12.21-3.29,12.21Zm29.87-2.54l-13.67-13.67-12.21,3.29,4.05,4.05,6.34-1.76h0s0,0,0,0c.02,0,.04,0,.07,0,.02,0,.04,0,.06,0h0s.04,0,.07,0c.02,0,.04,0,.06,0h0s.04.02.06.03c.02,0,.04.01.06.02h0s.04.03.06.04c.01.01.03.02.04.03h0s9.45,9.45,9.45,9.45l3.22-.87,2.33-.63h0Zm-1.24,6.51l1.49-5.55-5.55,1.49-1.49,5.55,5.55-1.49h0Zm-14.48-10.82l-.87,3.22,8.84,8.84.63-2.33.87-3.22-8.84-8.84s-.63,2.33-.63,2.33Zm-.59,21.11l1.49-5.55-5.55,1.49-1.49,5.55s5.55-1.49,5.55-1.49Zm-4.31-5.02l3.22-.87,2.33-.63-4.01-4.01-3.22.87-2.33.63s4.01,4.01,4.01,4.01Zm-.94-17.15l-2.22,8.11-1.11,4.06,5.54-1.49,1.72-6.38,1.57-5.82s-5.51,1.53-5.51,1.53Z" style="fill: #916563; fill-rule: evenodd; stroke-width: 0px;"/>
 
</g>
</svg>

