<?xml version="1.0" encoding="utf-8"?>
<!-- Generator: Adobe Illustrator 27.7.0, SVG Export Plug-In . SVG Version: 6.00 Build 0)  -->
<svg version="1.1" id="Layer_1" xmlns="http://www.w3.org/2000/svg" xmlns:xlink="http://www.w3.org/1999/xlink" x="0px" y="0px"
	 viewBox="0 0 674 674" style="enable-background:new 0 0 674 674;" xml:space="preserve">
<style type="text/css">
	.st0{fill:#FFFFFF;}
	.st1{fill:#FBBB00;}
	.st2{fill:#518EF8;}
	.st3{fill:#28B446;}
	.st4{fill:#F14336;}
	.st5{fill:#FFFFFF;}
	.st6{fill:#BF3300;}
	.st7{fill:#ffffff;}
	.st8{fill:#FFE000;}
	      #video, #loudspeaker, #graphics{
    animation: rotebox 50s linear infinite;
    transform: rotate(0deg);
    transform-origin: center center;
}
@keyframes rotebox{
0%{
    transform: rotate(0deg);
}
100%{
    transform: rotate(360deg);
}
}
</style>
<g id="video">
   <path id="Rectangle_125" data-name="Rectangle 125" d="m472.2,35.5h0c14.4,0,26,11.6,26,26h0c0,14.4-11.6,26-26,26h0c-14.4,0-26-11.6-26-26h0c0-14.4,11.7-26,26-26Z" style="fill: #fff; stroke-width: 0px;"/>
   <g id="Icon">
      <path d="m484.33,59.18c-.22.42-.74.58-1.16.36s-.58-.74-.36-1.16l1.34-2.53c.22-.42.74-.58,1.16-.36s.58.74.36,1.16l-1.34,2.53Z" style="fill: #e8570b; fill-rule: evenodd; stroke-width: 0px;"/>
      <path d="m477.25,55.41c-.22.42-.74.58-1.16.36s-.58-.74-.36-1.16l1.34-2.53c.22-.42.74-.58,1.16-.36s.58.74.36,1.16l-1.34,2.53Z" style="fill: #e8570b; fill-rule: evenodd; stroke-width: 0px;"/>
      <path d="m470.16,51.65c-.22.42-.74.58-1.16.36s-.58-.74-.36-1.16l1.34-2.53c.22-.42.74-.58,1.16-.36s.58.74.36,1.16l-1.34,2.53Z" style="fill: #e8570b; fill-rule: evenodd; stroke-width: 0px;"/>
      <path d="m486.84,56.29c.42.22.58.74.36,1.16s-.74.58-1.16.36l-3.04-1.61c-.42-.22-.58-.74-.36-1.16s.74-.58,1.16-.36l3.04,1.61Z" style="fill: #e8570b; fill-rule: evenodd; stroke-width: 0px;"/>
      <path d="m479.75,52.53c.42.22.58.74.36,1.16s-.74.58-1.16.36l-3.04-1.61c-.42-.22-.58-.74-.36-1.16s.74-.58,1.16-.36l3.04,1.61Z" style="fill: #e8570b; fill-rule: evenodd; stroke-width: 0px;"/>
      <path d="m472.66,48.76c.42.22.58.74.36,1.16s-.74.58-1.16.36l-3.04-1.61c-.42-.22-.58-.74-.36-1.16s.74-.58,1.16-.36l3.04,1.61Z" style="fill: #e8570b; fill-rule: evenodd; stroke-width: 0px;"/>
      <path d="m471.53,74.12c.42.22.58.74.36,1.16s-.74.58-1.16.36l-8.1-4.3c-.42-.22-.58-.74-.36-1.16s.74-.58,1.16-.36l8.1,4.3Z" style="fill: #e8570b; fill-rule: evenodd; stroke-width: 0px;"/>
      <path d="m486.84,61.8l-5.91,11.14c-.25.47-.67.82-1.18.98-.51.16-1.06.1-1.53-.15l-18.23-9.68c-.47-.25-.82-.67-.98-1.18-.16-.51-.1-1.06.15-1.53l5.91-11.14c.25-.47.67-.82,1.18-.98.51-.16,1.06-.1,1.53.15l18.23,9.68c.47.25.82.67.98,1.18.16.51.1,1.06-.15,1.53Zm-10.67,1.15l-9.11-4.84c-.42-.22-.94-.06-1.16.36s-.06.94.36,1.16l9.11,4.84c.42.22.94.06,1.16-.36s.06-.94-.36-1.16Zm-2.44-5.19l-5.06-2.69c-.42-.22-.94-.06-1.16.36s-.06.94.36,1.16l5.06,2.69c.42.22.94.06,1.16-.36s.06-.94-.36-1.16Z" style="fill: #e8570b; fill-rule: evenodd; stroke-width: 0px;"/>
      <path d="m471.34,71.43l-1.48,2.79c-.22.42-.74.58-1.16.36l-4.05-2.15c-.42-.22-.58-.74-.36-1.16l1.48-2.79,5.57,2.96Z" style="fill: #e8570b; fill-rule: evenodd; stroke-width: 0px;"/>
    </g>
</g>
<g id="loudspeaker">
   <path id="Rectangle_124" data-name="Rectangle 124" d="m31,326h0c14.4,0,26,11.6,26,26h0c0,14.4-11.6,26-26,26h0c-14.4,0-26-11.6-26-26h0c0-14.4,11.6-26,26-26Z" style="fill: #fff; stroke-width: 0px;"/>
     <g id="Icon-2" data-name="Icon">
      <path d="m17.06,344.45c0-.98.37-1.91,1.02-2.6.67-.71,1.58-1.1,2.53-1.1h12.91c.95,0,1.86.39,2.53,1.1.65.69,1.02,1.62,1.02,2.6v17.76c0,.98-.37,1.91-1.02,2.6-.67.71-1.58,1.1-2.53,1.1h-12.91c-.95,0-1.86-.39-2.53-1.1-.65-.69-1.02-1.62-1.02-2.6v-17.76Zm12.91,15.34c.53,0,.97-.43.97-.97s-.43-.97-.97-.97h-1.61v-1.94h1.61c.53,0,.97-.43.97-.97s-.43-.97-.97-.97h-3.87c-1.6,0-2.9,1.3-2.9,2.9s1.3,2.9,2.9,2.9h3.87Zm-3.55-3.87v1.94h-.32c-.53,0-.97-.43-.97-.97s.43-.97.97-.97h.32Zm3.55-3.23c.53,0,.97-.43.97-.97v-1.94c0-1.6-1.3-2.9-2.9-2.9h-1.94c-1.6,0-2.9,1.3-2.9,2.9v1.94c0,.53.43.97.97.97h5.81Zm-.97-1.94h-3.87v-.97c0-.53.43-.97.97-.97h1.94c.53,0,.97.43.97.97v.97Z" style="fill: #e8570b; fill-rule: evenodd; stroke-width: 0px;"/>
      <path d="m39,340.42c0-.53.43-.97.97-.97s.97.43.97.97v25.81c0,.53-.43.97-.97.97s-.97-.43-.97-.97v-25.81Z" style="fill: #e8570b; fill-rule: evenodd; stroke-width: 0px;"/>
    </g>
</g>
<g id="graphics">
   <path id="Rectangle_126" data-name="Rectangle 126" d="m546.9,534.1h0c14.4,0,26,11.6,26,26h0c0,14.4-11.6,26-26,26h0c-14.4,0-26-11.6-26-26h0c0-14.3,11.6-26,26-26Z" style="fill: #fff; stroke-width: 0px;"/>
      <g>
      <path d="m549.49,566.4c2.21-2.65-1.54-5.89-3.85-3.33,1.84.08,3.51,1.6,3.77,3.42.03-.03.05-.05.08-.08Z" style="fill: #e8570b; stroke-width: 0px;"/>
      <path d="m551.72,563.94c2.21-2.65-1.54-5.89-3.85-3.33,1.84.08,3.51,1.6,3.77,3.42.03-.03.05-.05.08-.08Z" style="fill: #e8570b; stroke-width: 0px;"/>
      <path d="m547.26,568.86c.94-1.04.86-2.65-.18-3.6-2.59-2.17-5.83,1.41-3.42,3.77,1.04.94,2.65.86,3.6-.18Z" style="fill: #e8570b; stroke-width: 0px;"/>
      <path d="m553.95,561.48c2.21-2.65-1.54-5.89-3.85-3.33,1.84.08,3.51,1.6,3.77,3.42.03-.03.05-.05.08-.08Z" style="fill: #e8570b; stroke-width: 0px;"/>
      <path d="m548.81,578.11l14.5-15.99c.9-1,.83-2.54-.17-3.44l-11.07-10.04c-1-.9-2.54-.83-3.44.17l-14.5,15.99c-.9,1-.83,2.54.17,3.44l11.07,10.04c1,.9,2.54.83,3.44-.17h0Zm-6.47-13.71c.4-.44.87-.77,1.38-.99.34-1.08,1.21-2.02,2.23-2.46.34-1.08,1.21-2.02,2.23-2.46.87-2.78,4.51-3.74,6.64-1.75,2.19,1.92,1.58,5.65-1.09,6.78-.34,1.06-1.19,2.01-2.23,2.46-.34,1.06-1.19,2.01-2.23,2.46-.86,2.77-4.52,3.74-6.64,1.75-1.67-1.52-1.8-4.11-.28-5.79Z" style="fill: #e8570b; stroke-width: 0px;"/>
      <path d="m530.47,563.73l10.76-11.87c-.44-.26-.85-.63-1.15-1.04l-10.76,11.87c-.66.79.43,1.78,1.15,1.04Z" style="fill: #e8570b; stroke-width: 0px;"/>
      <path d="m545.08,550.08c.9-1,.83-2.54-.17-3.44-2.47-2.08-5.58,1.35-3.27,3.61,1,.9,2.54.83,3.44-.17Z" style="fill: #e8570b; stroke-width: 0px;"/>
      <path d="m547.2,545.27c.66-.79-.43-1.78-1.15-1.04l-.72.79c.44.26.85.63,1.15,1.04l.72-.79Z" style="fill: #e8570b; stroke-width: 0px;"/>
    </g> </g>
</svg>


<?xml version="1.0" encoding="UTF-8"?>
<svg id="Layer_1" data-name="Layer 1" xmlns="http://www.w3.org/2000/svg" viewBox="0 0 674 674">
  <rect width="674" height="674" style="stroke-width: 0px;"/>
  <g id="video">
    <path id="Rectangle_125" data-name="Rectangle 125" d="m472.22,35.5h0c14.36,0,26,11.64,26,26h0c0,14.36-11.64,26-26,26h0c-14.36,0-26-11.64-26-26h0c0-14.36,11.64-26,26-26Z" style="fill: #fff; stroke-width: 0px;"/>
    <g>
      <path d="m479.85,74.48l-2.03-1.05,6.67-12.9,1.97,1.02c.68.35,1.51.08,1.86-.59s.08-1.51-.59-1.86l-1.97-1.02,1.06-2.04c.35-.68.08-1.51-.59-1.86s-1.51-.08-1.86.59l-1.06,2.04-12.98-6.71,1.05-2.03c.35-.68.08-1.51-.59-1.86s-1.51-.08-1.86.59l-1.05,2.03-2.03-1.05c-.68-.35-1.51-.08-1.86.59s-.08,1.51.59,1.86l2.03,1.05-6.67,12.9-1.97-1.02c-.68-.35-1.51-.08-1.86.59s-.08,1.51.59,1.86l1.97,1.02-1.06,2.04c-.35.68-.08,1.51.59,1.86s1.51.08,1.86-.59l1.06-2.04,12.97,6.71-1.05,2.03c-.35.68-.08,1.51.59,1.86s1.51.08,1.86-.59l1.05-2.03,2.03,1.05c.68.35,1.51.08,1.86-.59.35-.68.08-1.51-.59-1.86Zm-17.45-9.03l6.67-12.9,12.97,6.71-6.67,12.9-12.97-6.71Z" style="stroke-width: 0px;"/>
      <rect x="467.14" y="57.13" width="10.09" height="10.44" transform="translate(199.85 453.09) rotate(-62.65)" style="stroke-width: 0px;"/>
    </g>
  </g>
  <g id="loudspeaker">
    <path id="Rectangle_124" data-name="Rectangle 124" d="m31,326h0c14.36,0,26,11.64,26,26h0c0,14.36-11.64,26-26,26h0c-14.36,0-26-11.64-26-26h0c0-14.36,11.64-26,26-26Z" style="fill: #fff; stroke-width: 0px;"/>
    <g>
      <path d="m28.13,364.28v1.7c0,.47.38.85.85.85s.85-.38.85-.85v-1.7c0-.47-.38-.85-.85-.85s-.85.38-.85.85Z" style="stroke-width: 0px;"/>
      <path d="m23.87,363.87l-1.2,1.2c-.33.33-.33.87,0,1.2s.87.33,1.2,0l1.2-1.2c.33-.33.33-.87,0-1.2s-.87-.33-1.2,0Z" style="stroke-width: 0px;"/>
      <path d="m32.88,363.87c-.33.33-.33.87,0,1.2l1.2,1.2c.33.33.87.33,1.2,0,.33-.33.33-.87,0-1.2l-1.2-1.2c-.33-.33-.87-.33-1.2,0Z" style="stroke-width: 0px;"/>
      <path d="m28.13,338.65v1.7c0,.47.38.85.85.85s.85-.38.85-.85v-1.7c0-.47-.38-.85-.85-.85s-.85.38-.85.85Z" style="stroke-width: 0px;"/>
      <path d="m22.67,338.36c-.33.33-.33.87,0,1.2l1.2,1.2c.33.33.87.33,1.2,0,.33-.33.33-.87,0-1.2l-1.2-1.2c-.33-.33-.87-.33-1.2,0Z" style="stroke-width: 0px;"/>
      <path d="m34.08,338.36l-1.2,1.2c-.33.33-.33.87,0,1.2s.87.33,1.2,0l1.2-1.2c.33-.33.33-.87,0-1.2s-.87-.33-1.2,0Z" style="stroke-width: 0px;"/>
      <path d="m20.15,345.88c-1.95,2.4-2.7,5.55-2.05,8.62.8,3.84,3.97,6.96,7.81,7.78,3.26.69,6.54-.16,8.99-2.34.99-.88,2.19-1.42,3.44-1.59v-2.63h-7.65c-.33,0-5.19-2.49-5.48-2.64-.58-.29-.58-1.23,0-1.52.31-.15,5.17-2.64,5.48-2.64h7.65v-2.64c-1.24-.18-2.46-.74-3.49-1.64-1.86-1.63-4.24-2.53-6.71-2.53-3.09,0-6.03,1.38-7.98,3.77Z" style="stroke-width: 0px;"/>
      <path d="m32.3,352.32c0,.58-.1,1.15-.28,1.7h6.31v-3.4h-6.31c.18.55.28,1.13.28,1.7Z" style="stroke-width: 0px;"/>
      <path d="m40.03,358.27h.85c1.41,0,2.55-1.14,2.55-2.55v-6.8c0-1.41-1.14-2.55-2.55-2.55h-.85v11.91Z" style="stroke-width: 0px;"/>
      <path d="m27.48,352.32l2.81,1.41c.37-.91.37-1.9,0-2.81l-2.81,1.41Z" style="stroke-width: 0px;"/>
      <path d="m45.14,356.41c.99-.35,1.76-1.29,1.76-2.39v-3.4c0-1.11-.77-2.04-1.76-2.39v8.19Z" style="stroke-width: 0px;"/>
    </g>
  </g>
  <g id="graphics">
    <path id="Rectangle_126" data-name="Rectangle 126" d="m546.89,534.11h0c14.36,0,26,11.64,26,26h0c0,14.36-11.64,26-26,26h0c-14.36,0-26-11.64-26-26h0c0-14.36,11.64-26,26-26Z" style="fill: #fff; stroke-width: 0px;"/>
    <g>
      <path d="m532.89,563.6l2.72-2.96c.38-.41.35-1.04-.06-1.42s-1.04-.35-1.42.06l-2.72,2.96c-.38.41-.35,1.04.06,1.42s1.04.35,1.42-.06Z" style="stroke-width: 0px;"/>
      <path d="m541.17,557.56c.89-.96,1.02-2.36.44-3.45l7.33-7.97c.38-.41.35-1.04-.06-1.42s-1.04-.35-1.42.06l-7.33,7.97c-1.14-.49-2.52-.23-3.4.73-1.13,1.22-1.05,3.13.18,4.26s3.13,1.05,4.26-.18Zm-2.96-2.72c.38-.41,1.01-.43,1.42-.06s.43,1.01.06,1.42-1.01.43-1.42.06-.43-1.01-.06-1.42Z" style="stroke-width: 0px;"/>
      <path d="m551.59,575.34l10.61-11.54c1.88-2.04,1.74-5.22-.3-7.1l-5.92-5.44c-2.04-1.88-5.22-1.74-7.1.3l-10.61,11.54c-1.88,2.04-1.74,5.22.3,7.1l5.92,5.44c2.04,1.88,5.22,1.74,7.1-.3Zm-11.66-6.63c-1.22-1.13-1.3-3.04-.18-4.26l10.61-11.54c1.13-1.22,3.04-1.3,4.26-.18l5.92,5.44c1.22,1.13,1.3,3.04.18,4.26l-10.61,11.54c-1.13,1.22-3.04,1.3-4.26.18l-5.92-5.44Z" style="stroke-width: 0px;"/>
      <path d="m549.99,571.14c.89-.96,1.02-2.36.44-3.45l.53-.57c1.83-1.99,2.29-4.76,1.44-7.14,1.42.05,2.85-.49,3.88-1.62.38-.41.35-1.04-.06-1.42s-1.04-.35-1.42.06c-1.13,1.22-3.04,1.3-4.26.18-.41-.38-1.04-.35-1.42.06s-.35,1.04.06,1.42c2.04,1.88,2.17,5.06.3,7.1l-.53.57c-1.14-.49-2.52-.23-3.4.73-1.13,1.22-1.05,3.13.18,4.26s3.13,1.05,4.26-.18Zm-2.96-2.72c.38-.41,1.01-.43,1.42-.06s.43,1.01.06,1.42-1.01.43-1.42.06-.43-1.01-.06-1.42Z" style="stroke-width: 0px;"/>
    </g>
  </g>
</svg>