<?xml version="1.0" encoding="utf-8"?>
<!-- Generator: Adobe Illustrator 27.7.0, SVG Export Plug-In . SVG Version: 6.00 Build 0)  -->
<svg version="1.1" id="Layer_1" xmlns="http://www.w3.org/2000/svg" xmlns:xlink="http://www.w3.org/1999/xlink" x="0px" y="0px"
	 viewBox="0 0 674 674" style="enable-background:new 0 0 674 674;" xml:space="preserve">
<style type="text/css">
	.st0{fill:#FFFFFF;}
	.st1{fill:#FBBB00;}
	.st2{fill:#518EF8;}
	.st3{fill:#28B446;}
	.st4{fill:#F14336;}
	.st5{fill:#FFFFFF;}
	.st6{fill:#BF3300;}
	.st7{fill:#ffffff;}
	.st8{fill:#FFE000;}
	      #video, #loudspeaker, #graphics{
    animation: rotebox 50s linear infinite;
    transform: rotate(0deg);
    transform-origin: center center;
}
@keyframes rotebox{
0%{
    transform: rotate(0deg);
}
100%{
    transform: rotate(360deg);
}
}
</style>
<g id="video">
   <path id="Rectangle_125" data-name="Rectangle 125" d="m472.2,35.5h0c14.4,0,26,11.6,26,26h0c0,14.4-11.6,26-26,26h0c-14.4,0-26-11.6-26-26h0c0-14.4,11.7-26,26-26Z" style="fill: #fff; stroke-width: 0px;"/>
   <g id="Outlined_Mnemonics_Logos" data-name="Outlined Mnemonics Logos">
      <g id="Ps">
        <path d="m458.19,63.24l8.32-15.57c.06-.11.13-.14.24-.09.26.14.5.27.86.44.37.18.75.38,1.17.58.42.2.86.44,1.33.67.48.24.93.48,1.39.72,1.24.66,2.19,1.36,2.87,2.13.62.66,1.09,1.46,1.36,2.32.23.74.29,1.54.18,2.31-.11.76-.34,1.47-.7,2.15-.7,1.3-1.57,2.21-2.63,2.74s-2.24.71-3.42.54c-1.23-.17-2.44-.64-3.68-1.3-.36-.19-.61-.32-.75-.42s-.36-.21-.64-.36l-2.59,4.86c-.04.11-.17.16-.28.12l-.06-.03-2.87-1.54c-.12-.06-.15-.16-.08-.29Zm10.14-11.05l-2.72,5.08c.2.13.39.25.57.35l.8.43c.59.32,1.23.54,1.89.66.56.12,1.13.06,1.67-.14.52-.21.95-.64,1.3-1.31.27-.46.4-.99.37-1.53-.05-.53-.25-1.03-.6-1.43-.44-.53-1-.94-1.62-1.26-.39-.21-.74-.4-1.04-.53-.29-.18-.51-.27-.63-.32h0Z" style="fill: #e8570b; stroke-width: 0px;"/>
        <path d="m483.7,65.74c-.32-.48-.72-.91-1.18-1.29-.5-.42-1.01-.79-1.59-1.1-.29-.18-.64-.3-.96-.38-.22-.06-.44-.04-.63.05-.14.08-.27.21-.34.34s-.08.3-.06.47c.05.24.16.47.3.68.25.37.53.73.81,1.07.67.71,1.26,1.51,1.74,2.35.33.58.51,1.23.52,1.89-.02.61-.18,1.21-.48,1.74-.36.72-.96,1.32-1.67,1.7-.75.38-1.59.53-2.41.44-.91-.08-1.91-.4-3-.98-.7-.37-1.34-.8-1.95-1.3-.48-.37-.92-.82-1.28-1.31-.07-.12-.09-.26-.01-.38l1.41-2.63s.07-.1.13-.1c.06,0,.1.03.13.09.4.66.9,1.24,1.48,1.74.49.46,1.06.86,1.66,1.18s1.02.45,1.37.46c.3.02.6-.14.75-.42.11-.21.1-.47-.04-.8-.14-.33-.52-.82-1.1-1.5-.63-.68-1.14-1.43-1.57-2.24-.29-.58-.45-1.23-.46-1.9.02-.61.18-1.21.48-1.73.35-.65.86-1.17,1.49-1.56.7-.4,1.52-.59,2.33-.54.91.02,1.89.33,2.96.9.62.33,1.23.72,1.8,1.14.42.3.8.66,1.12,1.04.05.05.08.14.08.22-.02.07-.03.14-.07.2l-1.32,2.47c-.03.06-.09.1-.16.11-.15-.04-.23-.08-.27-.15Z" style="fill: #e8570b; stroke-width: 0px;"/>
      </g>
    </g>
</g>
<g id="loudspeaker">
   <path id="Rectangle_124" data-name="Rectangle 124" d="m31,326h0c14.4,0,26,11.6,26,26h0c0,14.4-11.6,26-26,26h0c-14.4,0-26-11.6-26-26h0c0-14.4,11.6-26,26-26Z" style="fill: #fff; stroke-width: 0px;"/>
        <path d="m34.15,353.34v6.29s3.97,1.28,3.97,1.28c.15.03.25.17.24.32v3.18c0,.19-.1.24-.3.19l-15.66-5.44c-.17-.05-.35-.1-.56-.17-.35-.07-.73-.1-1.1-.1-.08.02-.17-.05-.19-.14v-4.38c0-.14.05-.2.14-.22l17.4-6.17c.19-.05.27,0,.27.17v3.53c.02.12-.07.24-.19.27l-4.02,1.39Zm-3.43,5.31v-4.29c-.35.1-.78.24-1.22.39-.46.15-.95.3-1.45.46-.52.17-1.03.32-1.55.49s-1.01.32-1.5.46c-.47.14-.91.25-1.32.37v.03c.73.15,1.45.34,2.18.57.81.25,1.66.51,2.5.78.86.24,1.66.49,2.37.74Zm-7.21-14.43c.02.56-.2,1.1-.59,1.5-.42.39-.98.59-1.55.57-.57.02-1.12-.2-1.5-.61s-.59-.95-.59-1.5c0-.66.2-1.17.59-1.54.41-.37.95-.57,1.5-.56.57-.02,1.13.19,1.55.59.41.39.63.96.59,1.54h0Zm14.67,1.89h-13.01c-.17,0-.24-.07-.24-.22v-3.35c0-.15.08-.22.24-.22h13.01c.19,0,.27.07.27.22v3.31c0,.17-.1.25-.27.25Z" style="fill: #e8570b; stroke-width: 0px;"/>
 
</g>
<g id="graphics">
   <path id="Rectangle_126" data-name="Rectangle 126" d="m546.9,534.1h0c14.4,0,26,11.6,26,26h0c0,14.4-11.6,26-26,26h0c-14.4,0-26-11.6-26-26h0c0-14.3,11.6-26,26-26Z" style="fill: #fff; stroke-width: 0px;"/>
   <g>
      <polygon points="536.6 549.59 539.16 547.67 540.92 549.36 537.71 551.75 536.6 549.59" style="fill: #e8570b; stroke-width: 0px;"/>
      <path d="m549.34,573.82c-3.73.19-6.19-1.75-7.54-4.15-3.75-6.24-2.66-17.34-2.82-16.55-.49,2.14-1.01,10.86,1.89,16.51,2.89,5.65,8.48,4.2,8.48,4.2Z" style="fill: #e8570b; stroke-width: 0px;"/>
      <path d="m557.07,558.28c1.92,1.98,3.08,4.9,1.83,8.42,0,0,2.99-4.93-1.6-9.32-4.59-4.39-13.1-6.38-15.28-6.52-.8-.07,10.14,2.05,15.06,7.43Z" style="fill: #e8570b; stroke-width: 0px;"/>
      <path d="m551.46,561.04c-2.46-2.93-6.27-6.38-10.78-9.61l-.67.5c1.8,5.24,4.03,9.88,6.13,13.07,3.04,4.61,6.07,6.76,8.12,6.45.19-.03.39-.08.63-.26.24-.18.34-.36.43-.54.88-1.88-.31-5.39-3.86-9.62Z" style="fill: #e8570b; stroke-width: 0px;"/>
      <path d="m541.07,551.22s8.86,3.6,13.41,9.11c4.55,5.51,1.67,9.97,1.67,9.97.36-.29,1.01-1.15,1.52-2.1.51-.95,2.02-4.68-1-8.85-2.99-3.86-11.57-7.81-15.6-8.13Z" style="fill: #e8570b; stroke-width: 0px;"/>
      <path d="m544.52,567.76c-3.98-5.94-4.9-15.45-4.9-15.45-.85,3.96.49,13.31,3.34,17.27,3.13,4.09,7.14,3.7,8.2,3.49,1.05-.22,2.06-.59,2.44-.86,0,0-5.1,1.49-9.07-4.45Z" style="fill: #e8570b; stroke-width: 0px;"/>
    </g>  </g>
</svg>

