<?xml version="1.0" encoding="utf-8"?>
<!-- Generator: Adobe Illustrator 27.7.0, SVG Export Plug-In . SVG Version: 6.00 Build 0)  -->
<svg version="1.1" id="Layer_1" xmlns="http://www.w3.org/2000/svg" xmlns:xlink="http://www.w3.org/1999/xlink" x="0px" y="0px"
	 viewBox="0 0 674 674" style="enable-background:new 0 0 674 674;" xml:space="preserve">
<style type="text/css">
	.st0{fill:#FFFFFF;}
	.st1{fill:#FBBB00;}
	.st2{fill:#518EF8;}
	.st3{fill:#28B446;}
	.st4{fill:#F14336;}
	.st5{fill:#FFFFFF;}
	.st6{fill:#BF3300;}
	.st7{fill:#ffffff;}
	.st8{fill:#FFE000;}
	      #video, #loudspeaker, #graphics{
    animation: rotebox 50s linear infinite;
    transform: rotate(0deg);
    transform-origin: center center;
}
@keyframes rotebox{
0%{
    transform: rotate(0deg);
}
100%{
    transform: rotate(360deg);
}
}
</style>
<g id="video">
   <path id="Rectangle_125" data-name="Rectangle 125" d="m472.2,35.5h0c14.4,0,26,11.6,26,26h0c0,14.4-11.6,26-26,26h0c-14.4,0-26-11.6-26-26h0c0-14.4,11.7-26,26-26Z" style="fill: #fff; stroke-width: 0px;"/>
   <g>
      <path d="m461.37,62.04l13.96,9.57c.95.65,2.26.41,2.91-.54l7.5-10.95c.65-.95.41-2.26-.54-2.91l-13.96-9.57c-.95-.65-2.26-.41-2.91.54l-7.5,10.95c-.65.95-.41,2.26.54,2.91Zm7.8-13.28c.33-.49,1-.61,1.49-.28l13.96,9.57c.49.33.61,1,.28,1.49l-7.5,10.95c-.33.49-1,.61-1.49.28l-13.96-9.57c-.49-.33-.61-1-.28-1.49l7.5-10.95h0Z" style="fill: #1d6496; stroke-width: 0px;"/>
      <path d="m476.94,73.08l-8.76-6.01-8.76-6.01-2.98.07-.48.7s-.25.84.34,1.24l7.45,5.11,4.98,3.41,7.45,5.11c.59.41,1.28-.13,1.28-.13l.48-.7-1.01-2.8Zm-17.22-11.06l16.22,11.12.08.38-16.68-11.43.38-.06Zm-2.44-.18l.38-.06,19.25,13.2.08.38-19.71-13.51Z" style="fill: #1d6496; stroke-width: 0px;"/>
      <path d="m472.27,57.32s-.27.94-.09,1.48c.15.47.48.92.77,1.17h0s.05.04.07.05c.02.02.04.03.07.05h0c.34.17.88.31,1.37.29.57-.03,1.35-.62,1.35-.62l1.49-1.87c1.26-1.58-.09-2.8-.55-3.15h0s-.03-.02-.07-.05c-.04-.03-.07-.05-.07-.05h0c-.48-.29-2.12-1.11-3.13.63l-1.2,2.06h0Z" style="fill: #1d6496; stroke-width: 0px;"/>
      <path d="m475.59,65.85c.98-1.43,1.04-3.22.3-4.67l-3.93,1.4.34-1.52-1.29.87-.11-4.17c-1.61-.16-3.26.54-4.25,1.97l-1.23,1.79,8.93,6.12,1.23-1.79Z" style="fill: #1d6496; stroke-width: 0px;"/>
    </g>
</g>
<g id="loudspeaker">
   <path id="Rectangle_124" data-name="Rectangle 124" d="m31,326h0c14.4,0,26,11.6,26,26h0c0,14.4-11.6,26-26,26h0c-14.4,0-26-11.6-26-26h0c0-14.4,11.6-26,26-26Z" style="fill: #fff; stroke-width: 0px;"/>
    <path d="m41.4,350.99c-.71.01-1.4-.17-2.02-.52l-7.48-4.32h-.9v-.52l-1.95-1.13v1.65h-3.9v-3.9h.51c-.4-.56-.55-1.27-.42-1.95h-3.99c-1.79,0-3.25,1.46-3.25,3.25v18.85c0,1.79,1.46,3.25,3.25,3.25h17.55c1.79,0,3.25-1.46,3.25-3.25v-11.42h-.65Zm-21.45-4.84v-2.6c0-.72.58-1.3,1.3-1.3h1.95v3.9h-3.25Zm20.15,13.65v2.6c0,.72-.58,1.3-1.3,1.3h-1.95v-3.9h3.25Zm-5.2,0v3.9h-3.9v-3.9h3.9Zm-5.85,0v3.9h-3.9v-3.9h3.9Zm-5.85,0v3.9h-1.95c-.72,0-1.3-.58-1.3-1.3v-2.6h3.25Zm10.16-3.25h-6.01c-.72,0-1.3-.58-1.3-1.3,0-.23.06-.45.17-.65l3.01-5.21c.36-.62,1.15-.83,1.78-.48.2.11.36.28.48.48l3.01,5.21c.36.62.15,1.42-.48,1.78-.2.11-.42.17-.65.17Z" style="fill: #1d6496; stroke-width: 0px;"/>
    <path d="m38.15,342.25h.65c.65,0,1.19.48,1.28,1.12l1.97,1.14v-.95c0-1.79-1.46-3.25-3.25-3.25h-4.03l3.38,1.95Z" style="fill: #1d6496; stroke-width: 0px;"/>
    <path d="m29.21,343.1l10.32,5.96,1.95-3.38-10.32-5.96-1.95,3.38Zm4.88-.19c.31.18.41.58.23.89-.18.31-.57.41-.88.24l-1.69-.98c-.31-.18-.42-.57-.24-.89.18-.31.57-.42.89-.24,0,0,0,0,0,0l1.69.98Z" style="fill: #1d6496; stroke-width: 0px;"/>
    <path d="m30.04,339.07l-.94-.54c-.62-.36-1.42-.14-1.78.48,0,0,0,0,0,0l-.65,1.13c-.36.62-.15,1.42.48,1.78l.94.54,1.95-3.38Z" style="fill: #1d6496; stroke-width: 0px;"/>
    <path d="m40.71,349.61c.22.05.44.08.67.08l1.99-.03c.36,0,.65-.3.64-.66,0-.11-.03-.21-.08-.3l-.96-1.74c-.11-.2-.25-.38-.4-.54l-1.85,3.2Z" style="fill: #1d6496; stroke-width: 0px;"/>
 
</g>
<g id="graphics">
   <path id="Rectangle_126" data-name="Rectangle 126" d="m546.9,534.1h0c14.4,0,26,11.6,26,26h0c0,14.4-11.6,26-26,26h0c-14.4,0-26-11.6-26-26h0c0-14.3,11.6-26,26-26Z" style="fill: #fff; stroke-width: 0px;"/>
     <path d="m559.34,557.22l.21-1.22c.09-.51-.23-1.01-.73-1.15l-1.01-.28c-.48-.14-.99.1-1.2.56l-.51,1.13c-.13.02-.26.04-.38.07,0,0,0,0,0,0-.05.01-.1.03-.16.04-.02,0-.03,0-.05.01-.05.01-.09.03-.14.04-.02,0-.04.01-.07.02-.02,0-.04.01-.06.02l-1-.7c-.4-.28-.95-.24-1.3.11l-.69.68c-.36.36-.4.92-.1,1.33l.7.94c-.12.31-.2.63-.24.95l-1.1.57c-.45.23-.66.75-.49,1.23l.32.94c.16.47.65.76,1.14.67l1.14-.2c.05.05.09.1.14.15.04.04.09.09.13.13.02.01.03.03.05.04.02.01.03.03.05.04l-.14,1.23c-.06.5.26.96.74,1.09l.9.25c.48.13.98-.1,1.19-.55l.5-1.07c.3-.04.6-.11.88-.22l1,.7c.4.28.95.24,1.3-.11l.65-.64c.35-.35.4-.91.11-1.31l-.69-.96s.02-.05.03-.08c0-.02.01-.04.02-.05.02-.05.03-.09.04-.14.01-.04.02-.08.04-.12,0,0,0,0,0,0,.06-.22.1-.45.13-.67l1.08-.59c.43-.24.63-.74.48-1.21l-.29-.87c-.16-.48-.64-.77-1.13-.69l-1.2.2s-.07-.07-.1-.11c-.04-.04-.09-.09-.13-.13-.01-.01-.03-.02-.04-.04-.01,0-.02-.02-.03-.03Zm-.67,2.98c.03.23,0,.47-.07.7,0,0,0,.01,0,.02-.01.04-.03.08-.04.12,0,.01,0,.02-.01.03-.01.03-.03.06-.04.09,0,.01-.01.03-.02.04-.02.04-.04.08-.06.11-.09.14-.19.27-.31.4-.13.13-.28.24-.44.33-.03.01-.05.03-.08.04-.02,0-.03.02-.05.02-.02.01-.05.02-.07.03-.02.01-.05.02-.07.03-.02,0-.04.02-.07.02-.02,0-.04.01-.06.02-.02,0-.04.01-.06.02-.03,0-.06.02-.09.02-.02,0-.05.01-.07.01-.02,0-.04,0-.06.01-.02,0-.04,0-.06,0-.02,0-.04,0-.06,0-.04,0-.07,0-.11,0-.02,0-.03,0-.05,0-.03,0-.05,0-.08,0-.36,0-.71-.11-1.02-.3-.02-.02-.05-.03-.07-.05,0,0-.02-.01-.03-.02-.02-.02-.05-.03-.07-.05,0,0-.02-.01-.03-.02-.02-.02-.04-.04-.07-.06,0,0-.02-.01-.02-.02-.03-.03-.06-.05-.08-.08s-.05-.05-.08-.08c0,0,0,0,0-.01-.02-.03-.04-.05-.07-.08,0,0,0,0,0,0-.02-.03-.04-.06-.06-.09h0s-.04-.06-.06-.09c-.2-.32-.3-.69-.3-1.06,0,0,0-.02,0-.03,0-.03,0-.06,0-.09,0,0,0-.01,0-.02,0-.06,0-.11.02-.17,0,0,0,0,0-.01.01-.09.03-.18.06-.27,0,0,0-.01,0-.02,0-.03.02-.05.03-.08,0,0,0-.02.01-.03.02-.04.03-.08.05-.13,0-.02.02-.03.02-.05,0-.02.02-.04.03-.06.01-.03.03-.05.04-.08.09-.15.2-.3.33-.43s.28-.24.44-.33c.03-.01.05-.03.08-.04.02,0,.03-.02.05-.02.02-.01.05-.02.07-.03.02,0,.05-.02.07-.03.02,0,.05-.02.07-.03.02,0,.04-.01.06-.02.02,0,.04-.01.06-.02.02,0,.04-.01.05-.01.03,0,.07-.02.1-.02.02,0,.03,0,.05,0,.02,0,.05,0,.07-.01.02,0,.03,0,.05,0,.04,0,.08,0,.11,0,.01,0,.02,0,.04,0,.03,0,.06,0,.09,0,.36,0,.71.11,1.02.3.02.02.05.03.07.05.01,0,.02.01.03.02.02.02.04.03.07.05,0,0,.02.02.03.02.02.02.04.04.07.05,0,0,.02.01.02.02.03.03.06.05.08.08.05.05.1.1.14.16,0,0,0,0,0,0,.02.02.04.05.06.07,0,.01.01.02.02.03.01.02.02.03.04.05.16.25.26.52.3.8,0,.08-.01.16,0,.24Zm-9.36-3.29c-.51-.51-1.22-.71-1.91-.52l-4.88,1.28c-.69.18-1.22.7-1.41,1.39-.19.69,0,1.41.51,1.93l3.56,3.59c.51.51,1.23.71,1.92.52.35-.09.65-.27.89-.51s.42-.55.52-.89l1.31-4.87c.19-.69,0-1.41-.51-1.92Zm-2.74,6.18l-3.45-3.48,4.73-1.24-1.27,4.72Zm3.9-16.84l5.33,5.37c.4.4.39,1.04,0,1.44s-1.04.39-1.44,0l-5.33-5.37c-.79-.8-2.08-.8-2.87-.01l-12.69,12.59c-.8.79-.8,2.08-.01,2.87l9.37,9.45c.79.8,2.08.8,2.87.01l5.7-5.65c.4-.4,1.04-.39,1.44,0s.39,1.04,0,1.44l-5.7,5.65c-1.59,1.58-4.17,1.57-5.75-.02l-9.37-9.45c-1.58-1.59-1.57-4.17.02-5.75l12.69-12.59c1.59-1.58,4.17-1.57,5.75.02Z" style="fill: #1d6496; stroke-width: 0px;"/>
  </g>
</svg>

