<?xml version="1.0" encoding="utf-8"?>
<!-- Generator: Adobe Illustrator 27.7.0, SVG Export Plug-In . SVG Version: 6.00 Build 0)  -->
<svg version="1.1" id="Layer_1" xmlns="http://www.w3.org/2000/svg" xmlns:xlink="http://www.w3.org/1999/xlink" x="0px" y="0px"
	 viewBox="0 0 674 674" style="enable-background:new 0 0 674 674;" xml:space="preserve">
<style type="text/css">
	.st0{fill:#FFFFFF;}
	.st1{fill:#FBBB00;}
	.st2{fill:#518EF8;}
	.st3{fill:#28B446;}
	.st4{fill:#F14336;}
	.st5{fill:#FFFFFF;}
	.st6{fill:#BF3300;}
	.st7{fill:#ffffff;}
	.st8{fill:#FFE000;}
	      #video, #loudspeaker, #graphics{
    animation: rotebox 50s linear infinite;
    transform: rotate(0deg);
    transform-origin: center center;
}
@keyframes rotebox{
0%{
    transform: rotate(0deg);
}
100%{
    transform: rotate(360deg);
}
}
</style>
<g id="video">
   <path id="Rectangle_125" data-name="Rectangle 125" d="m472.2,35.5h0c14.4,0,26,11.6,26,26h0c0,14.4-11.6,26-26,26h0c-14.4,0-26-11.6-26-26h0c0-14.4,11.7-26,26-26Z" style="fill: #fff; stroke-width: 0px;"/>
    <g>
      <circle cx="462.45" cy="68.78" r="2.6" style="fill: #f18f0a; stroke-width: 0px;"/>
      <circle cx="468.62" cy="74.95" r="2.6" style="fill: #f18f0a; stroke-width: 0px;"/>
      <path d="m469.15,44.87l2.55,2.55-7.39,13.3-.7.23c-1.83.61-2.38,2.93-1.02,4.3l10.3,10.3c.34.34.89.34,1.22,0s.34-.89,0-1.22l-10.3-10.3c-.45-.45-.27-1.23.34-1.43l.51-.17,10.68,10.68c.27.27.69.33,1.03.14l11.02-6.12c.24-.13.4-.37.44-.64.04-.27-.05-.54-.25-.73l-15.5-15.5,1.43-2.58c.19-.34.13-.76-.14-1.03l-3.01-3.01c-.34-.34-.89-.34-1.22,0s-.34.89,0,1.22h0Z" style="fill: #f18f0a; stroke-width: 0px;"/>
    </g>
 
</g>
<g id="loudspeaker">
   <path id="Rectangle_124" data-name="Rectangle 124" d="m31,326h0c14.4,0,26,11.6,26,26h0c0,14.4-11.6,26-26,26h0c-14.4,0-26-11.6-26-26h0c0-14.4,11.6-26,26-26Z" style="fill: #fff; stroke-width: 0px;"/>
      <path d="m24.21,355.26h-1.68v10.05c0,.92.75,1.68,1.68,1.68h3.35v-12.08c-1.02.23-2.13.35-3.35.35Z" style="fill: #f18f0a; stroke-width: 0px;"/>
    <path d="m30.91,340.25c1.76,1.14,3.26,2.88,4.69,5.38.22.38.33.82.33,1.25s-.11.87-.33,1.25c-1.44,2.5-2.94,4.24-4.7,5.38v13.47h8.38c.92,0,1.68-.75,1.68-1.68v-23.45c0-.92-.75-1.68-1.68-1.68h-8.38v.07h0Zm5.03,19.19v3.35c0,.46-.38.84-.84.84s-.84-.38-.84-.84v-3.35c0-.46.38-.84.84-.84s.84.38.84.84Z" style="fill: #f18f0a; stroke-width: 0px;"/>
    <path d="m20.09,340.69l-2.51,5.86c-.09.21-.09.45,0,.66l2.51,5.86c.13.31.43.51.77.51h3.35c4.61,0,7.3-1.7,9.94-6.28.07-.13.11-.27.11-.42s-.04-.29-.11-.42c-2.63-4.58-5.33-6.28-9.94-6.28h-3.35c-.34,0-.64.2-.77.51Zm3.81,3.03l4.19,3.35c.2.16.31.4.31.65v.04c-.01.27-.15.51-.37.66l-2.51,1.68c-.39.26-.9.15-1.16-.23-.25-.38-.15-.9.23-1.16l1.56-1.04-3.29-2.63c-.36-.29-.42-.82-.13-1.18.29-.36.81-.42,1.18-.13Z" style="fill: #f18f0a; stroke-width: 0px;"/>
 
 
</g>
<g id="graphics">
   <path id="Rectangle_126" data-name="Rectangle 126" d="m546.9,534.1h0c14.4,0,26,11.6,26,26h0c0,14.4-11.6,26-26,26h0c-14.4,0-26-11.6-26-26h0c0-14.3,11.6-26,26-26Z" style="fill: #fff; stroke-width: 0px;"/>
    <path d="m542.54,574.66l2.7,2.7c.89.89,2.35.89,3.24,0l15.2-15.2c.89-.89.89-2.35,0-3.24l-2.7-2.7-18.44,18.44Zm8.14-3.82l-3.24,3.24c-.3.3-.78.3-1.08,0s-.3-.78,0-1.08l3.24-3.24c.3-.3.78-.3,1.08,0s.3.78,0,1.08Zm5.4-5.4c-.3.3-.78.3-1.08,0s-.3-.78,0-1.08.78-.3,1.08,0,.3.78,0,1.08Zm2.16-2.16c-.3.3-.78.3-1.08,0s-.3-.78,0-1.08.78-.3,1.08,0,.3.78,0,1.08Zm2.16-2.16c-.3.3-.78.3-1.08,0s-.3-.78,0-1.08.78-.3,1.08,0,.3.78,0,1.08Z" style="fill: #f18f0a; stroke-width: 0px;"/>
    <path d="m559.9,555.14l-11.35-11.35c-.89-.89-2.35-.89-3.24,0l-15.2,15.2c-.89.89-.89,2.35,0,3.24l11.35,11.35,18.44-18.44Zm-14-1.37c-.42.05-.8-.26-.84-.67-.05-.42.26-.8.67-.84l4.86-.54c.49-.05.9.36.84.84l-.54,4.86c-.05.42-.42.72-.84.67-.42-.05-.72-.42-.67-.84l.43-3.91-3.91.43Zm.29,10.33l-4.32-10.81c-.16-.39.03-.84.43-.99.39-.16.84.03.99.43l4.32,10.81c.16.39-.03.84-.43.99s-.84-.03-.99-.43h0Zm-8.15.17l.54-4.86c.05-.42.42-.72.84-.67.42.05.72.42.67.84l-.43,3.91,3.91-.43c.42-.05.8.26.84.67.05.42-.26.8-.67.84l-4.86.54c-.49.05-.9-.36-.84-.84h0Z" style="fill: #f18f0a; stroke-width: 0px;"/>
 
</g>
</svg>

