<?xml version="1.0" encoding="utf-8"?>
<!-- Generator: Adobe Illustrator 27.7.0, SVG Export Plug-In . SVG Version: 6.00 Build 0)  -->
<svg version="1.1" id="Layer_1" xmlns="http://www.w3.org/2000/svg" xmlns:xlink="http://www.w3.org/1999/xlink" x="0px" y="0px"
	 viewBox="0 0 674 674" style="enable-background:new 0 0 674 674;" xml:space="preserve">
<style type="text/css">
	.st0{fill:#FFFFFF;}
	.st1{fill:#FBBB00;}
	.st2{fill:#518EF8;}
	.st3{fill:#28B446;}
	.st4{fill:#F14336;}
	.st5{fill:#FFFFFF;}
	.st6{fill:#BF3300;}
	.st7{fill:#ffffff;}
	.st8{fill:#FFE000;}
	      #video, #loudspeaker, #graphics{
    animation: rotebox 50s linear infinite;
    transform: rotate(0deg);
    transform-origin: center center;
}
@keyframes rotebox{
0%{
    transform: rotate(0deg);
}
100%{
    transform: rotate(360deg);
}
}
</style>
<g id="video">
   <path id="Rectangle_125" data-name="Rectangle 125" d="m472.2,35.5h0c14.4,0,26,11.6,26,26h0c0,14.4-11.6,26-26,26h0c-14.4,0-26-11.6-26-26h0c0-14.4,11.7-26,26-26Z" style="fill: #fff; stroke-width: 0px;"/>
     <g>
      <path d="m472.67,47.08c-.4-.68-1.05-1.14-1.79-1.32l5.81,17.49,5.67-1.88-9.69-14.28Z" style="fill: #1e6497; stroke-width: 0px;"/>
      <path d="m468.97,45.98c-.54.27-.99.71-1.28,1.27l-10.4,20.75c-.28.56-.36,1.19-.25,1.78l17.86-5.94-5.94-17.86Z" style="fill: #1e6497; stroke-width: 0px;"/>
      <path d="m485.91,66.59l-2.44-3.6-6.17,2.05,2.05,6.17,4.35-.2c1.04-.05,1.94-.63,2.41-1.56s.4-2-.19-2.87Z" style="fill: #1e6497; stroke-width: 0px;"/>
      <path d="m475.5,65.64l-17.49,5.81c.17.14.35.26.55.36.48.24,1.03.34,1.58.28l17.24-.79-1.88-5.67Z" style="fill: #1e6497; stroke-width: 0px;"/>
    </g>
</g>
<g id="loudspeaker">
   <path id="Rectangle_124" data-name="Rectangle 124" d="m31,326h0c14.4,0,26,11.6,26,26h0c0,14.4-11.6,26-26,26h0c-14.4,0-26-11.6-26-26h0c0-14.4,11.6-26,26-26Z" style="fill: #fff; stroke-width: 0px;"/>
     <path d="m18.6,352.51l-1.44-.83c-.9-.51-1.2-1.66-.69-2.56s1.66-1.2,2.56-.69l13.9,8.03v-5.81c0-1.88,2.21-2.94,3.74-2.12v17.02c0,1.04-.83,1.87-1.87,1.87s-1.87-.83-1.87-1.87v-4.77l-10.59-6.11-3.31,1.91c-.9.51-2.04.21-2.56-.69-.51-.9-.21-2.04.69-2.56l1.45-.82h0Zm20,7.22l3.12,1.8c.9.51,1.2,1.66.69,2.56s-1.66,1.2-2.56.69l-2.31-1.34c-.47-1.51-.11-2.74,1.06-3.71h0Zm-5.66-15.5v-4.87c0-1.04.83-1.87,1.87-1.87s1.87.83,1.87,1.87v2.71l3.17-1.83c.9-.51,2.04-.21,2.56.69.51.9.21,2.04-.69,2.56-5.33,3.08-9.32,5.39-11.98,6.92-2.71,1.57-5.42.45-6.34-.66,2.11-1.23,5.29-3.07,9.54-5.52h0Z" style="fill: #1e6497; stroke-width: 0px;"/>
 
</g>
<g id="graphics">
   <path id="Rectangle_126" data-name="Rectangle 126" d="m546.9,534.1h0c14.4,0,26,11.6,26,26h0c0,14.4-11.6,26-26,26h0c-14.4,0-26-11.6-26-26h0c0-14.3,11.6-26,26-26Z" style="fill: #fff; stroke-width: 0px;"/>
     <g>
      <path d="m547.36,575.15c.73.96,2.1,1.15,3.06.42l9.48-7.18c.96-.73,1.15-2.1.42-3.06l-.49-.65-12.96,9.82.49.65Z" style="fill: #1e6497; stroke-width: 0px;"/>
      <path d="m558.86,563.41l-12.96,9.82-.97-1.28,12.96-9.82.97,1.28Z" style="fill: #1e6497; stroke-width: 0px;"/>
      <path d="m546.42,546.99c-.73-.96-2.1-1.15-3.06-.42l-9.48,7.18c-.96.73-1.15,2.1-.42,3.06l1.78,2.35,12.96-9.82-1.78-2.35Zm-4.45,5.33l-2.17,1.65c-.35.27-.86.2-1.12-.15s-.2-.86.15-1.12l2.17-1.65c.35-.27.86-.2,1.12.15s.2.86-.15,1.12Z" style="fill: #1e6497; stroke-width: 0px;"/>
      <path d="m542.98,571.41l14.92-11.3c.35-.27.42-.77.15-1.12l-6.78-8.95c-.27-.35-.77-.42-1.12-.15l-14.92,11.3c-.35.27-.42.77-.15,1.12l6.78,8.95c.27.35.77.42,1.12.15Zm5.23-13.41c-.44-.06-.75-.46-.68-.9.03-.22.15-.41.31-.53s.37-.19.59-.16l2.36.33c.44.06.75.47.68.9l-.33,2.36c-.06.44-.47.75-.9.69-.44-.06-.75-.46-.68-.9l.22-1.57-1.57-.22Zm-1.21,5.75l-2.35-5.59c-.17-.4.03-.89.43-1.05.41-.17.88.02,1.05.43l2.35,5.59c.17.4-.02.88-.43,1.05-.41.17-.88-.02-1.05-.43h0Zm-5.35-.1l.33-2.36c.03-.22.15-.41.31-.53s.37-.19.59-.16c.44.06.75.47.69.9l-.22,1.57,1.57.22c.44.06.75.47.69.9-.06.44-.47.75-.9.69l-2.36-.33c-.44-.06-.75-.47-.69-.9h0Z" style="fill: #1e6497; stroke-width: 0px;"/>
    </g></g>
</svg>

