<?xml version="1.0" encoding="utf-8"?>
<!-- Generator: Adobe Illustrator 27.7.0, SVG Export Plug-In . SVG Version: 6.00 Build 0)  -->
<svg version="1.1" id="Layer_1" xmlns="http://www.w3.org/2000/svg" xmlns:xlink="http://www.w3.org/1999/xlink" x="0px" y="0px"
	 viewBox="0 0 674 674" style="enable-background:new 0 0 674 674;" xml:space="preserve">
<style type="text/css">
	.st0{fill:#FFFFFF;}
	.st1{fill:#FBBB00;}
	.st2{fill:#518EF8;}
	.st3{fill:#28B446;}
	.st4{fill:#F14336;}
	.st5{fill:#FFFFFF;}
	.st6{fill:#BF3300;}
	.st7{fill:#ffffff;}
	.st8{fill:#FFE000;}
	      #video, #loudspeaker, #graphics{
    animation: rotebox 50s linear infinite;
    transform: rotate(0deg);
    transform-origin: center center;
}
@keyframes rotebox{
0%{
    transform: rotate(0deg);
}
100%{
    transform: rotate(360deg);
}
}
</style>
<g id="video">
   <path id="Rectangle_125" data-name="Rectangle 125" d="m472.2,35.5h0c14.4,0,26,11.6,26,26h0c0,14.4-11.6,26-26,26h0c-14.4,0-26-11.6-26-26h0c0-14.4,11.7-26,26-26Z" style="fill: #fff; stroke-width: 0px;"/>
        <g>
      <path d="m457.31,68.71l9.11-24.02,22.56,10.93-13.2,22.02-10.49-1.92" style="fill: #1b5c92; stroke-width: 0px;"/>
      <polygon points="474.05 57.68 480.85 60.97 482.48 58.28 475.42 54.86 475.41 54.85 468.33 51.42 464.97 60.33 471.27 63.38 471.27 63.39 474.75 65.07 472.64 68.58 469.09 67.9 466.35 65.53 467.24 63.18 464.41 61.8 462.66 66.43 467.67 70.85 467.68 70.84 474.22 72.03 479.2 63.74 472.65 60.57 472.64 60.56 468.92 58.76 470.06 55.74 474.04 57.67 474.05 57.68" style="fill: #fff; stroke-width: 0px;"/>
    </g>
 
</g>
<g id="loudspeaker">
   <path id="Rectangle_124" data-name="Rectangle 124" d="m31,326h0c14.4,0,26,11.6,26,26h0c0,14.4-11.6,26-26,26h0c-14.4,0-26-11.6-26-26h0c0-14.4,11.6-26,26-26Z" style="fill: #fff; stroke-width: 0px;"/>
   <g>
      <polygon points="15.78 352.93 28.96 366.12 32.92 362.16 15.78 345.02 15.78 352.93" style="fill: #1b5c92; stroke-width: 0px;"/>
      <polygon points="27.64 352.93 30.94 356.23 34.9 352.27 27.64 345.02 27.64 352.93" style="fill: #2170a5; stroke-width: 0px;"/>
      <rect x="32.1" y="353.43" width="5.59" height="5.59" transform="translate(-241.68 129.02) rotate(-45)" style="fill: #2170a5; stroke-width: 0px;"/>
      <polygon points="36.87 350.29 34.9 352.27 38.85 356.23 42.15 352.93 42.15 345.02 36.87 350.29" style="fill: #1b5c92; stroke-width: 0px;"/>
    </g>
 
</g>
<g id="graphics">
   <path id="Rectangle_126" data-name="Rectangle 126" d="m546.9,534.1h0c14.4,0,26,11.6,26,26h0c0,14.4-11.6,26-26,26h0c-14.4,0-26-11.6-26-26h0c0-14.3,11.6-26,26-26Z" style="fill: #fff; stroke-width: 0px;"/>
    <circle cx="547.5" cy="560.5" r="3.49" style="fill: #1b5c92; stroke-width: 0px;"/>
    <ellipse cx="547.5" cy="560.5" rx="18.73" ry="7.15" style="fill: none; stroke: #1b5c92; stroke-width: 1.7px;"/>
    <ellipse cx="547.5" cy="560.5" rx="7.15" ry="18.73" transform="translate(-206.9 348.84) rotate(-30)" style="fill: none; stroke: #1b5c92; stroke-miterlimit: 4; stroke-width: 1.7px;"/>
    <ellipse cx="547.5" cy="560.5" rx="18.73" ry="7.15" transform="translate(-211.66 754.4) rotate(-60)" style="fill: none; stroke: #1b5c92; stroke-miterlimit: 4; stroke-width: 1.7px;"/>
  
  
</g>
</svg>
