<?xml version="1.0" encoding="utf-8"?>
<!-- Generator: Adobe Illustrator 27.7.0, SVG Export Plug-In . SVG Version: 6.00 Build 0)  -->
<svg version="1.1" id="Layer_1" xmlns="http://www.w3.org/2000/svg" xmlns:xlink="http://www.w3.org/1999/xlink" x="0px" y="0px"
	 viewBox="0 0 674 674" style="enable-background:new 0 0 674 674;" xml:space="preserve">
       <defs>
    <radialGradient id="radial-gradient" cx="544.96" cy="544.85" fx="544.96" fy="544.85" r="28.41" gradientUnits="userSpaceOnUse">
      <stop offset="0" stop-color="#ffda7e"/>
      <stop offset=".46" stop-color="#ef7936"/>
      <stop offset=".74" stop-color="#d32b90"/>
      <stop offset="1" stop-color="#1e3bbd"/>
    </radialGradient>
  </defs>
<style type="text/css">
	.st0{fill:#FFFFFF;}
	.st1{fill:#FBBB00;}
	.st2{fill:#518EF8;}
	.st3{fill:#28B446;}
	.st4{fill:#F14336;}
	.st5{fill:#FFFFFF;}
	.st6{fill:#BF3300;}
	.st7{fill:#ffffff;}
	.st8{fill:#FFE000;}
	      #video, #loudspeaker, #graphics{
    animation: rotebox 50s linear infinite;
    transform: rotate(0deg);
    transform-origin: center center;
}
@keyframes rotebox{
0%{
    transform: rotate(0deg);
}
100%{
    transform: rotate(360deg);
}
}
</style>
<g id="video">
   <path id="Rectangle_125" data-name="Rectangle 125" d="m472.2,35.5h0c14.4,0,26,11.6,26,26h0c0,14.4-11.6,26-26,26h0c-14.4,0-26-11.6-26-26h0c0-14.4,11.7-26,26-26Z" style="fill: #fff; stroke-width: 0px;"/>
      <g id="_18._google_ads_logo" data-name=" 18. google ads logo">
      <path d="m459.87,56.43c-2.5.73-3.93,3.35-3.19,5.85.73,2.5,3.35,3.93,5.85,3.19.79-.23,1.51-.67,2.08-1.27,1.8-1.88,1.73-4.86-.15-6.66-1.22-1.16-2.96-1.59-4.58-1.11Z" style="fill: #f47f00; stroke-width: 0px;"/>
      <path d="m487.66,62.08c-.24.79-.56,1.67-.98,2.65-.47.99-.89,1.86-1.26,2.61l-.61,1.11-.64,1.15c-.44.72-.94,1.53-1.51,2.41-.62.9-1.2,1.66-1.75,2.29-1,.93-2.16,1.26-3.48.96-.82-.25-2.03-.76-3.62-1.52-1.57-.79-3.03-1.53-4.37-2.23l-2.12-1.17-2.12-1.17c-1.3-.76-2.71-1.6-4.21-2.51-1.49-.94-2.56-1.69-3.21-2.25-.95-.97-1.3-2.12-1.04-3.46.24-.79.57-1.69,1.01-2.69.45-.96.86-1.81,1.24-2.57l.64-1.15.61-1.11c.44-.72.95-1.54,1.54-2.46.6-.87,1.18-1.62,1.72-2.24,1-.93,2.17-1.27,3.51-1.01.82.25,2.03.76,3.62,1.52,1.57.79,3.03,1.53,4.37,2.23l2.12,1.17,2.12,1.17c1.3.76,2.71,1.6,4.21,2.51,1.49.94,2.56,1.69,3.21,2.25.93,1,1.27,2.17,1.01,3.51Zm-20.12,1.76l8.68-.14-4.53-7.38-4.15,7.52Z" style="fill: red; stroke-width: 0px;"/>
    </g>
 
</g>
<g id="loudspeaker">
   <path id="Rectangle_124" data-name="Rectangle 124" d="m31,326h0c14.4,0,26,11.6,26,26h0c0,14.4-11.6,26-26,26h0c-14.4,0-26-11.6-26-26h0c0-14.4,11.6-26,26-26Z" style="fill: #fff; stroke-width: 0px;"/>
     <path d="m31.09,337c3.86.08,7.14,1.3,9.86,3.65s4.4,5.38,5.05,9.07h-10.53v-3.53l-4.38-.67v4.2h-2.86c-.61.04-1.14-.12-1.58-.49-.49-.37-.73-1.01-.73-1.95v-1.89h-3.71s-.1.39-.18,1.03c-.08.69-.12,1.46-.12,2.31,0,1.75.51,3.12,1.52,4.14s2.46,1.54,4.32,1.58h3.35v3.84h4.38v-3.84h10.53c-.65,3.69-2.33,6.72-5.05,9.07s-6.01,3.57-9.86,3.65c-2.8-.04-5.34-.73-7.61-2.07s-4.08-3.15-5.42-5.42-2.03-4.81-2.07-7.61c.04-2.8.73-5.34,2.07-7.61s3.15-4.08,5.42-5.42,4.81-2.03,7.61-2.07Z" style="fill: #4267b2; stroke-width: 0px;"/>
 
</g>
<g id="graphics">
   <path id="Rectangle_126" data-name="Rectangle 126" d="m546.9,534.1h0c14.4,0,26,11.6,26,26h0c0,14.4-11.6,26-26,26h0c-14.4,0-26-11.6-26-26h0c0-14.3,11.6-26,26-26Z" style="fill: #fff; stroke-width: 0px;"/>
 
      <path d="m541.31,573.68c-.6-.54-1.43-1.35-2.49-2.41s-2.06-2.06-3.09-3.09-1.82-1.85-2.36-2.45c-1.58-1.58-2.39-3.45-2.45-5.63.06-2.18.87-4.02,2.45-5.54.54-.6,1.33-1.45,2.36-2.53l3.09-3.09c1.09-1.03,1.92-1.8,2.49-2.32,1.55-1.6,3.41-2.43,5.59-2.49,2.18.06,4.04.89,5.59,2.49.63.52,1.46,1.29,2.49,2.32l3.09,3.09c1.06,1.06,1.85,1.9,2.36,2.53,1.58,1.52,2.39,3.37,2.45,5.54-.09,2.21-.9,4.08-2.45,5.63-.52.57-1.3,1.39-2.36,2.45s-2.06,2.06-3.09,3.09-1.89,1.86-2.49,2.41c-1.55,1.55-3.41,2.35-5.59,2.41-2.18-.06-4.05-.87-5.63-2.45l.04.04Zm-7.6-11.73c.37.77,1.03,1.66,1.98,2.66.92,1.03,1.79,1.93,2.62,2.71l.69.69.69.69c.77.83,1.68,1.7,2.71,2.62,1,.95,1.89,1.6,2.66,1.98,1.23.49,2.46.49,3.7,0,.77-.37,1.66-1.03,2.66-1.98s1.9-1.82,2.71-2.62l.69-.69.69-.69c.83-.77,1.7-1.68,2.62-2.71.92-.97,1.58-1.86,1.98-2.66.49-1.23.49-2.46,0-3.7-.37-.77-1.03-1.66-1.98-2.66s-1.82-1.9-2.62-2.71l-.69-.69-.69-.69c-.8-.8-1.7-1.68-2.71-2.62-.97-.92-1.86-1.58-2.66-1.98-1.23-.49-2.46-.49-3.7,0-.8.4-1.69,1.06-2.66,1.98-1,.95-1.9,1.82-2.71,2.62l-.69.69-.69.69c-.8.8-1.68,1.7-2.62,2.71s-1.6,1.89-1.98,2.66c-.49,1.23-.49,2.46,0,3.7Zm18.13,3.09c-1.43,1.37-3.08,2.05-4.94,2.02-1.86.03-3.51-.64-4.94-2.02-1.37-1.43-2.05-3.08-2.02-4.94-.03-1.86.64-3.51,2.02-4.94,1.43-1.37,3.08-2.05,4.94-2.02,1.86-.03,3.51.64,4.94,2.02,1.37,1.43,2.05,3.08,2.02,4.94.03,1.86-.64,3.51-2.02,4.94Zm-8.16-8.16c-.89.95-1.33,2.02-1.33,3.22s.44,2.28,1.33,3.22c.95.89,2.02,1.33,3.22,1.33s2.28-.44,3.22-1.33c.89-.95,1.33-2.02,1.33-3.22s-.44-2.28-1.33-3.22c-.95-.89-2.02-1.33-3.22-1.33s-2.28.44-3.22,1.33Zm2.06,14.69c.34.29.73.44,1.16.47.43-.03.8-.2,1.12-.52.34-.34.52-.72.52-1.12,0-.46-.16-.84-.47-1.16-.77-.66-1.55-.66-2.32,0-.63.74-.63,1.52,0,2.32Z" style="fill: url(#radial-gradient); stroke-width: 0px;"/>
</g>
</svg>

