<?xml version="1.0" encoding="utf-8"?>
<!-- Generator: Adobe Illustrator 27.7.0, SVG Export Plug-In . SVG Version: 6.00 Build 0)  -->
<svg version="1.1" id="Layer_1" xmlns="http://www.w3.org/2000/svg" xmlns:xlink="http://www.w3.org/1999/xlink" x="0px" y="0px"
	 viewBox="0 0 674 674" style="enable-background:new 0 0 674 674;" xml:space="preserve">
<style type="text/css">
	.st0{fill:#FFFFFF;}
	.st1{fill:#FBBB00;}
	.st2{fill:#518EF8;}
	.st3{fill:#28B446;}
	.st4{fill:#F14336;}
	.st5{fill:#FFFFFF;}
	.st6{fill:#BF3300;}
	.st7{fill:#ffffff;}
	.st8{fill:#FFE000;}
	      #video, #loudspeaker, #graphics{
    animation: rotebox 50s linear infinite;
    transform: rotate(0deg);
    transform-origin: center center;
}
@keyframes rotebox{
0%{
    transform: rotate(0deg);
}
100%{
    transform: rotate(360deg);
}
}
</style>
<g id="video">
    <path id="Rectangle_125" data-name="Rectangle 125" d="m472.2,35.5h0c14.4,0,26,11.6,26,26h0c0,14.4-11.6,26-26,26h0c-14.4,0-26-11.6-26-26h0c0-14.4,11.7-26,26-26Z" style="fill: #fff; stroke-width: 0px;"/>
    <path d="m478.58,45.43c-5.65-2.24-12.17.44-14.47,6.25-.88,2.21-1,4.44-.45,6.8l2.9,14.93c.14.73.99,1.06,1.59.63l12.4-8.9c1.95-1.27,3.43-3.08,4.28-5.23,2.27-5.71-.53-12.21-6.25-14.47Zm-5.98,15.07c-2.6-1.03-3.87-3.98-2.84-6.58s3.98-3.87,6.58-2.84,3.87,3.98,2.84,6.58-3.98,3.87-6.58,2.84Z" style="fill: #bf3300; stroke-width: 0px;"/>
    <path d="m477.35,69.99l-7.69,5.53c-1.99,1.43-4.78.31-5.24-2.08l-1.81-9.3c-4.56-.69-7.84.05-8.68,2.17-1.46,3.67,5.04,8.54,11.88,11.26s14.91,3.63,16.37-.04c.84-2.12-1.04-4.91-4.84-7.54Z" style="fill: #bf3300; stroke-width: 0px;"/>
  <g>
	</g>
	<g>
	</g>
	<g>
	</g>
	<g>
	</g>
	<g>
	</g>
	<g>
	</g>
	<g>
	</g>
	<g>
	</g>
	<g>
	</g>
	<g>
	</g>
	<g>
	</g>
	<g>
	</g>
	<g>
	</g>
	<g>
	</g>
	<g>
	</g>
</g>
<g id="loudspeaker">
	<path id="Rectangle_124" class="st5" d="M31,326L31,326c14.4,0,26,11.6,26,26l0,0c0,14.4-11.6,26-26,26l0,0c-14.4,0-26-11.6-26-26
		l0,0C5,337.6,16.6,326,31,326z"/>
	<g>
		<g>
			<path class="st6" d="M48.7,360.2l-6.8-4.4c-0.6-0.4-1.4-0.2-1.7,0.4l-1.6-1.1c1.8-3.9,0.5-8.6-3.2-11c-4.1-2.6-9.5-1.5-12.1,2.6
				c-2.6,4.1-1.5,9.5,2.6,12.1c3.7,2.4,8.5,1.7,11.4-1.6l1.6,1.1c-0.4,0.6-0.2,1.4,0.4,1.7l6.8,4.4c0.6,0.4,1.4,0.2,1.7-0.4l1.4-2.1
				C49.5,361.4,49.3,360.6,48.7,360.2z M36.3,353.9l-1.1,1.6c-0.9,1-2,1.7-3.3,1.9c-1.6,0.4-3.3,0-4.7-0.9c-1.4-0.9-2.4-2.3-2.7-4
				c-0.3-1.6,0-3.3,0.9-4.7s2.3-2.4,4-2.7c1.6-0.3,3.3,0,4.7,0.9c1.4,0.9,2.4,2.3,2.7,4C37,351.4,36.8,352.7,36.3,353.9z"/>
		</g>
	</g>
	<g>
	</g>
	<g>
	</g>
	<g>
	</g>
	<g>
	</g>
	<g>
	</g>
	<g>
	</g>
	<g>
	</g>
	<g>
	</g>
	<g>
	</g>
	<g>
	</g>
	<g>
	</g>
	<g>
	</g>
	<g>
	</g>
	<g>
	</g>
	<g>
	</g>
</g>
<g id="graphics">
	<path id="Rectangle_126" class="st7" d="M546.9,534.1L546.9,534.1c14.4,0,26,11.6,26,26l0,0c0,14.4-11.6,26-26,26l0,0
		c-14.4,0-26-11.6-26-26l0,0C520.9,545.8,532.5,534.1,546.9,534.1z"/>
	<g>
		<path class="st6" d="M550,542h-1v15.6h15.6v-1C564.6,548.5,558,542,550,542z"/>
		<g>
			<path class="st6" d="M559.6,560.5c0,7.5-6.1,13.6-13.5,13.6c-2.9,0-5.7-1-8.1-2.8l10.8-10.8H559.6 M560.6,559.5h-12.2l-11.9,11.9
				c2.6,2.2,5.9,3.7,9.6,3.7c8,0,14.5-6.6,14.5-14.6V559.5L560.6,559.5z"/>
		</g>
		<path class="st8" d="M547.1,545.9h-1c-3.2,0-6.1,1-8.5,2.8l9.5,9.5V545.9z"/>
		<path class="st6" d="M536.1,549.9c-2.8,2.7-4.6,6.4-4.6,10.6c0,3.7,1.4,7,3.7,9.6l10.5-10.5L536.1,549.9z"/>
	</g>
</g>
</svg>

