<?xml version="1.0" encoding="utf-8"?>
<!-- Generator: Adobe Illustrator 27.7.0, SVG Export Plug-In . SVG Version: 6.00 Build 0)  -->
<svg version="1.1" id="Layer_1" xmlns="http://www.w3.org/2000/svg" xmlns:xlink="http://www.w3.org/1999/xlink" x="0px" y="0px"
	 viewBox="0 0 674 674" style="enable-background:new 0 0 674 674;" xml:space="preserve">
<style type="text/css">
	.st0{fill:#FFFFFF;}
	.st1{fill:#FBBB00;}
	.st2{fill:#518EF8;}
	.st3{fill:#28B446;}
	.st4{fill:#F14336;}
	.st5{fill:#FFFFFF;}
	.st6{fill:#BF3300;}
	.st7{fill:#ffffff;}
	.st8{fill:#FFE000;}
	      #video, #loudspeaker, #graphics{
    animation: rotebox 50s linear infinite;
    transform: rotate(0deg);
    transform-origin: center center;
}
@keyframes rotebox{
0%{
    transform: rotate(0deg);
}
100%{
    transform: rotate(360deg);
}
}
</style>
<g id="video">
   <path id="Rectangle_125" data-name="Rectangle 125" d="m472.2,35.5h0c14.4,0,26,11.6,26,26h0c0,14.4-11.6,26-26,26h0c-14.4,0-26-11.6-26-26h0c0-14.4,11.7-26,26-26Z" style="fill: #fff; stroke-width: 0px;"/>
   <g>
      <ellipse cx="476.64" cy="64.29" rx="10.1" ry="10.16" transform="translate(180.32 443.11) rotate(-59.65)" style="fill: #4f3f59; stroke-width: 0px;"/>
      <path d="m461.23,66.91c-1.79-3.51-1.82-7.82.31-11.47s5.91-5.73,9.85-5.88c-4.67-2.21-10.36-.52-13.02,4.02-2.66,4.54-1.35,10.33,2.86,13.32Z" style="fill: #4f3f59; opacity: .25; stroke-width: 0px;"/>
      <path d="m463.12,56.37c-2.66,4.54-1.35,10.33,2.86,13.32-1.79-3.51-1.82-7.82.31-11.47s5.91-5.73,9.85-5.88c-4.67-2.21-10.36-.52-13.02,4.02Z" style="fill: #4f3f59; opacity: .61; stroke-width: 0px;"/>
    </g>
</g>
<g id="loudspeaker">
   <path id="Rectangle_124" data-name="Rectangle 124" d="m31,326h0c14.4,0,26,11.6,26,26h0c0,14.4-11.6,26-26,26h0c-14.4,0-26-11.6-26-26h0c0-14.4,11.6-26,26-26Z" style="fill: #fff; stroke-width: 0px;"/>
   <path d="m17.69,351.49c0-7.35,5.97-13.31,13.31-13.31s13.31,5.97,13.31,13.31c0,.92.75,1.66,1.66,1.66s1.66-.75,1.66-1.66c0-9.18-7.46-16.64-16.64-16.64s-16.64,7.46-16.64,16.64c0,.92.75,1.66,1.66,1.66s1.66-.75,1.66-1.66Zm25.33,5.72c-.39.83-.04,1.82.79,2.22s1.82.04,2.22-.79c.4-.83.04-1.82-.78-2.22s-1.82-.04-2.22.79h0Zm-3.63,4.61c-.71.58-.82,1.63-.24,2.34s1.63.82,2.34.24c.71-.58.82-1.63.24-2.34-.58-.71-1.63-.82-2.34-.24Zm-6.9-17.73c-.28-.56-.86-.92-1.49-.92s-1.21.36-1.49.92l-4.99,9.98c-.26.52-.23,1.13.07,1.62.3.49.84.79,1.42.79h9.98c.58,0,1.11-.3,1.42-.79.3-.49.33-1.1.07-1.62l-4.99-9.98Zm1.65,20.34c-.89.22-1.44,1.11-1.23,2.01.21.89,1.11,1.44,2.01,1.23.89-.22,1.44-1.11,1.23-2.01-.22-.89-1.11-1.44-2.01-1.23Zm-5.87.09c-.9-.19-1.78.39-1.97,1.29s.39,1.78,1.29,1.97c.9.19,1.78-.39,1.97-1.29s-.39-1.78-1.29-1.97Zm-5.33-2.44c-.73-.56-1.78-.42-2.33.31-.56.73-.42,1.77.31,2.33.73.56,1.77.42,2.33-.31.56-.73.42-1.78-.31-2.33h0Zm-3.77-4.5c-.42-.82-1.42-1.14-2.24-.72-.82.42-1.14,1.43-.72,2.24.42.82,1.43,1.14,2.24.72.82-.42,1.14-1.43.72-2.24Z" style="fill: #4f3f59; fill-rule: evenodd; stroke-width: 0px;"/>
 
</g>
<g id="graphics">
   <path id="Rectangle_126" data-name="Rectangle 126" d="m546.9,534.1h0c14.4,0,26,11.6,26,26h0c0,14.4-11.6,26-26,26h0c-14.4,0-26-11.6-26-26h0c0-14.3,11.6-26,26-26Z" style="fill: #fff; stroke-width: 0px;"/>
    <path d="m559.34,557.22l.21-1.22c.09-.51-.23-1.01-.73-1.15l-1.01-.28c-.48-.14-.99.1-1.2.56l-.51,1.13c-.13.02-.26.04-.38.07,0,0,0,0,0,0-.05.01-.1.03-.16.04-.02,0-.03,0-.05.01-.05.01-.09.03-.14.04-.02,0-.04.01-.07.02-.02,0-.04.01-.06.02l-1-.7c-.4-.28-.95-.24-1.3.11l-.69.68c-.36.36-.4.92-.1,1.33l.7.94c-.12.31-.2.63-.24.95l-1.1.57c-.45.23-.66.75-.49,1.23l.32.94c.16.47.65.76,1.14.67l1.14-.2c.05.05.09.1.14.15.04.04.09.09.13.13.02.01.03.03.05.04.02.01.03.03.05.04l-.14,1.23c-.06.5.26.96.74,1.09l.9.25c.48.13.98-.1,1.19-.55l.5-1.07c.3-.04.6-.11.88-.22l1,.7c.4.28.95.24,1.3-.11l.65-.64c.35-.35.4-.91.11-1.31l-.69-.96s.02-.05.03-.08c0-.02.01-.04.02-.05.02-.05.03-.09.04-.14.01-.04.02-.08.04-.12,0,0,0,0,0,0,.06-.22.1-.45.13-.67l1.08-.59c.43-.24.63-.74.48-1.21l-.29-.87c-.16-.48-.64-.77-1.13-.69l-1.2.2s-.07-.07-.1-.11c-.04-.04-.09-.09-.13-.13-.01-.01-.03-.02-.04-.04-.01,0-.02-.02-.03-.03Zm-.67,2.98c.03.23,0,.47-.07.7,0,0,0,.01,0,.02-.01.04-.03.08-.04.12,0,.01,0,.02-.01.03-.01.03-.03.06-.04.09,0,.01-.01.03-.02.04-.02.04-.04.08-.06.11-.09.14-.19.27-.31.4-.13.13-.28.24-.44.33-.03.01-.05.03-.08.04-.02,0-.03.02-.05.02-.02.01-.05.02-.07.03-.02.01-.05.02-.07.03-.02,0-.04.02-.07.02-.02,0-.04.01-.06.02-.02,0-.04.01-.06.02-.03,0-.06.02-.09.02-.02,0-.05.01-.07.01-.02,0-.04,0-.06.01-.02,0-.04,0-.06,0-.02,0-.04,0-.06,0-.04,0-.07,0-.11,0-.02,0-.03,0-.05,0-.03,0-.05,0-.08,0-.36,0-.71-.11-1.02-.3-.02-.02-.05-.03-.07-.05,0,0-.02-.01-.03-.02-.02-.02-.05-.03-.07-.05,0,0-.02-.01-.03-.02-.02-.02-.04-.04-.07-.06,0,0-.02-.01-.02-.02-.03-.03-.06-.05-.08-.08s-.05-.05-.08-.08c0,0,0,0,0-.01-.02-.03-.04-.05-.07-.08,0,0,0,0,0,0-.02-.03-.04-.06-.06-.09h0s-.04-.06-.06-.09c-.2-.32-.3-.69-.3-1.06,0,0,0-.02,0-.03,0-.03,0-.06,0-.09,0,0,0-.01,0-.02,0-.06,0-.11.02-.17,0,0,0,0,0-.01.01-.09.03-.18.06-.27,0,0,0-.01,0-.02,0-.03.02-.05.03-.08,0,0,0-.02.01-.03.02-.04.03-.08.05-.13,0-.02.02-.03.02-.05,0-.02.02-.04.03-.06.01-.03.03-.05.04-.08.09-.15.2-.3.33-.43s.28-.24.44-.33c.03-.01.05-.03.08-.04.02,0,.03-.02.05-.02.02-.01.05-.02.07-.03.02,0,.05-.02.07-.03.02,0,.05-.02.07-.03.02,0,.04-.01.06-.02.02,0,.04-.01.06-.02.02,0,.04-.01.05-.01.03,0,.07-.02.1-.02.02,0,.03,0,.05,0,.02,0,.05,0,.07-.01.02,0,.03,0,.05,0,.04,0,.08,0,.11,0,.01,0,.02,0,.04,0,.03,0,.06,0,.09,0,.36,0,.71.11,1.02.3.02.02.05.03.07.05.01,0,.02.01.03.02.02.02.04.03.07.05,0,0,.02.02.03.02.02.02.04.04.07.05,0,0,.02.01.02.02.03.03.06.05.08.08.05.05.1.1.14.16,0,0,0,0,0,0,.02.02.04.05.06.07,0,.01.01.02.02.03.01.02.02.03.04.05.16.25.26.52.3.8,0,.08-.01.16,0,.24Zm-9.36-3.29c-.51-.51-1.22-.71-1.91-.52l-4.88,1.28c-.69.18-1.22.7-1.41,1.39-.19.69,0,1.41.51,1.93l3.56,3.59c.51.51,1.23.71,1.92.52.35-.09.65-.27.89-.51s.42-.55.52-.89l1.31-4.87c.19-.69,0-1.41-.51-1.92Zm-2.74,6.18l-3.45-3.48,4.73-1.24-1.27,4.72Zm3.9-16.84l5.33,5.37c.4.4.39,1.04,0,1.44s-1.04.39-1.44,0l-5.33-5.37c-.79-.8-2.08-.8-2.87-.01l-12.69,12.59c-.8.79-.8,2.08-.01,2.87l9.37,9.45c.79.8,2.08.8,2.87.01l5.7-5.65c.4-.4,1.04-.39,1.44,0s.39,1.04,0,1.44l-5.7,5.65c-1.59,1.58-4.17,1.57-5.75-.02l-9.37-9.45c-1.58-1.59-1.57-4.17.02-5.75l12.69-12.59c1.59-1.58,4.17-1.57,5.75.02Z" style="fill: #4f3f59; stroke-width: 0px;"/>
   </g>
</svg>

