<?xml version="1.0" encoding="utf-8"?>
<!-- Generator: Adobe Illustrator 27.7.0, SVG Export Plug-In . SVG Version: 6.00 Build 0)  -->
<svg version="1.1" id="Layer_1" xmlns="http://www.w3.org/2000/svg" xmlns:xlink="http://www.w3.org/1999/xlink" x="0px" y="0px"
	 viewBox="0 0 674 674" style="enable-background:new 0 0 674 674;" xml:space="preserve">
<style type="text/css">
	.st0{fill:#FFFFFF;}
	.st1{fill:#FBBB00;}
	.st2{fill:#518EF8;}
	.st3{fill:#28B446;}
	.st4{fill:#F14336;}
	.st5{fill:#FFFFFF;}
	.st6{fill:#BF3300;}
	.st7{fill:#ffffff;}
	.st8{fill:#FFE000;}
	      #video, #loudspeaker, #graphics{
    animation: rotebox 50s linear infinite;
    transform: rotate(0deg);
    transform-origin: center center;
}
@keyframes rotebox{
0%{
    transform: rotate(0deg);
}
100%{
    transform: rotate(360deg);
}
}
</style>
<g id="video">
   <path id="Rectangle_125" data-name="Rectangle 125" d="m472.2,35.5h0c14.4,0,26,11.6,26,26h0c0,14.4-11.6,26-26,26h0c-14.4,0-26-11.6-26-26h0c0-14.4,11.7-26,26-26Z" style="fill: #fff; stroke-width: 0px;"/>
   <g>
      <path d="m478.06,52.89s-5.67-2.83-5.67-2.83c-1.17-.55-2.01,1.15-.87,1.75,0,0,5.67,2.83,5.67,2.83,1.15.55,2.02-1.15.87-1.75Z" style="fill: #e96a0e; stroke-width: 0px;"/>
      <path d="m485.15,53.35c.25-.23.18-.65-.12-.79l-13.96-6.97c-.18-.09-.4-.06-.55.08l-6.11,5.68c-.27.2-7.77,15.66-7.96,15.87-.36.72-.07,1.6.65,1.96l13.52,6.75,8.47-16.96c.66-.61,5.51-5.13,6.05-5.62Zm-13.14,11.41c-1.23,2.46-4.03,3.71-6.66,2.96-.26-.07-.41-.34-.34-.6.07-.26.34-.41.6-.34,2.18.62,4.51-.42,5.53-2.46l.35-.7c-.92-.03-1.79-.22-2.64-.41-2.33-.63-4.45-.66-5.88,1.6,1.58-.5,3.2-.66,4.82-.47.64.07.53,1.03-.11.97-1.85-.2-3.66.07-5.43.8-.17.07-.38.04-.51-.09-.14-.12-.2-.32-.15-.5.58-2.01,2.36-3.49,4.43-3.68,1.08-.02,2.07.2,3.03.42,1.08.24,2.1.47,3.18.37.18-.02.35.07.45.21.1.14.11.33.03.49l-.71,1.43h0Zm7.09-9.73c-.58.68-1.55.88-2.35.48l-5.67-2.83c-2.27-1.22-.59-4.58,1.75-3.5l5.67,2.83c1.12.52,1.43,2.11.61,3.02Z" style="fill: #e96a0e; stroke-width: 0px;"/>
      <path d="m484.43,61.34l.58-5.45-10.88,21.79.44.22c.72.36,1.6.06,1.96-.66.17-.41,7.77-15.43,7.91-15.9Z" style="fill: #e96a0e; stroke-width: 0px;"/>
      <path d="m471.51,76.37l1.74.87,10.72-21.46-4.07,3.78-8.39,16.8Z" style="fill: #e96a0e; stroke-width: 0px;"/>
    </g>
</g>
<g id="loudspeaker">
   <path id="Rectangle_124" data-name="Rectangle 124" d="m31,326h0c14.4,0,26,11.6,26,26h0c0,14.4-11.6,26-26,26h0c-14.4,0-26-11.6-26-26h0c0-14.4,11.6-26,26-26Z" style="fill: #fff; stroke-width: 0px;"/>
    <path d="m19.52,366.74h14.35c-1.45-1.01-2.31-2.65-2.31-4.42,0-.67.13-1.35.37-1.97H15.56c-.31.61-.46,1.29-.46,1.97,0,2.44,1.98,4.42,4.42,4.42h0Zm12.52-28.14v-.69h-2.46l14.08,14.08v-14.08h-1.36v.69c0,.27-.22.48-.48.48s-.48-.22-.48-.48v-.69h-.59v.69c0,.27-.22.48-.48.48s-.48-.22-.48-.48v-.69h-.59v.69c0,.27-.22.48-.48.48s-.48-.22-.48-.48v-.69h-.59v.69c0,.27-.22.48-.48.48s-.48-.22-.48-.48v-.69h-.59v.69c0,.27-.22.48-.48.48s-.48-.22-.48-.48v-.69h-.59v.69c0,.27-.22.48-.48.48s-.48-.22-.48-.48v-.69h-.59v.69c0,.27-.22.48-.48.48s-.48-.22-.48-.48h0Zm9.53,1.4v6.95l-6.95-6.95h6.95Zm-1.34,22.99v-1.62h.93c.27,0,.48-.22.48-.48s-.22-.48-.48-.48h-.93v-1.38h1.29c.27,0,.48-.22.48-.48s-.22-.48-.48-.48h-1.29v-1.38h.93c.27,0,.48-.22.48-.48s-.22-.48-.48-.48h-.93v-1.38h1.29c.27,0,.48-.22.48-.48s-.22-.48-.48-.48h-1.29v-1.38h.93c.27,0,.48-.22.48-.48,0-.13-.05-.25-.13-.33l2.16,2.16v9.64c0,.13-.11.24-.24.24h-2.95c-.13,0-.24-.11-.24-.24h0Zm1.26-11.81c-.09-.08-.2-.13-.33-.13h-.93v-1.13l1.26,1.26Zm-22.38-6.45v11.92c0,.67-.55,1.22-1.22,1.22h-.49c-.67,0-1.22-.55-1.22-1.22v-11.92h2.93Zm-2.65-.96l1.19-2.06,1.19,2.06h-2.37Zm4.58,15.62h11.65c.39,0,.61.43.4.75-.38.67-.58,1.42-.58,2.19,0,2.44,1.98,4.42,4.42,4.42,1.72,0,3.28-1,4.01-2.55h-.48c-.66,0-1.2-.54-1.2-1.2v-14.03l-8.07-8.07h-10.16v18.49Zm1.44-9l3.33-5.76,1.1.63-3.33,5.76-1.1-.63Zm0,2.57l1.1-.63,3.33,5.76-1.1.63-3.33-5.76Zm5.73,5.13l3.33-5.76,1.1.63c-1.11,1.92-2.22,3.84-3.33,5.76l-1.1-.63Zm9.93-5.93l-3.25,5.63h-3.93l2.75-4.76c.13-.23.05-.52-.18-.65l-.37-.22h4.99Zm-10.58,5.15l-3.25-5.63,3.25-5.63,3.25,5.63-3.25,5.63Zm7.33-11.74l3.25,5.63h-4.99l.37-.22c.23-.13.31-.42.18-.65l-2.75-4.76h3.93Zm-2.26,4.82l-1.1.63-3.33-5.76,1.1-.63,3.33,5.76Z" style="fill: #e96a0e; fill-rule: evenodd; stroke-width: 0px;"/>
 
</g>
<g id="graphics">
   <path id="Rectangle_126" data-name="Rectangle 126" d="m546.9,534.1h0c14.4,0,26,11.6,26,26h0c0,14.4-11.6,26-26,26h0c-14.4,0-26-11.6-26-26h0c0-14.3,11.6-26,26-26Z" style="fill: #fff; stroke-width: 0px;"/>
   <path d="m556.37,563.11l-2.42-2.28c-.25-.24-.26-.63-.03-.88l3.48-3.69c.24-.25.63-.26.88-.03l2.42,2.28c.25.24.26.63.03.88l-3.48,3.69c-.24.25-.63.26-.88.03Zm-4.59-4.33l-2.42-2.28c-.25-.24-.26-.63-.03-.88l3.48-3.69c.24-.25.63-.26.88-.03l2.42,2.28c.25.24.26.63.03.88l-3.48,3.69c-.24.25-.63.26-.88.03Zm-5.49,15.94l8.83-9.37c.24-.25.22-.64-.03-.88l-7.01-6.6c-.25-.24-.64-.22-.88.03l-8.83,9.37c-.24.25-.22.64.03.88l7.01,6.6c.25.24.64.22.88-.03Zm-3.44-6.92c-.16-.15-.23-.38-.18-.6l.83-3.52c.05-.22.21-.39.43-.45l3.47-1.04c.21-.07.45-.01.61.14l2.63,2.48c.16.15.23.38.18.6l-.83,3.52c-.05.22-.21.39-.43.45l-1.13.34,1-4.22-1.24-1.17-1.2.36,1.24,1.17-1,4.22-1.13.34c-.21.07-.45.01-.61-.14l-2.63-2.48Zm4.74,11.06l17.34-18.41c.87-.93.82-2.38-.1-3.25l-11.51-10.84c-.93-.87-2.38-.82-3.25.1l-5.45,5.79-2.66-2.5,2.4-2.55c.74-.78.83-1.91.2-2.5l-1.14-1.07-13.93,14.78,1.14,1.07c.63.59,1.74.43,2.48-.35l2.4-2.55,2.66,2.5-5.45,5.79c-.87.93-.82,2.38.1,3.25l11.51,10.84c.93.87,2.38.82,3.25-.1h0Zm-12.29-11.06l17.86-18.96,10.4,9.8c.13.12.13.32.01.45l-17.42,18.5c-.12.13-.32.13-.45.01l-10.4-9.8Z" style="fill: #e96a0e; fill-rule: evenodd; stroke-width: 0px;"/>
   </g>
</svg>

