<?xml version="1.0" encoding="utf-8"?>
<!-- Generator: Adobe Illustrator 27.7.0, SVG Export Plug-In . SVG Version: 6.00 Build 0)  -->
<svg version="1.1" id="Layer_1" xmlns="http://www.w3.org/2000/svg" xmlns:xlink="http://www.w3.org/1999/xlink" x="0px" y="0px"
	 viewBox="0 0 674 674" style="enable-background:new 0 0 674 674;" xml:space="preserve">
<style type="text/css">
	.st0{fill:#FFFFFF;}
	.st1{fill:#FBBB00;}
	.st2{fill:#518EF8;}
	.st3{fill:#28B446;}
	.st4{fill:#F14336;}
	.st5{fill:#FFFFFF;}
	.st6{fill:#BF3300;}
	.st7{fill:#ffffff;}
	.st8{fill:#FFE000;}
	      #video, #loudspeaker, #graphics{
    animation: rotebox 50s linear infinite;
    transform: rotate(0deg);
    transform-origin: center center;
}
@keyframes rotebox{
0%{
    transform: rotate(0deg);
}
100%{
    transform: rotate(360deg);
}
}
</style>
<g id="video">
   <path id="Rectangle_125" data-name="Rectangle 125" d="m472.2,35.5h0c14.4,0,26,11.6,26,26h0c0,14.4-11.6,26-26,26h0c-14.4,0-26-11.6-26-26h0c0-14.4,11.7-26,26-26Z" style="fill: #fff; stroke-width: 0px;"/>
      <g id="_18._google_ads_logo" data-name=" 18. google ads logo">
      <path d="m459.87,56.43c-2.5.73-3.93,3.35-3.19,5.85.73,2.5,3.35,3.93,5.85,3.19.79-.23,1.51-.67,2.08-1.27,1.8-1.88,1.73-4.86-.15-6.66-1.22-1.16-2.96-1.59-4.58-1.11Z" style="fill: #f47f00; stroke-width: 0px;"/>
      <path d="m473.44,52.46l-10.18,2.98c3.04,1.14,4.59,4.54,3.44,7.58-.2.52-.46,1.01-.8,1.46l4.43-1.3c2.06-8.5,2.1-9.47,3.1-10.72h0Z" style="fill: #f47f00; stroke-width: 0px;"/>
      <path d="m478.55,74.26c.13-.57,4.24-17.34,4.26-17.62.36-2.58-1.43-4.96-4.01-5.32-2.43-.34-4.72,1.24-5.25,3.63-.04-.04.14-.57-4.16,17.08-.62,2.53.94,5.08,3.46,5.69s5.08-.94,5.69-3.46Z" style="fill: #f47f00; stroke-width: 0px;"/>
    </g>
 
</g>
<g id="loudspeaker">
   <path id="Rectangle_124" data-name="Rectangle 124" d="m31,326h0c14.4,0,26,11.6,26,26h0c0,14.4-11.6,26-26,26h0c-14.4,0-26-11.6-26-26h0c0-14.4,11.6-26,26-26Z" style="fill: #fff; stroke-width: 0px;"/>
   <g>
      <path d="m21.56,341.27c-6.64,5.46-7.61,15.3-2.15,21.95,5.46,6.64,15.31,7.6,21.96,2.14.15-.13.31-.25.44-.38l-2.41-1.95c-5.35,4.36-13.24,3.58-17.63-1.75s-3.61-13.26,1.73-17.65,13.24-3.61,17.63,1.73l.1.12,2.71-1.48c-.14-.2-.3-.39-.45-.58-5.46-6.64-15.29-7.6-21.92-2.15Z" style="fill: #f47f00; stroke-width: 0px;"/>
      <path d="m37.86,347.32l-3.36,1.84c-3.26,1.92-3.77,6.54-.89,9.17l.07.06,2.72,2.2c-3.71,2.54-8.84,1.86-11.74-1.68-3.08-3.75-2.53-9.29,1.22-12.37s8.87-2.59,11.99.78Z" style="fill: #f47f00; stroke-width: 0px;"/>
      <path d="m49.3,352.96c.28.33.4.76.35,1.19l-.12,1.37c-.08.85-.85,1.55-1.81,1.49l-4.39-.44-.21,2.09c-.06.61-.45,1.13-1.02,1.36-.58.24-1.23.12-1.69-.28l-6.14-4.98c-.86-.8-.63-2.11.22-2.61l7.01-3.83c.55-.33,1.2-.32,1.73,0,.54.33.81.93.77,1.55l-.22,2.06,4.38.42c.46.04.84.26,1.13.61Z" style="fill: #f47f00; stroke-width: 0px;"/>
    </g>
 
</g>
<g id="graphics">
   <path id="Rectangle_126" data-name="Rectangle 126" d="m546.9,534.1h0c14.4,0,26,11.6,26,26h0c0,14.4-11.6,26-26,26h0c-14.4,0-26-11.6-26-26h0c0-14.3,11.6-26,26-26Z" style="fill: #fff; stroke-width: 0px;"/>
    <g>
      <path d="m550.28,555.91c-.55.55-1.05,1.12-1.49,1.7l5.55,5.55c.57-.44,1.14-.94,1.7-1.49,3.16-3.16,4.56-6.88,3.13-8.32l-.56-.56c-1.43-1.43-5.16-.03-8.32,3.13Z" style="fill: #f47f00; stroke-width: 0px;"/>
      <path d="m547.38,553.01c-.55.55-1.05,1.12-1.49,1.7l1.63,1.63c.44-.57.94-1.14,1.49-1.7,2.76-2.76,5.95-4.18,7.67-3.54-.09-.25-.23-.47-.41-.65l-.56-.56c-1.43-1.43-5.16-.03-8.32,3.13Z" style="fill: #f47f00; stroke-width: 0px;"/>
      <path d="m544.49,553.31l.13.13c.44-.57.94-1.14,1.49-1.7,2.76-2.76,5.95-4.18,7.67-3.54-.09-.25-.23-.47-.41-.65l-.56-.56c-1.43-1.43-5.16-.03-8.32,3.13-.63.63-1.19,1.29-1.68,1.94.43.15.81.38,1.12.69l.56.56Z" style="fill: #f47f00; stroke-width: 0px;"/>
      <path d="m552.18,574.31c3.16-3.16,4.56-6.88,3.13-8.32l-.56-.56c-1.43-1.43-5.16-.03-8.32,3.13-3.16,3.16-4.56,6.88-3.13,8.32l.56.56c1.43,1.43,5.16.03,8.32-3.13Z" style="fill: #f47f00; stroke-width: 0px;"/>
      <path d="m545.15,567.29c2.76-2.76,5.95-4.18,7.67-3.54-.09-.25-.23-.47-.41-.65l-.56-.56c-1.43-1.43-5.16-.03-8.32,3.13s-4.56,6.88-3.13,8.32l.56.56c.18.18.4.32.65.41-.64-1.72.78-4.91,3.54-7.67Z" style="fill: #f47f00; stroke-width: 0px;"/>
      <path d="m542.25,564.39c2.76-2.76,5.95-4.18,7.67-3.54-.09-.25-.23-.47-.41-.65l-.56-.56c-1.43-1.43-5.16-.03-8.32,3.13-3.16,3.16-4.56,6.88-3.13,8.32l.56.56c.18.18.4.32.65.41-.64-1.72.78-4.91,3.54-7.67Z" style="fill: #f47f00; stroke-width: 0px;"/>
      <path d="m539.2,561.33c2.76-2.76,5.95-4.18,7.67-3.54-.09-.25-.23-.47-.41-.65l-.56-.56c-1.43-1.43-5.16-.03-8.32,3.13s-4.56,6.88-3.13,8.32l.56.56c.18.18.4.32.65.41-.64-1.72.78-4.91,3.54-7.67Z" style="fill: #f47f00; stroke-width: 0px;"/>
      <path d="m536.3,558.44c2.76-2.76,5.95-4.18,7.67-3.54-.09-.25-.23-.47-.41-.65l-.56-.56c-1.43-1.43-5.16-.03-8.32,3.13s-4.56,6.88-3.13,8.32l.56.56c.18.18.4.32.65.41-.64-1.72.78-4.91,3.54-7.67Z" style="fill: #f47f00; stroke-width: 0px;"/>
    </g>
  
</g>
</svg>

