<?xml version="1.0" encoding="utf-8"?>
<!-- Generator: Adobe Illustrator 27.7.0, SVG Export Plug-In . SVG Version: 6.00 Build 0)  -->
<svg version="1.1" id="Layer_1" xmlns="http://www.w3.org/2000/svg" xmlns:xlink="http://www.w3.org/1999/xlink" x="0px" y="0px"
	 viewBox="0 0 674 674" style="enable-background:new 0 0 674 674;" xml:space="preserve">
<style type="text/css">
	.st0{fill:#FFFFFF;}
	.st1{fill:#FBBB00;}
	.st2{fill:#518EF8;}
	.st3{fill:#28B446;}
	.st4{fill:#F14336;}
	.st5{fill:#FFFFFF;}
	.st6{fill:#BF3300;}
	.st7{fill:#ffffff;}
	.st8{fill:#FFE000;}
	      #video, #loudspeaker, #graphics{
    animation: rotebox 50s linear infinite;
    transform: rotate(0deg);
    transform-origin: center center;
}
@keyframes rotebox{
0%{
    transform: rotate(0deg);
}
100%{
    transform: rotate(360deg);
}
}
</style>
<g id="video">
   <path id="Rectangle_125" data-name="Rectangle 125" d="m472.2,35.5h0c14.4,0,26,11.6,26,26h0c0,14.4-11.6,26-26,26h0c-14.4,0-26-11.6-26-26h0c0-14.4,11.7-26,26-26Z" style="fill: #fff; stroke-width: 0px;"/>
   <path d="m464.11,65.15l-1.49,3.5c-.14.32-.5.49-.84.37l-1.05-.35c-.19-.06-.32-.19-.4-.37s-.08-.36,0-.55l1.64-3.88,2.14,1.27Zm9.86-16.71c3.14,1.86,4.17,5.91,2.31,9.05s-5.91,4.17-9.05,2.31-4.17-5.91-2.31-9.05,5.91-4.17,9.05-2.31Zm-.95,7.39c.1,0,.19-.05.24-.13s.05-.18,0-.27l-2.36-4.2c-.05-.09-.13-.14-.23-.14s-.19.05-.24.13l-2.45,4.14c-.05.09-.05.18,0,.27s.13.14.23.14l4.81.05Zm4.4,16.71l1.18,2.11c.19.34.62.45.95.26.34-.19.45-.62.27-.95l-1.18-2.11c-.19-.34-.62-.45-.95-.26-.34.19-.45.62-.27.95Zm4.14-5.62l2.42.03c.39,0,.7-.3.71-.69,0-.39-.3-.71-.69-.71l-2.42-.03c-.39,0-.7.3-.71.69,0,.39.3.7.69.71Zm-.81,3.66l1.97,1.17c.33.2.77.09.96-.25s.09-.77-.25-.96l-1.97-1.17c-.33-.2-.77-.09-.96.25s-.09.77.25.96Zm-4.28-1.17c.07.05.14.1.21.14.9.53,2.06.24,2.59-.66s.24-2.06-.66-2.59c-.07-.04-.15-.08-.23-.12l2.39-4.03c.45-.76.2-1.74-.56-2.19-.7-.42-1.62-.23-2.1.43h0c-.96.13-2.02.15-3.14.06-2.13,1.46-4.92,1.79-7.38.74l-1.99,3.35c2.75,2.27,4.74,4.98,5.66,7.41h0c-.33.73-.07,1.62.64,2.03.76.45,1.74.2,2.19-.56l2.39-4.03Zm-11.91-5.25l2.05-3.46c-1.73-1.05-2.89-2.66-3.41-4.47-1.05.14-1.97.74-2.51,1.65-.96,1.62-.42,3.73,1.2,4.7l2.67,1.58Z" style="fill: #4f3f59; fill-rule: evenodd; stroke-width: 0px;"/>
  
</g>
<g id="loudspeaker">
   <path id="Rectangle_124" data-name="Rectangle 124" d="m31,326h0c14.4,0,26,11.6,26,26h0c0,14.4-11.6,26-26,26h0c-14.4,0-26-11.6-26-26h0c0-14.4,11.6-26,26-26Z" style="fill: #fff; stroke-width: 0px;"/>
    <g>
      <path d="m20.89,338.73h-2.33c-.43,0-.78.35-.78.78v2.33h3.11v-3.11Z" style="fill: #4f3f59; stroke-width: 0px;"/>
      <path d="m22.44,338.73h3.11v3.11h-3.11v-3.11Z" style="fill: #4f3f59; stroke-width: 0px;"/>
      <path d="m30.22,339.5c0-.43-.35-.78-.78-.78h-2.33v3.11h3.11v-2.33Z" style="fill: #4f3f59; stroke-width: 0px;"/>
      <path d="m17.78,364.5c0,.43.35.78.78.78h2.33v-3.11h-3.11v2.33Z" style="fill: #4f3f59; stroke-width: 0px;"/>
      <path d="m22.44,362.16h3.11v3.11h-3.11v-3.11Z" style="fill: #4f3f59; stroke-width: 0px;"/>
      <path d="m27.11,365.27h2.33c.43,0,.78-.35.78-.78v-2.33h-3.11v3.11Z" style="fill: #4f3f59; stroke-width: 0px;"/>
      <path d="m42.32,352.14s-.02-.01-.03-.02l-3.34-1.94,3.34-1.94s.02-.01.03-.02c1.14-.68,1.9-1.92,1.9-3.34,0-2.14-1.74-3.89-3.89-3.89s-3.89,1.74-3.89,3.89c0,.99.37,1.9.99,2.58l-1.59.92-4.07-2.36v3.6l.97.56-8.17,4.74c-.27.16-.42.46-.38.78.04.31.27.57.57.65,1.57.42,3.21.2,4.62-.62l6.46-3.75,1.59.92c-.61.69-.99,1.59-.99,2.58,0,2.14,1.74,3.89,3.89,3.89s3.89-1.74,3.89-3.89c0-1.42-.76-2.66-1.9-3.34h0Zm-1.98-9.59c1.29,0,2.33,1.05,2.33,2.33s-1.05,2.33-2.33,2.33-2.33-1.05-2.33-2.33,1.05-2.33,2.33-2.33Zm0,15.27c-1.29,0-2.33-1.05-2.33-2.33s1.05-2.33,2.33-2.33,2.33,1.05,2.33,2.33-1.05,2.33-2.33,2.33Z" style="fill: #4f3f59; stroke-width: 0px;"/>
      <path d="m26.32,358.11h0c-.66,0-1.33-.09-1.97-.26-.91-.24-1.59-1.01-1.71-1.95-.13-.94.32-1.85,1.14-2.33l6.45-3.74v-6.44h-12.44v17.21h12.44v-3.58l-.08.04c-1.17.68-2.49,1.03-3.82,1.03Z" style="fill: #4f3f59; stroke-width: 0px;"/>
    </g>
</g>
<g id="graphics">
   <path id="Rectangle_126" data-name="Rectangle 126" d="m546.9,534.1h0c14.4,0,26,11.6,26,26h0c0,14.4-11.6,26-26,26h0c-14.4,0-26-11.6-26-26h0c0-14.3,11.6-26,26-26Z" style="fill: #fff; stroke-width: 0px;"/>
    <path d="m558.43,548.96c-6.37-6.37-16.71-6.37-23.08,0s-6.37,16.71,0,23.08,16.71,6.37,23.08,0c6.36-6.38,6.36-16.7,0-23.08Zm-7.05,16.77c-.24.08-.5.08-.74,0h0s-9.89-3.29-9.89-3.29c-.61-.2-.94-.86-.74-1.47.06-.17.16-.33.29-.46l6.59-6.59c.46-.46,1.19-.46,1.65,0,.13.13.22.28.28.46l3.3,9.89c.2.61-.12,1.27-.74,1.48Z" style="fill: #4f3f59; stroke-width: 0px;"/>
   </g>
</svg>

