<?xml version="1.0" encoding="utf-8"?>
<!-- Generator: Adobe Illustrator 27.7.0, SVG Export Plug-In . SVG Version: 6.00 Build 0)  -->
<svg version="1.1" id="Layer_1" xmlns="http://www.w3.org/2000/svg" xmlns:xlink="http://www.w3.org/1999/xlink" x="0px" y="0px"
	 viewBox="0 0 674 674" style="enable-background:new 0 0 674 674;" xml:space="preserve">
<style type="text/css">
	.st0{fill:#FFFFFF;}
	.st1{fill:#FBBB00;}
	.st2{fill:#518EF8;}
	.st3{fill:#28B446;}
	.st4{fill:#F14336;}
	.st5{fill:#FFFFFF;}
	.st6{fill:#BF3300;}
	.st7{fill:#ffffff;}
	.st8{fill:#FFE000;}
	      #video, #loudspeaker, #graphics{
    animation: rotebox 50s linear infinite;
    transform: rotate(0deg);
    transform-origin: center center;
}
@keyframes rotebox{
0%{
    transform: rotate(0deg);
}
100%{
    transform: rotate(360deg);
}
}
</style>
<g id="video">
   <path id="Rectangle_125" data-name="Rectangle 125" d="m472.2,35.5h0c14.4,0,26,11.6,26,26h0c0,14.4-11.6,26-26,26h0c-14.4,0-26-11.6-26-26h0c0-14.4,11.7-26,26-26Z" style="fill: #fff; stroke-width: 0px;"/>
  <g>
      <circle cx="462.45" cy="68.78" r="2.6" style="fill: #7c5962; stroke-width: 0px;"/>
      <circle cx="468.62" cy="74.95" r="2.6" style="fill: #7c5962; stroke-width: 0px;"/>
      <path d="m469.15,44.87l2.55,2.55-7.39,13.3-.7.23c-1.83.61-2.38,2.93-1.02,4.3l10.3,10.3c.34.34.89.34,1.22,0s.34-.89,0-1.22l-10.3-10.3c-.45-.45-.27-1.23.34-1.43l.51-.17,10.68,10.68c.27.27.69.33,1.03.14l11.02-6.12c.24-.13.4-.37.44-.64.04-.27-.05-.54-.25-.73l-15.5-15.5,1.43-2.58c.19-.34.13-.76-.14-1.03l-3.01-3.01c-.34-.34-.89-.34-1.22,0s-.34.89,0,1.22h0Z" style="fill: #7c5962; stroke-width: 0px;"/>
    </g>
 
</g>
<g id="loudspeaker">
   <path id="Rectangle_124" data-name="Rectangle 124" d="m31,326h0c14.4,0,26,11.6,26,26h0c0,14.4-11.6,26-26,26h0c-14.4,0-26-11.6-26-26h0c0-14.4,11.6-26,26-26Z" style="fill: #fff; stroke-width: 0px;"/>
   <g>
      <path d="m19.32,342.6c-.15.02-.24.15-.25.26,0,.11-.04,2.26-.04,2.26,0,0-1.75,1.8-1.92,1.98-.18.18-.12.52-.08.66,0,0,.1.34.28.9-.31.09-.68.23-1.06.43-1.22.64-1.87,1.58-1.87,2.71h0c0,.08,0,.16.01.24-.04.03-.08.07-.12.1-.53.49-.79,1.13-.76,1.88.04,1.46,1.1,2.92,2.98,4.1,1.32.83,2.98,1.46,4.26,1.64.52,1.68.88,2.85.89,2.88.27.85.29.87,1.09.99.6.08,17.76,2.3,17.76,2.3l3.22-18.59-2-8.06s-22.23,3.29-22.38,3.31Zm-1.73,6.99c.13.43.28.91.45,1.44-.74.01-1.77.1-2.66.44.21-1.11,1.47-1.66,2.22-1.89Zm.75,2.42c.3.97.63,2.04.96,3.1-1.15-.3-2.29-.87-3.04-1.57-.28-.26-.59-.62-.77-1.05.84-.4,2.04-.49,2.85-.48Zm-3.86,1.99c0-.34.07-.63.23-.88.21.4.5.78.88,1.14,1,.93,2.54,1.64,4.04,1.93.27.89.54,1.75.79,2.55-2.35-.5-5.88-2.47-5.94-4.73Z" style="fill: #7c5962; stroke-width: 0px;"/>
      <path d="m19.08,342.87c0,.11-.04,2.26-.04,2.26,0,0-1.75,1.8-1.92,1.98-.07.07-.1.16-.11.25h26.71s-2-8.06-2-8.06c0,0-22.23,3.29-22.38,3.31-.15.02-.24.16-.25.26Z" style="fill: #684952; stroke-width: 0px;"/>
      <path d="m23.22,351.82l3.5.94s-.48,1.04-.4,2.28c.11,1.81,1.26,1.83,1.55,1.82,1.57-.1,1.91-4.22,5.58-4.45,2.89-.18,4.86,1.53,5.02,4,.19,2.96-1.56,4.59-1.56,4.59l-2.67-.63s1.24-1.64,1.16-2.95c-.05-.86-.75-1.16-1.25-1.13-2.04.13-1.92,3.48-5.28,3.7-2.82.18-5.69-1.68-5.94-5.77-.1-1.58.3-2.38.3-2.38Z" style="fill: #fff; stroke-width: 0px;"/>
    </g>
 
</g>
<g id="graphics">
   <path id="Rectangle_126" data-name="Rectangle 126" d="m546.9,534.1h0c14.4,0,26,11.6,26,26h0c0,14.4-11.6,26-26,26h0c-14.4,0-26-11.6-26-26h0c0-14.3,11.6-26,26-26Z" style="fill: #fff; stroke-width: 0px;"/>
   <path d="m542.54,574.66l2.7,2.7c.89.89,2.35.89,3.24,0l15.2-15.2c.89-.89.89-2.35,0-3.24l-2.7-2.7-18.44,18.44Zm8.14-3.82l-3.24,3.24c-.3.3-.78.3-1.08,0s-.3-.78,0-1.08l3.24-3.24c.3-.3.78-.3,1.08,0s.3.78,0,1.08Zm5.4-5.4c-.3.3-.78.3-1.08,0s-.3-.78,0-1.08.78-.3,1.08,0,.3.78,0,1.08Zm2.16-2.16c-.3.3-.78.3-1.08,0s-.3-.78,0-1.08.78-.3,1.08,0,.3.78,0,1.08Zm2.16-2.16c-.3.3-.78.3-1.08,0s-.3-.78,0-1.08.78-.3,1.08,0,.3.78,0,1.08Z" style="fill: #7c5962; stroke-width: 0px;"/>
    <path d="m559.9,555.14l-11.35-11.35c-.89-.89-2.35-.89-3.24,0l-15.2,15.2c-.89.89-.89,2.35,0,3.24l11.35,11.35,18.44-18.44Zm-14-1.37c-.42.05-.8-.26-.84-.67-.05-.42.26-.8.67-.84l4.86-.54c.49-.05.9.36.84.84l-.54,4.86c-.05.42-.42.72-.84.67-.42-.05-.72-.42-.67-.84l.43-3.91-3.91.43Zm.29,10.33l-4.32-10.81c-.16-.39.03-.84.43-.99.39-.16.84.03.99.43l4.32,10.81c.16.39-.03.84-.43.99s-.84-.03-.99-.43h0Zm-8.15.17l.54-4.86c.05-.42.42-.72.84-.67.42.05.72.42.67.84l-.43,3.91,3.91-.43c.42-.05.8.26.84.67.05.42-.26.8-.67.84l-4.86.54c-.49.05-.9-.36-.84-.84h0Z" style="fill: #7c5962; stroke-width: 0px;"/>
 
</g>
</svg>

