<?xml version="1.0" encoding="utf-8"?>
<!-- Generator: Adobe Illustrator 27.7.0, SVG Export Plug-In . SVG Version: 6.00 Build 0)  -->
<svg version="1.1" id="Layer_1" xmlns="http://www.w3.org/2000/svg" xmlns:xlink="http://www.w3.org/1999/xlink" x="0px" y="0px"
	 viewBox="0 0 674 674" style="enable-background:new 0 0 674 674;" xml:space="preserve">
<style type="text/css">
	.st0{fill:#FFFFFF;}
	.st1{fill:#FBBB00;}
	.st2{fill:#518EF8;}
	.st3{fill:#28B446;}
	.st4{fill:#F14336;}
	.st5{fill:#FFFFFF;}
	.st6{fill:#BF3300;}
	.st7{fill:#ffffff;}
	.st8{fill:#FFE000;}
	      #video, #loudspeaker, #graphics{
    animation: rotebox 50s linear infinite;
    transform: rotate(0deg);
    transform-origin: center center;
}
@keyframes rotebox{
0%{
    transform: rotate(0deg);
}
100%{
    transform: rotate(360deg);
}
}
</style>
<g id="video">
   <path id="Rectangle_125" data-name="Rectangle 125" d="m472.2,35.5h0c14.4,0,26,11.6,26,26h0c0,14.4-11.6,26-26,26h0c-14.4,0-26-11.6-26-26h0c0-14.4,11.7-26,26-26Z" style="fill: #fff; stroke-width: 0px;"/>
    <path id="Icon" d="m461.75,68.4c-.42.87-1.48,1.22-2.33.81l-4.35-2.1c-.87-.42-1.23-1.46-.81-2.33l5.96-12.34c.42-.87,1.46-1.23,2.33-.81l4.33,2.09c.87.42,1.23,1.46.81,2.33l-5.96,12.34h.02Zm23.11-.78c.58,1.19.07,2.63-1.13,3.2-.48.24-1.03.29-1.55.17.58,1.19.07,2.63-1.12,3.18-.48.24-1.03.29-1.58.18.58,1.19.07,2.63-1.15,3.19-.65.31-1.41.31-2.07,0l-12.15-6.02c-.87-.42-1.23-1.46-.81-2.33l5.97-12.36c.94-1.95,8.92-2.53,10.17-4.31.83-1.17,2.09-4.49,2.94-4.08,1.47.71,3.05,2.15,1.49,5.38-1.37,2.85-5.03,5.64-5.03,5.64l7.56,3.65c1.19.57,1.68,1.99,1.11,3.18-.46,1.06-1.58,1.59-2.66,1.33h0Z" style="fill: #7a2c85; stroke-width: 0px;"/>
 
</g>
<g id="loudspeaker">
   <path id="Rectangle_124" data-name="Rectangle 124" d="m31,326h0c14.4,0,26,11.6,26,26h0c0,14.4-11.6,26-26,26h0c-14.4,0-26-11.6-26-26h0c0-14.4,11.6-26,26-26Z" style="fill: #fff; stroke-width: 0px;"/>
    <path d="m22.09,340.17c-1.7,1.56-2.63,3.71-2.63,6.04,0,1.74.55,3.34,1.64,4.74.55.71,1.22,1.35,2,1.92-.78.57-1.45,1.21-2,1.92-1.09,1.41-1.64,3-1.64,4.74,0,2.33.93,4.48,2.63,6.04,1.68,1.54,3.96,2.4,6.45,2.4s4.89-.95,7.36-2.99c2.21-1.83,4.44-4.45,7.04-7.5.89-1.04,1.89-2.22,2.96-3.44.28-.32.44-.74.44-1.17s-.16-.84-.44-1.17c-1.07-1.22-2.07-2.4-2.96-3.44-2.59-3.04-4.83-5.67-7.04-7.5-2.47-2.04-4.8-2.99-7.36-2.99s-4.77.85-6.45,2.4Z" style="fill: #ff1010; stroke-width: 0px;"/>
 
</g>
<g id="graphics">
   <path id="Rectangle_126" data-name="Rectangle 126" d="m546.9,534.1h0c14.4,0,26,11.6,26,26h0c0,14.4-11.6,26-26,26h0c-14.4,0-26-11.6-26-26h0c0-14.3,11.6-26,26-26Z" style="fill: #fff; stroke-width: 0px;"/>
    <path d="m548.91,568.17c-1.01-1.01-2.32-1.53-3.65-1.55l-1.53-6.51c.76-.3,1.47-.76,2.09-1.37s1.07-1.33,1.37-2.09l6.51,1.53c.03,1.32.54,2.64,1.55,3.65,2.07,2.07,5.44,2.07,7.51,0s2.07-5.44,0-7.51-5.44-2.07-7.51,0c-.61.61-1.04,1.34-1.29,2.11l-6.35-1.49c.16-1.77-.43-3.6-1.79-4.96-2.42-2.42-6.35-2.42-8.77,0s-2.42,6.35,0,8.77c1.35,1.35,3.18,1.95,4.96,1.79l1.49,6.35c-.77.25-1.5.68-2.11,1.29-2.07,2.07-2.07,5.44,0,7.51s5.44,2.07,7.51,0,2.07-5.44,0-7.51Z" style="fill: #7a2c85; stroke-width: 0px;"/>
  
</g>
</svg>
