<?xml version="1.0" encoding="utf-8"?>
<!-- Generator: Adobe Illustrator 27.7.0, SVG Export Plug-In . SVG Version: 6.00 Build 0)  -->
<svg version="1.1" id="Layer_1" xmlns="http://www.w3.org/2000/svg" xmlns:xlink="http://www.w3.org/1999/xlink" x="0px" y="0px"
	 viewBox="0 0 674 674" style="enable-background:new 0 0 674 674;" xml:space="preserve">
<style type="text/css">
	.st0{fill:#FFFFFF;}
	.st1{fill:#FBBB00;}
	.st2{fill:#518EF8;}
	.st3{fill:#28B446;}
	.st4{fill:#F14336;}
	.st5{fill:#FFFFFF;}
	.st6{fill:#BF3300;}
	.st7{fill:#ffffff;}
	.st8{fill:#FFE000;}
	      #video, #loudspeaker, #graphics{
    animation: rotebox 50s linear infinite;
    transform: rotate(0deg);
    transform-origin: center center;
}
@keyframes rotebox{
0%{
    transform: rotate(0deg);
}
100%{
    transform: rotate(360deg);
}
}
</style>
<g id="video">
   <path id="Rectangle_125" data-name="Rectangle 125" d="m472.2,35.5h0c14.4,0,26,11.6,26,26h0c0,14.4-11.6,26-26,26h0c-14.4,0-26-11.6-26-26h0c0-14.4,11.7-26,26-26Z" style="fill: #fff; stroke-width: 0px;"/>
      <g>
      <path d="m479.85,74.48l-2.03-1.05,6.67-12.9,1.97,1.02c.68.35,1.51.08,1.86-.59s.08-1.51-.59-1.86l-1.97-1.02,1.06-2.04c.35-.68.08-1.51-.59-1.86s-1.51-.08-1.86.59l-1.06,2.04-12.98-6.71,1.05-2.03c.35-.68.08-1.51-.59-1.86s-1.51-.08-1.86.59l-1.05,2.03-2.03-1.05c-.68-.35-1.51-.08-1.86.59s-.08,1.51.59,1.86l2.03,1.05-6.67,12.9-1.97-1.02c-.68-.35-1.51-.08-1.86.59s-.08,1.51.59,1.86l1.97,1.02-1.06,2.04c-.35.68-.08,1.51.59,1.86s1.51.08,1.86-.59l1.06-2.04,12.97,6.71-1.05,2.03c-.35.68-.08,1.51.59,1.86s1.51.08,1.86-.59l1.05-2.03,2.03,1.05c.68.35,1.51.08,1.86-.59.35-.68.08-1.51-.59-1.86Zm-17.45-9.03l6.67-12.9,12.97,6.71-6.67,12.9-12.97-6.71Z" style="fill: #9034a1; stroke-width: 0px;"/>
      <rect x="467.14" y="57.13" width="10.09" height="10.44" transform="translate(199.85 453.09) rotate(-62.65)" style="fill: #9034a1; stroke-width: 0px;"/>
    </g>
</g>
<g id="loudspeaker">
   <path id="Rectangle_124" data-name="Rectangle 124" d="m31,326h0c14.4,0,26,11.6,26,26h0c0,14.4-11.6,26-26,26h0c-14.4,0-26-11.6-26-26h0c0-14.4,11.6-26,26-26Z" style="fill: #fff; stroke-width: 0px;"/>
    <g>
      <path d="m28.13,364.28v1.7c0,.47.38.85.85.85s.85-.38.85-.85v-1.7c0-.47-.38-.85-.85-.85s-.85.38-.85.85Z" style="fill: #9034a1; stroke-width: 0px;"/>
      <path d="m23.87,363.87l-1.2,1.2c-.33.33-.33.87,0,1.2s.87.33,1.2,0l1.2-1.2c.33-.33.33-.87,0-1.2s-.87-.33-1.2,0Z" style="fill: #9034a1; stroke-width: 0px;"/>
      <path d="m32.88,363.87c-.33.33-.33.87,0,1.2l1.2,1.2c.33.33.87.33,1.2,0,.33-.33.33-.87,0-1.2l-1.2-1.2c-.33-.33-.87-.33-1.2,0Z" style="fill: #9034a1; stroke-width: 0px;"/>
      <path d="m28.13,338.65v1.7c0,.47.38.85.85.85s.85-.38.85-.85v-1.7c0-.47-.38-.85-.85-.85s-.85.38-.85.85Z" style="fill: #9034a1; stroke-width: 0px;"/>
      <path d="m22.67,338.36c-.33.33-.33.87,0,1.2l1.2,1.2c.33.33.87.33,1.2,0,.33-.33.33-.87,0-1.2l-1.2-1.2c-.33-.33-.87-.33-1.2,0Z" style="fill: #9034a1; stroke-width: 0px;"/>
      <path d="m34.08,338.36l-1.2,1.2c-.33.33-.33.87,0,1.2s.87.33,1.2,0l1.2-1.2c.33-.33.33-.87,0-1.2s-.87-.33-1.2,0Z" style="fill: #9034a1; stroke-width: 0px;"/>
      <path d="m20.15,345.88c-1.95,2.4-2.7,5.55-2.05,8.62.8,3.84,3.97,6.96,7.81,7.78,3.26.69,6.54-.16,8.99-2.34.99-.88,2.19-1.42,3.44-1.59v-2.63h-7.65c-.33,0-5.19-2.49-5.48-2.64-.58-.29-.58-1.23,0-1.52.31-.15,5.17-2.64,5.48-2.64h7.65v-2.64c-1.24-.18-2.46-.74-3.49-1.64-1.86-1.63-4.24-2.53-6.71-2.53-3.09,0-6.03,1.38-7.98,3.77Z" style="fill: #9034a1; stroke-width: 0px;"/>
      <path d="m32.3,352.32c0,.58-.1,1.15-.28,1.7h6.31v-3.4h-6.31c.18.55.28,1.13.28,1.7Z" style="fill: #9034a1; stroke-width: 0px;"/>
      <path d="m40.03,358.27h.85c1.41,0,2.55-1.14,2.55-2.55v-6.8c0-1.41-1.14-2.55-2.55-2.55h-.85v11.91Z" style="fill: #9034a1; stroke-width: 0px;"/>
      <path d="m27.48,352.32l2.81,1.41c.37-.91.37-1.9,0-2.81l-2.81,1.41Z" style="fill: #9034a1; stroke-width: 0px;"/>
      <path d="m45.14,356.41c.99-.35,1.76-1.29,1.76-2.39v-3.4c0-1.11-.77-2.04-1.76-2.39v8.19Z" style="fill: #9034a1; stroke-width: 0px;"/>
    </g>
</g>
<g id="graphics">
   <path id="Rectangle_126" data-name="Rectangle 126" d="m546.9,534.1h0c14.4,0,26,11.6,26,26h0c0,14.4-11.6,26-26,26h0c-14.4,0-26-11.6-26-26h0c0-14.3,11.6-26,26-26Z" style="fill: #fff; stroke-width: 0px;"/>
    <g>
      <path d="m532.89,563.6l2.72-2.96c.38-.41.35-1.04-.06-1.42s-1.04-.35-1.42.06l-2.72,2.96c-.38.41-.35,1.04.06,1.42s1.04.35,1.42-.06Z" style="fill: #9034a1; stroke-width: 0px;"/>
      <path d="m541.17,557.56c.89-.96,1.02-2.36.44-3.45l7.33-7.97c.38-.41.35-1.04-.06-1.42s-1.04-.35-1.42.06l-7.33,7.97c-1.14-.49-2.52-.23-3.4.73-1.13,1.22-1.05,3.13.18,4.26s3.13,1.05,4.26-.18Zm-2.96-2.72c.38-.41,1.01-.43,1.42-.06s.43,1.01.06,1.42-1.01.43-1.42.06-.43-1.01-.06-1.42Z" style="fill: #9034a1; stroke-width: 0px;"/>
      <path d="m551.59,575.34l10.61-11.54c1.88-2.04,1.74-5.22-.3-7.1l-5.92-5.44c-2.04-1.88-5.22-1.74-7.1.3l-10.61,11.54c-1.88,2.04-1.74,5.22.3,7.1l5.92,5.44c2.04,1.88,5.22,1.74,7.1-.3Zm-11.66-6.63c-1.22-1.13-1.3-3.04-.18-4.26l10.61-11.54c1.13-1.22,3.04-1.3,4.26-.18l5.92,5.44c1.22,1.13,1.3,3.04.18,4.26l-10.61,11.54c-1.13,1.22-3.04,1.3-4.26.18l-5.92-5.44Z" style="fill: #9034a1; stroke-width: 0px;"/>
      <path d="m549.99,571.14c.89-.96,1.02-2.36.44-3.45l.53-.57c1.83-1.99,2.29-4.76,1.44-7.14,1.42.05,2.85-.49,3.88-1.62.38-.41.35-1.04-.06-1.42s-1.04-.35-1.42.06c-1.13,1.22-3.04,1.3-4.26.18-.41-.38-1.04-.35-1.42.06s-.35,1.04.06,1.42c2.04,1.88,2.17,5.06.3,7.1l-.53.57c-1.14-.49-2.52-.23-3.4.73-1.13,1.22-1.05,3.13.18,4.26s3.13,1.05,4.26-.18Zm-2.96-2.72c.38-.41,1.01-.43,1.42-.06s.43,1.01.06,1.42-1.01.43-1.42.06-.43-1.01-.06-1.42Z" style="fill: #9034a1; stroke-width: 0px;"/>
    </g> </g>
</svg>
