<?xml version="1.0" encoding="utf-8"?>
<!-- Generator: Adobe Illustrator 27.7.0, SVG Export Plug-In . SVG Version: 6.00 Build 0)  -->
<svg version="1.1" id="Layer_1" xmlns="http://www.w3.org/2000/svg" xmlns:xlink="http://www.w3.org/1999/xlink" x="0px" y="0px"
	 viewBox="0 0 674 674" style="enable-background:new 0 0 674 674;" xml:space="preserve">
<style type="text/css">
	.st0{fill:#FFFFFF;}
	.st1{fill:#FBBB00;}
	.st2{fill:#518EF8;}
	.st3{fill:#28B446;}
	.st4{fill:#F14336;}
	.st5{fill:#FFFFFF;}
	.st6{fill:#BF3300;}
	.st7{fill:#ffffff;}
	.st8{fill:#FFE000;}
	      #video, #loudspeaker, #graphics{
    animation: rotebox 50s linear infinite;
    transform: rotate(0deg);
    transform-origin: center center;
}
@keyframes rotebox{
0%{
    transform: rotate(0deg);
}
100%{
    transform: rotate(360deg);
}
}
</style>
<g id="video">
   <path id="Rectangle_125" data-name="Rectangle 125" d="m472.2,35.5h0c14.4,0,26,11.6,26,26h0c0,14.4-11.6,26-26,26h0c-14.4,0-26-11.6-26-26h0c0-14.4,11.7-26,26-26Z" style="fill: #fff; stroke-width: 0px;"/>
  <g>
      <circle cx="462.45" cy="68.78" r="2.6" style="fill: #7c5962; stroke-width: 0px;"/>
      <circle cx="468.62" cy="74.95" r="2.6" style="fill: #7c5962; stroke-width: 0px;"/>
      <path d="m469.15,44.87l2.55,2.55-7.39,13.3-.7.23c-1.83.61-2.38,2.93-1.02,4.3l10.3,10.3c.34.34.89.34,1.22,0s.34-.89,0-1.22l-10.3-10.3c-.45-.45-.27-1.23.34-1.43l.51-.17,10.68,10.68c.27.27.69.33,1.03.14l11.02-6.12c.24-.13.4-.37.44-.64.04-.27-.05-.54-.25-.73l-15.5-15.5,1.43-2.58c.19-.34.13-.76-.14-1.03l-3.01-3.01c-.34-.34-.89-.34-1.22,0s-.34.89,0,1.22h0Z" style="fill: #7c5962; stroke-width: 0px;"/>
    </g>
 
</g>
<g id="loudspeaker">
   <path id="Rectangle_124" data-name="Rectangle 124" d="m31,326h0c14.4,0,26,11.6,26,26h0c0,14.4-11.6,26-26,26h0c-14.4,0-26-11.6-26-26h0c0-14.4,11.6-26,26-26Z" style="fill: #fff; stroke-width: 0px;"/>
  <g>
      <path d="m31,369.42c6.9,0,12.85-4.01,15.68-9.82l-22.77,8.31c2.17.97,4.56,1.51,7.09,1.51Z" style="fill: #7c5962; stroke-width: 0px;"/>
      <path d="m30.12,340.24c-2.15,0-3.64.77-4.8,1.44-1.44.88-2.65,1.71-4.09,1.71-1.6,0-3.09-1.21-3.09-2.93,0-.08,0-.15.01-.23-2.84,3.1-4.57,7.23-4.57,11.76,0,6.09,3.12,11.44,7.85,14.56.01-.41.02-.79.02-1.12,0-1.82-.22-4.64-.22-4.64-.06-.94,1.32-1.05,1.44-.11,0,0,.11.94.17,1.99l18.87-6.34-11.43-3.81-7.44,2.71c-.06.94-.17,1.83-.17,1.83-.06.94-1.49.83-1.44-.11,0,0,.22-2.88.22-4.59,0-1.82-.22-4.64-.22-4.64-.06-.94,1.32-1.05,1.44-.11,0,0,.11.95.17,1.99l18.73-6.3-5.81-1.74c-2.41-.75-4.14-1.33-5.63-1.33Z" style="fill: #7c5962; stroke-width: 0px;"/>
      <path d="m32.52,351.69l15.19,5.23c.46-1.56.71-3.21.71-4.92,0-2.03-.35-3.97-.99-5.79-.07.05-.15.09-.24.12l-14.67,5.36Z" style="fill: #7c5962; stroke-width: 0px;"/>
      <path d="m22.64,336.71c.55-.07,1.15-.12,1.79-.12,1.77,0,3.76.33,6.24,1.32l15.39,5.32c-3.02-5.18-8.63-8.66-15.06-8.66-3.03,0-5.88.77-8.36,2.13Z" style="fill: #7c5962; stroke-width: 0px;"/>
      <path d="m10.69,352c0,11.2,9.11,20.31,20.31,20.31s20.31-9.11,20.31-20.31-9.11-20.31-20.31-20.31c-11.2,0-20.31,9.11-20.31,20.31Zm39.68,0c0,10.68-8.69,19.38-19.38,19.38s-19.38-8.69-19.38-19.38,8.69-19.38,19.38-19.38c10.68,0,19.38,8.69,19.38,19.38Z" style="fill: #7c5962; stroke-width: 0px;"/>
    </g>
 
</g>
<g id="graphics">
   <path id="Rectangle_126" data-name="Rectangle 126" d="m546.9,534.1h0c14.4,0,26,11.6,26,26h0c0,14.4-11.6,26-26,26h0c-14.4,0-26-11.6-26-26h0c0-14.3,11.6-26,26-26Z" style="fill: #fff; stroke-width: 0px;"/>
   <path d="m542.54,574.66l2.7,2.7c.89.89,2.35.89,3.24,0l15.2-15.2c.89-.89.89-2.35,0-3.24l-2.7-2.7-18.44,18.44Zm8.14-3.82l-3.24,3.24c-.3.3-.78.3-1.08,0s-.3-.78,0-1.08l3.24-3.24c.3-.3.78-.3,1.08,0s.3.78,0,1.08Zm5.4-5.4c-.3.3-.78.3-1.08,0s-.3-.78,0-1.08.78-.3,1.08,0,.3.78,0,1.08Zm2.16-2.16c-.3.3-.78.3-1.08,0s-.3-.78,0-1.08.78-.3,1.08,0,.3.78,0,1.08Zm2.16-2.16c-.3.3-.78.3-1.08,0s-.3-.78,0-1.08.78-.3,1.08,0,.3.78,0,1.08Z" style="fill: #7c5962; stroke-width: 0px;"/>
    <path d="m559.9,555.14l-11.35-11.35c-.89-.89-2.35-.89-3.24,0l-15.2,15.2c-.89.89-.89,2.35,0,3.24l11.35,11.35,18.44-18.44Zm-14-1.37c-.42.05-.8-.26-.84-.67-.05-.42.26-.8.67-.84l4.86-.54c.49-.05.9.36.84.84l-.54,4.86c-.05.42-.42.72-.84.67-.42-.05-.72-.42-.67-.84l.43-3.91-3.91.43Zm.29,10.33l-4.32-10.81c-.16-.39.03-.84.43-.99.39-.16.84.03.99.43l4.32,10.81c.16.39-.03.84-.43.99s-.84-.03-.99-.43h0Zm-8.15.17l.54-4.86c.05-.42.42-.72.84-.67.42.05.72.42.67.84l-.43,3.91,3.91-.43c.42-.05.8.26.84.67.05.42-.26.8-.67.84l-4.86.54c-.49.05-.9-.36-.84-.84h0Z" style="fill: #7c5962; stroke-width: 0px;"/>
 
</g>
</svg>
