<?xml version="1.0" encoding="UTF-8"?>
<svg id="Layer_1" data-name="Layer 1" xmlns="http://www.w3.org/2000/svg" viewBox="0 0 674 674">
  <defs>
    <style>
      .cls-1 {
        opacity: .1;
      }

      .cls-1, .cls-2, .cls-3 {
        fill: none;
        stroke: #707070;
      }

      .cls-4 {
        fill: #ea3f33;
      }

      .cls-2 {
        opacity: .3;
      }

      .cls-5 {
        fill: #fff;
      }

      .cls-6 {
        fill: #fff;
      }

      .cls-7 {
        fill: #ffcf00;
      }

      .cls-8 {
        fill: #fff;
      }

      .cls-3 {
        opacity: .5;
      }
      #video, #loudspeaker, #graphics{
    animation: rotebox 50s linear infinite;
    transform: rotate(0deg);
    transform-origin: center center;
}
@keyframes rotebox{
0%{
    transform: rotate(0deg);
}
100%{
    transform: rotate(360deg);
}
}

    </style>
  </defs>
 <g id="video">
    <path id="Rectangle_125" data-name="Rectangle 125" class="cls-5" d="m472.22,35.5h0c14.36,0,26,11.64,26,26h0c0,14.36-11.64,26-26,26h0c-14.36,0-26-11.64-26-26h0c0-14.36,11.64-26,26-26Z"/>
    <path id="inr" class="cls-4" d="m470.15,47.59l1.91,6.39-7.19-3.88c1.26-1.63,3.22-2.56,5.28-2.51Zm5.93,2.37l-2.96-1.6c-.18-.1-.37-.19-.56-.28l2.2,7.35,3.52,1.9-2.2-7.38Zm6.64,3.58l-3.92-2.11,2.21,7.38,4.79,2.58c1.03-3.02-.27-6.34-3.08-7.85h0Zm-14.85,12.58l6.22-.05c.6,0,1.09-.49,1.08-1.1,0-.21-.06-.41-.17-.58l-3.37-5.23c-.33-.51-1-.65-1.51-.32-.15.1-.28.24-.37.4l-2.85,5.28c-.29.53-.09,1.19.44,1.48.16.09.34.13.53.13h0Zm16.98-2.76l-4.66,8.63c-1.72,3.18-5.68,4.36-8.86,2.65l-9.59-5.18c-3.18-1.72-4.36-5.68-2.65-8.86l4.66-8.63,21.1,11.39Z"/>
  </g>
  <g id="loudspeaker">
    <path id="Rectangle_124" data-name="Rectangle 124" class="cls-8" d="m31,326h0c14.36,0,26,11.64,26,26h0c0,14.36-11.64,26-26,26h0c-14.36,0-26-11.64-26-26h0c0-14.36,11.64-26,26-26Z"/>
    <g id="inr-2" data-name="inr">
      <g id="Group_89" data-name="Group 89">
        <g id="Group_88" data-name="Group 88">
          <path id="Path_1367" data-name="Path 1367" class="cls-4" d="m36.57,342.4l-14.52.82c-.85.05-1.5.78-1.46,1.63.05.85.78,1.5,1.63,1.46h0l14.52-.82c.85-.07,1.48-.82,1.41-1.67-.07-.81-.76-1.43-1.58-1.41h0Z"/>
        </g>
      </g>
      <g id="Group_91" data-name="Group 91">
        <g id="Group_90" data-name="Group 90">
          <path id="Path_1368" data-name="Path 1368" class="cls-4" d="m22.77,347.82l.24.32c1.66,2.26,2.73,4.89,3.09,7.67l7.9-.45c.03-2.8.78-5.54,2.16-7.97l.2-.34-13.59.77Z"/>
        </g>
      </g>
      <g id="Group_93" data-name="Group 93">
        <g id="Group_92" data-name="Group 92">
          <path id="Path_1369" data-name="Path 1369" class="cls-4" d="m26.29,357.35l.3,5.4c.07,1.28,1.17,2.25,2.44,2.18h0s3.08-.17,3.08-.17c1.28-.07,2.25-1.17,2.18-2.44,0,0,0,0,0,0l-.3-5.4-7.71.44Zm4.85,3.6c.02.43-.3.79-.73.81-.43.02-.79-.3-.81-.73l-.09-1.54c-.02-.43.3-.79.73-.81.43-.02.79.3.81.73h0l.09,1.54Z"/>
        </g>
      </g>
      <g id="Group_95" data-name="Group 95">
        <g id="Group_94" data-name="Group 94">
          <path id="Path_1370" data-name="Path 1370" class="cls-4" d="m39.3,357.33l-.08-1.48c-.07-1.28-1.16-2.25-2.44-2.18,0,0,0,0,0,0l-1.1.06c-.07.52-.11,1.03-.13,1.55l1.32-.07c.43-.02.79.3.81.73h0s.09,1.51.09,1.51l-2.18.16.17,3.08,4.87-.35c.85-.05,1.5-.78,1.45-1.63-.05-.85-.78-1.5-1.63-1.45l-1.15.08Z"/>
        </g>
      </g>
      <g id="Group_97" data-name="Group 97">
        <g id="Group_96" data-name="Group 96">
          <path id="Path_1371" data-name="Path 1371" class="cls-4" d="m24.28,339.73c-.28.32-.26.81.06,1.09h0s1.15,1.03,1.15,1.03c.32.28.81.26,1.09-.06s.26-.81-.06-1.09l-1.15-1.03c-.32-.28-.81-.26-1.09.06,0,0,0,0,0,0Z"/>
        </g>
      </g>
      <g id="Group_99" data-name="Group 99">
        <g id="Group_98" data-name="Group 98">
          <path id="Path_1372" data-name="Path 1372" class="cls-4" d="m33.01,339.24l-1.03,1.15c-.28.32-.26.81.06,1.09s.81.26,1.09-.06h0l1.03-1.15c.28-.32.26-.81-.06-1.09s-.81-.26-1.09.06Z"/>
        </g>
      </g>
      <g id="Group_101" data-name="Group 101">
        <g id="Group_100" data-name="Group 100">
          <path id="Path_1373" data-name="Path 1373" class="cls-4" d="m29.05,337.05c-.43.02-.75.39-.73.81,0,0,0,0,0,0l.12,2.18c.02.43.39.75.81.73.43-.02.75-.39.73-.81l-.12-2.18c-.02-.43-.39-.75-.81-.73,0,0,0,0,0,0Z"/>
        </g>
      </g>
    </g>
  </g>
  <g id="graphics">
    <path id="Rectangle_126" data-name="Rectangle 126" class="cls-6" d="m546.89,534.11h0c14.36,0,26,11.64,26,26h0c0,14.36-11.64,26-26,26h0c-14.36,0-26-11.64-26-26h0c0-14.36,11.64-26,26-26Z"/>
    <g id="inr-3" data-name="inr">
      <path id="Path_1374" data-name="Path 1374" class="cls-4" d="m554.64,551.09c-.76.11-1.48.42-2.08.91l-.54.44,3.48,4.31.54-.44c.6-.48,1.06-1.12,1.33-1.85l1.35-3.64c.04-.11-.02-.23-.12-.27-.03-.01-.07-.02-.1-.01l-3.84.54Z"/>
      <path id="Path_1375" data-name="Path 1375" class="cls-4" d="m548.96,554.93l3.48,4.32,2.08-1.7-3.48-4.32-2.08,1.7Z"/>
      <path id="Path_1376" data-name="Path 1376" class="cls-4" d="m541.37,561.01l3.48,4.32-2.59,2.09-3.48-4.32,2.59-2.09Z"/>
      <path id="Path_1377" data-name="Path 1377" class="cls-4" d="m541.28,568.21l-3.48-4.32-1.42,1.15c-1.2.95-1.4,2.7-.45,3.9.95,1.2,2.7,1.4,3.9.45.01,0,.02-.02.03-.03l1.42-1.15Z"/>
      <path id="Path_1378" data-name="Path 1378" class="cls-4" d="m546.23,558.98c.22.27.18.67-.09.89h0s-2.39,1.93-2.39,1.93l.85,1.05,1.36-1.1c.27-.22.67-.18.89.09s.18.67-.09.89l-1.36,1.1.86,1.07,2.39-1.93c.27-.22.67-.18.89.09.22.27.18.67-.09.89l-2.39,1.93.86,1.07,1.36-1.1c.27-.22.67-.18.89.09.22.27.18.67-.09.89h0l-1.36,1.1.86,1.07,2.39-1.92c.27-.22.67-.18.89.09.22.27.18.67-.09.89h0l-2.39,1.93.79.98c.49.61,1.39.71,2,.21,0,0,0,0,0,0l3.25-2.63c.61-.49.71-1.39.21-2h0s-13.94-17.28-13.94-17.28c-.49-.61-1.39-.71-2-.21l-3.26,2.63c-.61.49-.71,1.39-.21,2,0,0,0,0,0,0l.79.98,1.36-1.1c.27-.22.67-.18.89.09.22.27.18.67-.09.89l-1.36,1.1.86,1.07,2.39-1.93c.27-.22.67-.18.89.09s.18.67-.09.89h0l-2.39,1.93.86,1.07,1.36-1.1c.27-.22.67-.18.89.09s.18.67-.09.89l-1.36,1.1.86,1.07,2.39-1.93c.27-.22.67-.18.89.09,0,0,0,0,0,0Z"/>
    </g>
  </g>
</svg>