<?xml version="1.0" encoding="utf-8"?>
<!-- Generator: Adobe Illustrator 27.8.1, SVG Export Plug-In . SVG Version: 6.00 Build 0)  -->
<svg version="1.1" id="Layer_1" xmlns="http://www.w3.org/2000/svg" xmlns:xlink="http://www.w3.org/1999/xlink" x="0px" y="0px"
	 viewBox="0 0 674 674" style="enable-background:new 0 0 674 674;" xml:space="preserve">
<style type="text/css">
	.st0{opacity:0.3;fill:none;stroke:#FFFFFF;enable-background:new    ;}
	.st1{opacity:0.5;fill:none;stroke:#FFFFFF;enable-background:new    ;}
	.st2{opacity:0.1;fill:none;stroke:#FFFFFF;enable-background:new    ;}
	.st3{opacity:0.1;fill:#FFFFFF;}
</style>
<path id="line2" class="st0" d="M337,28.5L337,28.5c170.4,0,308.5,138.1,308.5,308.5l0,0c0,170.4-138.1,308.5-308.5,308.5l0,0
	C166.6,645.5,28.5,507.4,28.5,337l0,0C28.5,166.6,166.6,28.5,337,28.5z"/>
<path id="line" class="st1" d="M337,61.5L337,61.5c152.1,0,275.5,123.4,275.5,275.5l0,0c0,152.1-123.4,275.5-275.5,275.5l0,0
	C184.9,612.5,61.5,489.1,61.5,337l0,0C61.5,184.9,184.9,61.5,337,61.5z"/>
<path id="line3" class="st2" d="M337,0.5L337,0.5c185.8,0,336.5,150.7,336.5,336.5l0,0c0,185.8-150.7,336.5-336.5,336.5l0,0
	C151.2,673.5,0.5,522.8,0.5,337l0,0C0.5,151.2,151.2,0.5,337,0.5z"/>
<path id="Rectangle_121" class="st3" d="M337,92L337,92c135.3,0,245,109.7,245,245l0,0c0,135.3-109.7,245-245,245l0,0
	C201.7,582,92,472.3,92,337l0,0C92,201.7,201.7,92,337,92z"/>
</svg>
