<?xml version="1.0" encoding="utf-8"?>
<!-- Generator: Adobe Illustrator 27.7.0, SVG Export Plug-In . SVG Version: 6.00 Build 0)  -->
<svg version="1.1" id="Layer_1" xmlns="http://www.w3.org/2000/svg" xmlns:xlink="http://www.w3.org/1999/xlink" x="0px" y="0px"
	 viewBox="0 0 208 75" style="enable-background:new 0 0 208 75;" xml:space="preserve">
<style type="text/css">
	.st0{fill-rule:evenodd;clip-rule:evenodd;fill:#E63424;}
	.st1{fill-rule:evenodd;clip-rule:evenodd;fill:#1BA74B;}
	.st2{fill-rule:evenodd;clip-rule:evenodd;fill:#5376B8;}
	.st3{fill-rule:evenodd;clip-rule:evenodd;fill:#FFCB00;}
	.st4{fill:#3F3E44;}
	.st5{fill-rule:evenodd;clip-rule:evenodd;fill:#3F3E44;}
</style>
<path class="st0" d="M124.7,32.3L124,33c-0.2,0.2-0.4,0.6-0.6,0.8l-4.1,4.3l0,0l-13.8-20.4c-0.3-0.7-0.2-1.4,0.3-2s1.4-0.9,2.7-0.9
	h2.1c0.6,0,1.2,0.1,1.8,0.4c0.6,0.2,1,0.5,1.2,0.9C117.3,21.4,121.1,26.9,124.7,32.3z"/>
<path class="st1" d="M149.6,70.1c0,0.3-0.2,0.7-0.5,0.9c-0.3,0.3-0.6,0.5-1.1,0.7s-1,0.3-1.6,0.3h-2.2c-0.5,0-1.1-0.1-1.7-0.4
	c-0.6-0.3-1-0.5-1.2-0.9l-16.6-24.6c0.3-0.4,0.6-0.7,0.9-1.1c0.5-0.8,1.1-1.5,1.7-2.2l2.5-3c0.6,0.9,1.3,1.8,1.9,2.8
	c6.1,9,12,17.8,17.8,26.4C149.5,69.4,149.6,69.7,149.6,70.1z"/>
<path class="st2" d="M130.8,72.4c-0.1,0.2,0,0.1-0.1,0.2s-0.1,0.1-0.2,0.1l-1.2,0.6c-7,3.3-15.8,0.3-18.8-7c-0.9-2.1-1.2-4-1.2-6.7
	c0-8.2,6.3-16.7,10-21.5l5.4,8c-3.3,5.3-6.4,12.4-6.4,18.7c0,6.4,4.3,10.2,10.1,8.4L130.8,72.4z"/>
<path class="st3" d="M163.4,0.3c-8.2,15.1-12.9,22.4-16.4,37.4c-0.1-0.1,0,0-0.1-0.1l-0.2-0.5c-0.1-0.2-0.2-0.4-0.3-0.7
	c-0.5-1.2-4-9.1-4.1-9.6c-0.4,0.1-0.8,0.7-1,1l-5.2,5.4c-1.3,1.5-3.6,3.7-4.7,5c-0.2,0.2-0.3,0.3-0.5,0.5s-0.3,0.3-0.5,0.6
	c-0.2,0.2-0.3,0.3-0.5,0.5l-0.1,0.2l-2.5,3c-0.6,0.7-1.2,1.5-1.7,2.2c-0.3,0.4-0.6,0.5-0.9,0.9l-5.3-7.9l-0.1-0.1l4.2-4.6
	c0.2-0.2,0.3-0.3,0.5-0.5l0.6-0.6l1.8-2c0.2-0.2,0.2-0.3,0.4-0.5c0.3-0.4,0.7-0.6,1-1l3.4-3.6c0.2-0.2,0.2-0.3,0.4-0.5
	c0.5-0.5,2.5-2.4,2.8-3c-1,0-7.3,0.7-8.9,0.8c-0.7,0.1-2.4,0.1-2.9,0.3c0.1-0.2,0.1-0.2,0.5-0.4c0.2-0.1,0.3-0.1,0.5-0.3l5.3-2.8
	c0.4-0.2,0.7-0.4,1.1-0.6l31.4-17.2C161.7,1.1,163,0.4,163.4,0.3z"/>
<g>
	<g>
		<path class="st4" d="M26.5,47.7c0,3.6-1.1,6.4-3.2,8.6C21,58.8,17.8,60,14,60c-3.7,0-6.9-1.3-9.4-3.9c-2.6-2.6-3.9-5.7-3.9-9.5
			s1.3-6.9,3.9-9.5s5.7-3.9,9.4-3.9c1.9,0,3.7,0.3,5.3,1c1.7,0.7,3,1.6,4.1,2.8L21,39.5c-0.8-1-1.8-1.7-3.1-2.2
			c-1.3-0.5-2.6-0.8-4-0.8c-2.8,0-5.2,1-7.1,2.9C5,41.3,4,43.7,4,46.7C4,49.6,5,52,6.9,54c1.9,1.9,4.3,2.9,7.1,2.9
			c2.6,0,4.7-0.7,6.4-2.1c1.7-1.4,2.7-3.4,2.9-5.9H14v-3.1h12.4C26.5,46.4,26.5,47.1,26.5,47.7z"/>
		<path class="st4" d="M32.6,59.5h-3.3V41.9h3.1v2.9h0.1c0.3-0.9,1-1.7,2.1-2.4c1-0.7,2.1-1,3.1-1s1.8,0.1,2.4,0.4l-1,3.2
			c-0.4-0.2-1.1-0.3-1.9-0.3c-1.2,0-2.3,0.5-3.2,1.5s-1.4,2.2-1.4,3.5C32.6,49.7,32.6,59.5,32.6,59.5z"/>
		<path class="st4" d="M40.2,50.7c0-2.7,0.8-4.9,2.5-6.7s3.9-2.6,6.5-2.6s4.7,0.9,6.4,2.6c1.7,1.8,2.6,4,2.6,6.7s-0.9,5-2.6,6.7
			c-1.7,1.8-3.8,2.6-6.4,2.6c-2.6,0-4.8-0.9-6.5-2.6C41,55.6,40.2,53.4,40.2,50.7z M43.5,50.7c0,1.9,0.5,3.4,1.6,4.6
			c1.1,1.2,2.5,1.8,4.1,1.8s3-0.6,4.1-1.8s1.6-2.7,1.6-4.6c0-1.9-0.5-3.4-1.6-4.5c-1.1-1.2-2.5-1.8-4.1-1.8s-3,0.6-4.1,1.8
			C44,47.3,43.5,48.8,43.5,50.7z"/>
		<path class="st4" d="M85.7,41.9L80,59.5h-3.4L72.3,46L68,59.5h-3.3L59,41.9h3.4l3.9,13.2l0,0l4.3-13.2H74l4.3,13.2l0,0l3.9-13.2
			H85.7z"/>
		<path class="st4" d="M94.8,59.7c-1.4,0-2.6-0.4-3.6-1.3c-0.9-0.9-1.4-2.1-1.4-3.7v-9.8h-3.1v-3h3.1v-5.4h3.3v5.4h4.3v3h-4.3v8.7
			c0,1.2,0.2,2,0.7,2.4s1,0.6,1.5,0.6c0.3,0,0.5,0,0.8-0.1s0.5-0.1,0.7-0.2l1,2.9C96.9,59.6,95.9,59.7,94.8,59.7z"/>
		<path class="st4" d="M100.7,33.8h3.3v8.1l-0.1,2.4h0.1c0.5-0.9,1.3-1.6,2.3-2.1c1-0.6,2.1-0.9,3.2-0.9c2.1,0,3.8,0.6,5,1.8
			s1.7,3,1.7,5.2v11h-3.3V49.1c0-3.1-1.4-4.7-4.2-4.7c-1.3,0-2.5,0.6-3.4,1.7c-0.9,1.1-1.4,2.4-1.4,3.9v9.6h-3.3V33.8H100.7z"/>
	</g>
	<path class="st5" d="M140.6,59.7h-3.3V34.1h3.3V59.7L140.6,59.7z M145.1,42.2h3.1v2.4h0.1c0.5-0.9,1.3-1.6,2.3-2.1
		c1-0.6,2.1-0.9,3.2-0.9c2.1,0,3.8,0.6,5,1.8s1.7,3,1.7,5.2v11h-3.3V48.9c-0.1-2.9-1.5-4.3-4.3-4.3c-1.3,0-2.4,0.5-3.3,1.6
		c-0.9,1.1-1.3,2.3-1.3,3.8v9.7H145V42.2H145.1z M172.4,57.3c1.6,0,2.9-0.6,4-1.8s1.6-2.7,1.6-4.6c0-1.8-0.5-3.4-1.6-4.5
		c-1-1.2-2.4-1.8-4-1.8s-2.9,0.6-4,1.8s-1.6,2.7-1.6,4.5c0,1.9,0.5,3.4,1.6,4.5C169.5,56.7,170.8,57.3,172.4,57.3L172.4,57.3z
		 M171.9,60.3c-2.3,0-4.3-0.9-5.9-2.7c-1.6-1.8-2.4-4-2.4-6.6s0.8-4.8,2.4-6.6c1.6-1.8,3.6-2.7,5.9-2.7c1.3,0,2.5,0.3,3.5,0.8
		c1.1,0.5,1.9,1.3,2.5,2.2h0.1l-0.1-2.4v-8.1h3.3v25.6H178v-2.4h-0.1c-0.6,0.9-1.4,1.6-2.5,2.2C174.3,60,173.2,60.3,171.9,60.3
		L171.9,60.3z M188.7,42.2v17.5h-3.3V42.2H188.7L188.7,42.2z M195.2,54.3c0,0.9,0.4,1.6,1.1,2.1c0.7,0.6,1.6,0.9,2.6,0.9
		c1.4,0,2.6-0.5,3.7-1.5c1.1-1,1.6-2.2,1.6-3.6c-1-0.8-2.5-1.2-4.3-1.2c-1.3,0-2.5,0.3-3.3,1C195.7,52.6,195.2,53.4,195.2,54.3
		L195.2,54.3z M199.5,41.6c2.4,0,4.4,0.7,5.8,2c1.4,1.3,2.1,3.1,2.1,5.3v10.8h-3.1v-2.4h-0.1c-1.4,2-3.2,3-5.4,3
		c-1.9,0-3.5-0.6-4.8-1.7c-1.3-1.1-2-2.6-2-4.3c0-1.8,0.7-3.3,2.1-4.3c1.4-1.1,3.2-1.6,5.5-1.6c2,0,3.6,0.4,4.8,1.1v-0.8
		c0-1.1-0.5-2.1-1.4-2.9c-0.9-0.8-2-1.2-3.2-1.2c-1.8,0-3.3,0.8-4.4,2.3l-2.9-1.8C194,42.7,196.4,41.6,199.5,41.6z"/>
	<path class="st1" d="M187,33.6c1,0,1.8,0.4,2.5,1c0.6,0.6,1,1.5,1,2.5s-0.4,1.8-1,2.5c-0.6,0.6-1.5,1-2.5,1s-1.8-0.4-2.5-1
		s-1-1.5-1-2.5s0.4-1.8,1-2.5C185.2,34,186.1,33.6,187,33.6L187,33.6z M188.6,35.6c-0.4-0.4-0.9-0.6-1.5-0.6s-1.1,0.2-1.5,0.6
		c-0.4,0.4-0.6,0.9-0.6,1.5s0.2,1.1,0.6,1.5c0.4,0.4,0.9,0.6,1.5,0.6s1.1-0.2,1.5-0.6c0.4-0.4,0.6-0.9,0.6-1.5
		C189.2,36.5,189,35.9,188.6,35.6z"/>
</g>
</svg>
