<?xml version="1.0" encoding="utf-8"?>
<!-- Generator: Adobe Illustrator 27.7.0, SVG Export Plug-In . SVG Version: 6.00 Build 0)  -->
<svg version="1.1" id="Layer_1" xmlns="http://www.w3.org/2000/svg" xmlns:xlink="http://www.w3.org/1999/xlink" x="0px" y="0px"
	 viewBox="0 0 308 260" style="enable-background:new 0 0 308 260;" xml:space="preserve">
<style type="text/css">
	.st0{fill:none;}
	.st1{fill:#2DAD52;}
	.st2{fill:#FFCF00;}
</style>
<rect class="st0" width="308" height="260"/>
<g id="Group_56" transform="translate(0 0)">
	<path id="Path_221" class="st1" d="M222.3,168.1c0,34.4-27.9,62.3-62.3,62.3c-34.4,0-62.3-27.9-62.3-62.3
		c0-34.4,27.9-62.3,62.3-62.3S222.3,133.6,222.3,168.1L222.3,168.1"/>
	<path id="Path_222" d="M134.3,197.4c-0.9,0-1.6-0.7-1.8-1.5c0-0.3-4-27.7-7.1-34.4c-3-6.3-10.5-16.2-11.3-17.3
		c-3.4-3.3-28.7-28.8-21.7-41.1c0.1-0.2,0.3-0.4,0.4-0.6c-0.7-0.1-1.4-0.3-2.1-0.7c-2.1-1.2-3.5-3.5-3.9-7
		c-1.3-9.4,8.5-14.3,9.9-14.9c1.6-1,16.2-10.1,28.5-7.7c4.6,1.1,8.8,3.6,11.9,7.2c0-4.6-0.1-11.3-0.3-18.1
		c-0.5-17.1,0.8-25.6,4.5-29.4c1.4-1.5,3.4-2.3,5.4-2.2c2-0.1,3.9,0.6,5.3,2c3,2.5,4.6,7.1,5,13.7c3.6-6.8,7.7-7.4,11.2-7
		c1.7,0.1,3.3,0.9,4.4,2.3c1.8,2.4,3.5,7.7,0.3,27c1-1.2,2.5-2.1,4-2.4c1.5-0.4,3.1,0,4.4,0.9c2.2,1.6,3.3,4.9,3.3,9.7
		c0.1,13.4-0.5,26.9-1.9,40.2c-1.9,17.1,0.4,58.6,4.2,61.4c0.8,0.6,1,1.7,0.4,2.5c-0.5,0.8-1.6,1-2.4,0.5
		c-6.8-4.6-7.1-53.3-5.8-64.8c1.4-13.2,2-26.5,1.8-39.8c0-4.7-1.1-6.2-1.8-6.7c-0.4-0.3-0.9-0.4-1.4-0.3c0,0-0.1,0-0.2,0
		c-5.3,0.9-7.8,17.1-7.8,28.2c0,1-0.8,1.8-1.8,1.8h0c-1,0-1.8-0.8-1.8-1.8c-0.2-10.6,2.6-26.6,2.7-27.3c3.3-18.8,2.3-25,0.8-26.9
		c-0.5-0.6-1.2-0.9-1.9-0.9c-2.5-0.3-5.2,0-8,5.8c-1.4,2.9-2.2,15.1-2.6,27.7c-0.1,10.4-0.2,18.9-0.2,19c0,1-0.8,1.8-1.8,1.8h0
		c-1,0-1.8-0.8-1.8-1.8c0-1.9,0-10,0.2-19.2c0.1-10,0.1-21.7-0.2-29.2c-0.3-7.1-2.2-10.2-3.7-11.6c-0.8-0.8-1.8-1.2-2.8-1.2
		c-0.1,0-0.1,0-0.2,0h0c-1.1,0-2.1,0.4-2.9,1.2c-3.7,3.7-3.8,16.3-3.5,26.8c0.3,12.4,0.3,24.3,0.3,24.4c0,1-0.8,1.8-1.8,1.8
		c-0.7,0-1.4-0.4-1.6-1.1c-2.4-5.3-7.1-9.3-12.7-10.7c-11.3-2.2-25.9,7.2-26,7.3c-0.1,0.1-0.2,0.1-0.3,0.1c-0.1,0-8.9,4.1-7.9,11.2
		c0.2,1.6,0.8,3.6,2.1,4.3c0.9,0.4,2,0.4,3,0.1c20.8-14.7,34-4.9,38.3-1.7l0.2,0.2c3.2,2.3,3.3,9,1.6,14
		c-2.2,6.4-6.8,10.1-12.7,10.1h-0.2c-9.6-0.1-13.5-5.7-17-10.6c-1.2-1.9-2.7-3.7-4.3-5.3c-1.6-1.4-2.9-2-4-1.8
		c-0.8,0.2-1.4,0.7-1.9,1.4c-4.9,8.5,13.6,29.5,21.1,36.9c0.1,0.1,0.1,0.1,0.2,0.2c0.3,0.4,8.5,11,11.8,18.1
		c3.3,7.1,7.2,34.2,7.4,35.4c0.1,1-0.5,1.9-1.5,2c0,0,0,0,0,0C134.5,197.4,134.4,197.4,134.3,197.4 M99.7,100.1
		c1.5,0.5,2.9,1.4,4.1,2.5c1.8,1.8,3.4,3.7,4.8,5.9c3.2,4.6,6.3,9,14.1,9.1h0.1c5.9,0,8.4-4.8,9.3-7.6c1.6-4.7,0.8-9.1-0.4-10
		l-0.2-0.2C127.6,96.8,117.1,89,99.7,100.1"/>
	<path id="Path_223" d="M130,172.5c-0.9,0-1.6-0.7-1.6-1.6c0-0.8,0.6-1.5,1.5-1.6c0.1,0,14.2-1.2,31.1-9.6
		c0.6-0.3,14.7-6.8,19.9-7.7c0.8-0.2,1.7,0.4,1.8,1.2s-0.4,1.7-1.2,1.8c0,0,0,0,0,0c-4.8,0.9-19,7.4-19.1,7.5
		c-17.5,8.7-31.6,9.8-32.2,9.9C130,172.5,130,172.5,130,172.5"/>
	<path id="Path_224" d="M132.6,182.3c-0.9,0-1.6-0.7-1.6-1.6c0-0.8,0.6-1.5,1.4-1.5c0.1,0,12.1-1.2,29.1-9.6
		c0.6-0.3,14.7-6.8,19.9-7.7c0.8-0.2,1.7,0.4,1.9,1.2c0.2,0.8-0.4,1.7-1.2,1.9c0,0-0.1,0-0.1,0c-4.8,0.9-19,7.4-19.1,7.5
		c-17.5,8.7-29.6,9.8-30.1,9.9C132.6,182.3,132.6,182.3,132.6,182.3"/>
	<path id="Path_225" class="st2" d="M179,167.4c0,8.1-5.3,14.7-13.4,14.7s-15.3-7.2-15.3-15.3s7.4-15.3,15.5-15.3
		C173.9,151.4,179,159.3,179,167.4"/>
	<path id="Path_226" d="M163.8,170.2l-5.2-9.2c-0.4-0.7-0.2-1.7,0.5-2.1c0.7-0.4,1.7-0.2,2.1,0.5c0,0,0,0,0,0.1l3.7,6.5l3.6-2
		c0.8-0.4,1.7-0.2,2.1,0.6c0.4,0.8,0.2,1.7-0.6,2.1L163.8,170.2z"/>
</g>
</svg>
