<?xml version="1.0" encoding="utf-8"?>
<!-- Generator: Adobe Illustrator 27.7.0, SVG Export Plug-In . SVG Version: 6.00 Build 0)  -->
<svg version="1.1" id="Layer_1" xmlns="http://www.w3.org/2000/svg" xmlns:xlink="http://www.w3.org/1999/xlink" x="0px" y="0px"
	 viewBox="0 0 308 260" style="enable-background:new 0 0 308 260;" xml:space="preserve">
<style type="text/css">
	.st0{fill:none;}
	.st1{fill:#EA3F33;}
	.st2{fill:#3F83F5;}
</style>
<rect x="0" class="st0" width="308" height="260"/>
<g>
	<rect id="Rectangle_79" x="38.3" y="34" class="st1" width="114.9" height="114.9"/>
	<g id="Group_58">
		<path id="Path_227" class="st2" d="M192.3,111.2h9.8c5.3,0,9.6,4.3,9.6,9.6c0,0,0,0,0,0v9.8c0,5.3-4.3,9.6-9.6,9.6c0,0,0,0,0,0
			h-9.8c-5.3,0-9.6-4.3-9.6-9.6l0,0v-9.8C182.7,115.5,187,111.2,192.3,111.2L192.3,111.2"/>
		<path id="Path_228" d="M163.6,226c-4.3,0-8.8-0.1-13.5-0.3c-6.1-0.2-12.5-0.3-19.5-0.2c-18.7,0.2-64.3-1.6-84.7-22.4
			c-1.3-1.3-1.3-3.4,0.1-4.7c0.7-0.7,1.7-1,2.7-0.9c1,0.1,105.7,10.1,195.2-3.4c1.8-0.3,3.5,1,3.8,2.8c0.1,0.4,0,0.9-0.1,1.3
			C247.2,199.3,240,226,163.6,226 M136,218.8c5.1,0,9.8,0.1,14.4,0.3c58.7,2.2,79.7-10.1,87-17.4c-71.2,9.7-149.9,5.4-178.4,3.3
			c21.1,12.8,56,14,71.5,13.9C132.4,218.8,134.2,218.8,136,218.8"/>
		<path id="Path_229" d="M139.4,207.8c-0.9,0-1.7-0.3-2.3-0.9c-0.3-0.3-8.9-8.5-40.7-44c-32.9-36.7-26.2-62.4-25.9-63.4
			c0.4-1.4,1.7-2.4,3.2-2.4h0.1c17.2,0.3,158.1-3.4,159.5-3.4c1.8,0,3.4,1.4,3.4,3.2c0,0.1,0,0.1,0,0.2
			c-2.3,67.8-61.1,107.9-63.6,109.5c-0.5,0.4-1.1,0.5-1.8,0.6L139.4,207.8L139.4,207.8 M76.6,103.7c-0.6,6.8,0.2,27.3,24.8,54.7
			c25.9,28.8,36.4,39.6,39.4,42.6l29.4-0.6c6.8-4.9,55.8-41.9,59.7-100.1C208.2,100.9,100.5,103.7,76.6,103.7"/>
		<path id="Path_230" d="M206.2,172.7c-1.8,0-3.3-1.5-3.3-3.3c0-0.7,0.2-1.3,0.6-1.9c5.3-7.7,15.7-12,26.6-16.5
			c12.9-5.4,26.3-10.9,30.9-22c3.2-7.7,3.5-13.8,1-17.7c-2.4-3.6-7-4.9-10.3-5c-6.3,0-15,6.6-17.8,9.2c-1.4,1.2-3.5,1.1-4.7-0.3
			c-1.2-1.4-1.1-3.4,0.2-4.6c1.2-1.1,12.4-10.9,22.2-10.9h0.1c5.1,0,11.9,2.1,15.8,7.9c3.9,5.9,3.8,14-0.4,24
			c-5.7,13.7-21,20-34.5,25.6c-10,4.2-19.5,8.1-23.7,14.2C208.4,172.2,207.3,172.7,206.2,172.7"/>
		<path id="Path_231" d="M153,88.4c-0.8,0-1.6,0-2.5-0.1c-7.9-0.5-18.7-1.3-19.5-14c-0.5-5.7,3.2-10.9,8.7-12.4
			c5.1-1.4,10.2,0.6,12.4,4.8c2.7,5.1,1,8.1-0.3,9.4c-2.4,2.5-6.4,2.6-9.1,1.4c-1.7-0.8-2.4-2.7-1.7-4.4c0.8-1.7,2.7-2.4,4.4-1.7
			c0.4,0.2,0.9,0.2,1.3,0.1c-0.1-0.6-0.3-1.2-0.6-1.7c-0.9-1.7-3-1.9-4.7-1.5c-2.5,0.6-4.1,3-3.8,5.6c0.4,6.3,4.1,7.2,13.3,7.8
			c2.2,0.2,13.5,0.5,14.4-7.3c0.5-3.8-1.4-6.2-4.8-10c-1.8-2-3.5-4.1-4.9-6.4c-2.1-3.6-1.8-6.4-1.1-8.1c1.6-4.2,6.3-5.8,6.8-5.9
			c1.8-0.5,3.6,0.4,4.2,2.2c0.5,1.8-0.4,3.6-2.2,4.2l0,0c-0.7,0.2-2.3,1-2.6,2c-0.1,0.8,0.1,1.7,0.6,2.3c1.2,1.9,2.6,3.7,4.2,5.4
			c3.4,3.9,7.3,8.3,6.4,15.3C171.1,83.4,163.7,88.4,153,88.4"/>
	</g>
</g>
</svg>
