<?xml version="1.0" encoding="utf-8"?>
<!-- Generator: Adobe Illustrator 27.7.0, SVG Export Plug-In . SVG Version: 6.00 Build 0)  -->
<svg version="1.1" id="Layer_1" xmlns="http://www.w3.org/2000/svg" xmlns:xlink="http://www.w3.org/1999/xlink" x="0px" y="0px"
	 viewBox="0 0 308 260" style="enable-background:new 0 0 308 260;" xml:space="preserve">
<style type="text/css">
	.st0{fill:none;}
	.st1{fill:#3F83F5;}
	.st2{fill:#EA3F33;}
</style>
<rect class="st0" width="308" height="260"/>
<g id="Group_51" transform="translate(0 0)">
	<path id="Path_205" class="st1" d="M185.6,199.6C153,233.6,99,234.9,64.9,202.3s-35.3-86.6-2.7-120.6c0.7-0.8,1.5-1.5,2.3-2.3
		L185.6,199.6z"/>
	<path id="Path_206" d="M130,190.3c-27.4,0-49.6-22.2-49.6-49.6c0-27.4,22.2-49.6,49.6-49.6c27.4,0,49.6,22.2,49.6,49.6c0,0,0,0,0,0
		C179.7,168,157.4,190.2,130,190.3 M133,160.4c-0.4,0-0.7,0.3-0.7,0.7c0,0,0,0,0,0v23.6c0,0.4,0.3,0.7,0.7,0.7l0,0
		c0.1,0,0.1,0,0.2,0c7.6-1.7,14.5-9.8,18.5-21.6c0.1-0.4-0.1-0.8-0.4-0.9c0,0,0,0-0.1,0C145.2,161.4,139.2,160.5,133,160.4
		L133,160.4 M127.1,160.4c-6.1,0.2-12.2,1-18.2,2.5c-0.4,0.1-0.6,0.5-0.5,0.9c0,0,0,0,0,0.1c4.1,11.8,11,19.9,18.5,21.6
		c0.1,0,0.1,0,0.2,0c0.4,0,0.7-0.3,0.7-0.7l0,0v-23.6C127.8,160.7,127.5,160.4,127.1,160.4L127.1,160.4 M103.3,164.6
		c-0.1,0-0.2,0-0.2,0c-2.7,0.9-5.2,2.1-7.7,3.5c-0.3,0.2-0.5,0.6-0.3,1c0,0,0,0.1,0.1,0.1c4.4,5.3,9.9,9.6,16.1,12.4
		c0.4,0.2,0.8,0,0.9-0.4c0.1-0.2,0.1-0.5-0.1-0.7c-3.6-4.6-6.4-9.9-8.2-15.5C103.9,164.8,103.6,164.6,103.3,164.6 M156.8,164.6
		c-0.3,0-0.6,0.2-0.7,0.5c-1.8,5.6-4.5,10.9-8.2,15.5c-0.2,0.3-0.2,0.8,0.1,1c0.2,0.2,0.5,0.2,0.7,0.1c6.2-2.9,11.8-7.1,16.1-12.4
		c0.3-0.3,0.2-0.8-0.1-1c0,0-0.1,0-0.1-0.1c-2.5-1.4-5-2.6-7.7-3.5C157,164.6,156.9,164.6,156.8,164.6 M160.5,142.9
		c-0.4,0-0.7,0.3-0.7,0.7c-0.2,5.4-0.9,10.7-2.1,15.9c-0.1,0.4,0.1,0.7,0.5,0.8c3.2,1.1,6.3,2.6,9.3,4.3c0.3,0.2,0.8,0.1,1-0.2
		c3.9-6.3,6.2-13.4,6.7-20.7c0-0.4-0.3-0.7-0.7-0.8c0,0,0,0,0,0L160.5,142.9z M85.7,142.9c-0.4,0-0.7,0.3-0.7,0.7c0,0,0,0,0,0
		c0.5,7.4,2.8,14.5,6.7,20.7c0.2,0.3,0.6,0.4,1,0.2c3-1.7,6.1-3.2,9.3-4.3c0.3-0.1,0.5-0.5,0.5-0.8c-1.2-5.2-1.9-10.6-2.1-15.9
		c0-0.4-0.3-0.7-0.7-0.7L85.7,142.9z M105.5,142.9c-0.4,0-0.7,0.3-0.7,0.7c0,0,0,0,0,0c0.2,4.9,0.8,9.7,2,14.5
		c0.1,0.3,0.4,0.5,0.7,0.5c0.1,0,0.1,0,0.2,0c6.4-1.6,12.9-2.5,19.5-2.7c0.4,0,0.7-0.3,0.7-0.7v-11.6c0-0.4-0.3-0.7-0.7-0.7
		L105.5,142.9z M133,142.9c-0.4,0-0.7,0.3-0.7,0.7c0,0,0,0,0,0v11.6c0,0.4,0.3,0.7,0.7,0.7c6.6,0.2,13.1,1.1,19.5,2.7
		c0.1,0,0.1,0,0.2,0c0.3,0,0.6-0.2,0.7-0.5c1.1-4.7,1.8-9.6,2-14.5c0-0.4-0.3-0.7-0.7-0.7c0,0,0,0,0,0L133,142.9z M167.8,116.5
		c-0.1,0-0.3,0-0.4,0.1c-3,1.7-6.1,3.2-9.3,4.3c-0.3,0.1-0.5,0.5-0.5,0.8c1.2,5.2,2,10.6,2.1,15.9c0,0.4,0.3,0.7,0.7,0.7h13.8
		c0.4,0,0.7-0.3,0.7-0.7c0,0,0,0,0,0c-0.5-7.4-2.8-14.5-6.7-20.7C168.3,116.7,168.1,116.5,167.8,116.5 M152.7,122.6
		c-0.1,0-0.1,0-0.2,0c-6.4,1.6-12.9,2.5-19.5,2.7c-0.4,0-0.7,0.3-0.7,0.7v11.6c0,0.4,0.3,0.7,0.7,0.7c0,0,0,0,0,0h21.6
		c0.4,0,0.7-0.3,0.7-0.7c0,0,0,0,0,0c-0.2-4.9-0.8-9.7-2-14.5C153.3,122.9,153,122.6,152.7,122.6 M107.4,122.6
		c-0.3,0-0.6,0.2-0.7,0.5c-1.1,4.7-1.8,9.6-2,14.5c0,0.4,0.3,0.7,0.7,0.7c0,0,0,0,0,0h21.6c0.4,0,0.7-0.3,0.7-0.7v-11.6
		c0-0.4-0.3-0.7-0.7-0.7c-6.6-0.2-13.1-1.1-19.5-2.7C107.5,122.6,107.5,122.6,107.4,122.6 M92.2,116.5c-0.2,0-0.5,0.1-0.6,0.3
		c-3.9,6.3-6.2,13.4-6.7,20.7c0,0.4,0.3,0.7,0.7,0.8c0,0,0,0,0,0h13.8c0.4,0,0.7-0.3,0.7-0.7c0.2-5.4,0.9-10.7,2.1-15.9
		c0.1-0.4-0.1-0.7-0.5-0.8c-3.2-1.1-6.3-2.5-9.3-4.3C92.5,116.6,92.4,116.6,92.2,116.5 M133,95.8c-0.4,0-0.7,0.3-0.7,0.7
		c0,0,0,0,0,0v23.6c0,0.4,0.3,0.7,0.7,0.7c0,0,0,0,0,0h0c6.1-0.2,12.2-1,18.2-2.5c0.4-0.1,0.6-0.5,0.5-0.9c0,0,0,0,0-0.1
		c-4.1-11.8-11-19.9-18.5-21.6C133.1,95.8,133.1,95.8,133,95.8 M127.1,95.8c-0.1,0-0.1,0-0.2,0c-7.6,1.7-14.5,9.8-18.5,21.6
		c-0.1,0.4,0.1,0.8,0.4,0.9c0,0,0,0,0.1,0c5.9,1.5,12,2.3,18.2,2.5h0c0.4,0,0.7-0.3,0.7-0.7V96.5C127.8,96.1,127.5,95.8,127.1,95.8
		C127.1,95.8,127.1,95.8,127.1,95.8 M148.5,99.5c-0.4,0-0.7,0.3-0.7,0.7c0,0.2,0.1,0.3,0.2,0.5c3.6,4.6,6.4,9.9,8.2,15.5
		c0.1,0.3,0.4,0.5,0.7,0.5c0.1,0,0.2,0,0.2,0c2.7-1,5.2-2.1,7.7-3.5c0.3-0.2,0.5-0.6,0.3-1c0,0,0-0.1-0.1-0.1
		c-4.4-5.3-9.9-9.6-16.1-12.4C148.7,99.5,148.6,99.5,148.5,99.5 M111.6,99.5c-0.1,0-0.2,0-0.3,0.1c-6.2,2.9-11.8,7.1-16.1,12.4
		c-0.3,0.3-0.2,0.8,0.1,1c0,0,0.1,0,0.1,0.1c2.5,1.4,5,2.6,7.7,3.5c0.1,0,0.2,0,0.2,0c0.3,0,0.6-0.2,0.7-0.5
		c1.8-5.6,4.5-10.9,8.2-15.5c0.2-0.3,0.2-0.8-0.1-1C111.9,99.5,111.8,99.5,111.6,99.5"/>
	<path id="Path_207" class="st2" d="M176.2,100.6l9.4-10.8c0,0,3-2.7-3-4.8c-5.5-1.9-15.2-24.8-1.6-38.7s30.1-15.2,61.5-8
		s28.9,32.9,24.4,39.4c-3.3,4.7-10,18.5-52.8,13.3c0,0-16.8-2-33,10.6c-1.1,0.9-2.4,1.6-3.7,2.2
		C175.3,104.5,173.5,104.5,176.2,100.6"/>
	<path id="Path_208" d="M223.4,80.7c-0.9,0-1.8-0.1-2.7-0.2c-9.2-0.9-16-8.9-15.4-18.1c0.2-1.8,0.9-7.3,5-10.5
		c2.5-1.9,5.7-2.7,9.7-2.3c1.7-0.8,6.6-2.8,10.6-1.8c3,0.8,4.1,2.3,4.6,3.5c0.6,1.7,0.3,3.6-0.7,5c-0.2,0.3-0.4,0.5-0.7,0.7
		c-0.4,0.2-4.3,2.5-2.5,6.3c0.1,0.1,0.1,0.3,0.1,0.4c0.5,2.3,2.6,4,5,3.9c0.6,0,1.2,0.3,1.6,0.7c0.4,0.5,0.5,1.1,0.3,1.7
		C236.2,76.5,230.2,80.8,223.4,80.7 M218.1,53.3c-1.9-0.1-3.8,0.5-5.4,1.6c-2.6,2-3.3,5.5-3.6,7.9c-0.4,7.1,5,13.3,12.1,13.9
		c7.3,1,10.9-3.1,12.5-5.7c-2.9-0.9-5.2-3.3-5.9-6.3c-2.3-5.2,1.2-9.1,3.8-10.7c0.2-0.4,0.3-0.8,0.2-1.2c-0.2-0.5-0.9-0.9-2-1.2
		c-2.8-0.7-7,1-8.5,1.7c-0.3,0.2-0.7,0.2-1.1,0.2C219.5,53.4,218.8,53.3,218.1,53.3"/>
	<path id="Path_209" d="M220.7,51.4h-1.3c-0.5,0-0.8-0.4-0.8-0.8V44c0-0.5,0.4-0.8,0.8-0.8h1.3c0.5,0,0.8,0.4,0.8,0.8c0,0,0,0,0,0
		v6.5C221.5,51,221.1,51.4,220.7,51.4"/>
</g>
</svg>
