<svg xmlns="http://www.w3.org/2000/svg" width="385.47" height="379.024" viewBox="0 0 385.47 379.024">
  <path id="Path_152" data-name="Path 152" d="M465.865,506.863a28.239,28.239,0,0,0-3.191,1.249c-1.218.634-2.413,1.321-3.6,2.01-2.264,1.313-4.473,2.713-6.649,4.166-4.64,3.1-9.13,6.425-13.468,9.932a240.962,240.962,0,0,0-25.579,24.031c-7.22,7.829-14.175,16.1-19.777,25.187a167.535,167.535,0,0,0-13.674,28.837c-7.5,19.832-12.845,40.616-23,59.351a113.462,113.462,0,0,1-8.508,13.467,121.411,121.411,0,0,1-11.049,12.655A162.543,162.543,0,0,1,312.7,708.441c-17.231,11.7-36.515,19.391-55.975,26.512-2.52.922-5,1.867-7.457,2.938-.7.305-.188,1.358.5,1.194a152.008,152.008,0,0,0,15.734-4.934q7.433-2.641,14.7-5.69a201.74,201.74,0,0,0,27.288-13.8,163.015,163.015,0,0,0,24.979-18.864c8.179-7.51,15.794-15.716,21.82-25.074,11.521-17.891,17.483-38.576,24.3-58.537a226.024,226.024,0,0,1,11.993-29.61,137.933,137.933,0,0,1,17.866-26.342,238.743,238.743,0,0,1,24.168-24.655,197.106,197.106,0,0,1,27.086-20.361c1.074-.662,2.156-1.312,3.251-1.938,1.063-.608,2.025-1.4,3.041-2.086.157-.107.064-.4-.138-.328" transform="translate(-196.656 -400.406)" fill="#1a1818"/>
  <path id="Path_153" data-name="Path 153" d="M724.66,885.973a43.186,43.186,0,0,0,19.43-10.217,64.386,64.386,0,0,0,13.32-17.8c7.2-13.72,10.883-29.148,12.931-44.42,2.664-19.866,1.965-40.008,3.9-59.943a152.107,152.107,0,0,1,6.5-32.946,131.662,131.662,0,0,1,14.31-29.415,153.683,153.683,0,0,1,18.227-23.155,264.875,264.875,0,0,1,22.151-20.212c1.923-1.612,3.817-3.223,5.649-4.938a.7.7,0,0,0-.838-1.086c-8.466,5.239-16.076,12.174-23.211,19.081a166.425,166.425,0,0,0-19.19,22.014,146.283,146.283,0,0,0-15.484,26.959,128.751,128.751,0,0,0-9.036,32.316,298.774,298.774,0,0,0-2.763,33.2c-.4,10.22-.551,20.477-1.488,30.666-1.385,15.064-4.3,30.283-10.173,44.283a73.889,73.889,0,0,1-11.668,19.578,50.488,50.488,0,0,1-17.454,13.174,39.585,39.585,0,0,1-5.36,1.978.462.462,0,0,0,.245.889" transform="translate(-572.021 -506.964)" fill="#1a1818"/>
  <path id="Path_154" data-name="Path 154" d="M1329.3,187.949c-7.231,3.228-9.043,5.241-9.043,5.241l-70.682,54.9L1274.6,280.31l70.682-54.9s3.471-2,7.412-7.342Z" transform="translate(-987.15 -148.477)" fill="#fff"/>
  <path id="Path_155" data-name="Path 155" d="M1271.462,278a.834.834,0,0,1-.659-.323l-25.026-32.224a.835.835,0,0,1,.147-1.171l70.635-54.86c.382-.385,2.57-2.393,9.261-5.38a.835.835,0,0,1,1,.25l23.4,30.123a.835.835,0,0,1,.012,1.007,28.991,28.991,0,0,1-7.614,7.538l-70.64,54.864a.835.835,0,0,1-.512.175m-23.855-32.911,24,30.906,70.022-54.384a.835.835,0,0,1,.1-.064,26.861,26.861,0,0,0,6.778-6.609l-22.6-29.1c-6.4,2.919-8.154,4.755-8.172,4.774a.933.933,0,0,1-.1.1Zm69.511-55.043h0Z" transform="translate(-984.011 -145.336)" fill="#1a1818"/>
  <path id="Path_156" data-name="Path 156" d="M1350.191,214.842c-7.233,3.228-9.043,5.241-9.043,5.241l-70.682,54.9,16.252,20.928,70.684-54.9s3.471-1.994,7.41-7.342Z" transform="translate(-1003.653 -169.722)" fill="#fff"/>
  <path id="Path_157" data-name="Path 157" d="M1283.578,293.6a.823.823,0,0,1-.1-.006.835.835,0,0,1-.555-.316l-16.252-20.927a.835.835,0,0,1,.147-1.171l70.635-54.861c.382-.386,2.569-2.394,9.261-5.38a.834.834,0,0,1,1,.25l14.621,18.827a.834.834,0,0,1,.013,1.007,28.929,28.929,0,0,1-7.612,7.538l-70.642,54.865a.835.835,0,0,1-.512.175M1268.5,271.986l15.228,19.609,70.025-54.385a.832.832,0,0,1,.1-.065,26.8,26.8,0,0,0,6.776-6.609l-13.828-17.8c-6.4,2.918-8.154,4.755-8.171,4.774a1.006,1.006,0,0,1-.1.1Zm69.511-55.044h0Z" transform="translate(-1000.514 -166.58)" fill="#1a1818"/>
  <path id="Path_158" data-name="Path 158" d="M1628.226,174.545l23.4,30.123c-.117.159.942-1.3,1.6-2.324,4.927-7.7,9.515-26.717,7.655-29.109s-20.723-3.649-30.1.215c-1.945.8-3.431,1.486-2.553,1.094" transform="translate(-1286.076 -135.073)" fill="#ffc800"/>
  <path id="Path_159" data-name="Path 159" d="M1648.465,202.376a.815.815,0,0,1-.482-.155.935.935,0,0,1-.244-.284l-22.973-29.579a.764.764,0,0,1-.434-.164.835.835,0,0,1-.332-.773.818.818,0,0,1,.515-.67h0l.019-.008c.058-.028.117-.055.176-.081.144-.064.352-.156.61-.268.459-.2,1.18-.51,2-.848,6.045-2.492,14.746-2.589,18.2-2.516,5.1.109,11.539.844,12.87,2.56,1.527,1.964-.284,9.942-1.133,13.281-1.36,5.348-3.777,12.567-6.478,16.79-.364.567-.895,1.338-1.578,2.295l-.028.04-.025.035a.859.859,0,0,1-.689.347M1626.4,171.743l22.049,28.389c.382-.548.693-1.007.928-1.373,2.17-3.391,4.571-9.638,6.266-16.3,1.81-7.114,1.927-11.209,1.432-11.845-.531-.685-4.581-1.766-11.587-1.916-6.985-.148-13.54.745-17.532,2.39-.573.236-1.11.464-1.556.655" transform="translate(-1282.937 -131.937)" fill="#1a1818"/>
  <path id="Path_160" data-name="Path 160" d="M1543.137,258.5a16.59,16.59,0,1,0-2.927,23.278,16.587,16.587,0,0,0,2.927-23.278m-22.268,17.294a11.605,11.605,0,1,1,16.284,2.047,11.6,11.6,0,0,1-16.284-2.047" transform="translate(-1195.604 -199.142)" fill="#fff"/>
  <path id="Path_161" data-name="Path 161" d="M1526.923,282.954a17.662,17.662,0,0,1-2.21-.139,17.36,17.36,0,1,1,2.21.139m-.068-33.186a15.8,15.8,0,1,0,2,.126,16,16,0,0,0-2-.126m.058,28.2a12.6,12.6,0,0,1-1.578-.1,12.4,12.4,0,1,1,1.578.1m-.047-23.215a10.771,10.771,0,0,0-8.486,17.379h0a10.771,10.771,0,1,0,9.85-17.294,10.9,10.9,0,0,0-1.364-.086" transform="translate(-1192.456 -195.995)" fill="#1a1818"/>
  <path id="Path_162" data-name="Path 162" d="M1555.9,296.592a11.605,11.605,0,1,1,2.047-16.285,11.6,11.6,0,0,1-2.047,16.285" transform="translate(-1214.35 -217.894)" fill="#fff"/>
  <path id="Path_163" data-name="Path 163" d="M1545.661,296.723a12.637,12.637,0,0,1-1.578-.1,12.4,12.4,0,1,1,1.578.1m-.047-23.215a10.772,10.772,0,1,0,6.628,19.28h0a10.771,10.771,0,0,0-5.264-19.194,10.907,10.907,0,0,0-1.364-.086" transform="translate(-1211.204 -214.749)" fill="#1a1818"/>
  <path id="Path_164" data-name="Path 164" d="M1538.36,298.43l19.3,10.837a11.533,11.533,0,0,0,3.279-5.515l-19.583-11a11.574,11.574,0,0,0-3,5.673" transform="translate(-1215.286 -231.274)" fill="#fff"/>
  <path id="Path_165" data-name="Path 165" d="M1554.521,306.963a.834.834,0,0,1-.409-.107l-19.3-10.837a.835.835,0,0,1-.408-.9,12.407,12.407,0,0,1,3.214-6.082.835.835,0,0,1,1.009-.148l19.583,11a.835.835,0,0,1,.4.939,12.377,12.377,0,0,1-3.516,5.913.835.835,0,0,1-.571.225m-18.343-12.091,18.2,10.221a10.71,10.71,0,0,0,2.432-4.077l-18.425-10.345a10.73,10.73,0,0,0-2.21,4.2" transform="translate(-1212.146 -228.135)" fill="#1a1818"/>
  <path id="Path_166" data-name="Path 166" d="M1176.433,522.68l6.626,8.53c-8.84,14.1-22.785,11.66-22.785,11.66.57-16.328,16.158-20.19,16.158-20.19" transform="translate(-916.604 -412.91)" fill="#fff"/>
  <path id="Path_167" data-name="Path 167" d="M1159.579,540.729a16.27,16.27,0,0,1-2.589-.176.835.835,0,0,1-.69-.851,21.388,21.388,0,0,1,8.623-16.854,24.8,24.8,0,0,1,8.169-4.117.835.835,0,0,1,.86.3l6.626,8.53a.834.834,0,0,1,.048.955A24.986,24.986,0,0,1,1165.415,540a24.126,24.126,0,0,1-5.835.73m-1.572-1.737a21.937,21.937,0,0,0,7.074-.631,23.047,23.047,0,0,0,13.818-10.244l-5.917-7.616a24.246,24.246,0,0,0-7.1,3.714,19.428,19.428,0,0,0-7.875,14.777" transform="translate(-913.463 -409.771)" fill="#1a1818"/>
  <path id="Path_168" data-name="Path 168" d="M1202.35,534.889l-4.547-5.855c-3.881,2.339-9.867,7-11.791,14.309,0,0,8.247-.393,16.338-8.454" transform="translate(-936.936 -417.93)" fill="#ffc800"/>
  <path id="Path_169" data-name="Path 169" d="M1182.874,541.036a.835.835,0,0,1-.807-1.047c2.035-7.734,8.5-12.6,12.167-14.811a.834.834,0,0,1,1.09.2l4.547,5.855a.834.834,0,0,1-.07,1.1c-8.224,8.194-16.537,8.68-16.887,8.7h-.04M1194.465,527c-3.3,2.1-8.347,6.137-10.419,12.208a27.974,27.974,0,0,0,14.049-7.534Z" transform="translate(-933.797 -414.789)" fill="#1a1818"/>
  <path id="Path_170" data-name="Path 170" d="M1241.163,522.2l-8.228-10.593,2.468-1.477,7.8,10.044Z" transform="translate(-974.005 -402.997)" fill="#fff"/>
  <path id="Path_171" data-name="Path 171" d="M1238.024,519.9l-.054,0a.835.835,0,0,1-.605-.321l-8.227-10.593a.835.835,0,0,1,.23-1.228l2.468-1.477a.835.835,0,0,1,1.088.2l7.8,10.044a.835.835,0,0,1-.071,1.1l-2.041,2.026a.836.836,0,0,1-.588.242m-6.99-11.2,7.071,9.1.847-.842-6.894-8.877Z" transform="translate(-970.865 -399.857)" fill="#1a1818"/>
  <path id="Path_172" data-name="Path 172" d="M1251.237,507.709l3.42-2.655a1.1,1.1,0,0,0,.194-1.539l-7.363-9.481a1.094,1.094,0,0,0-1.537-.192l-3.42,2.656Z" transform="translate(-981.585 -389.946)" fill="#fff"/>
  <path id="Path_173" data-name="Path 173" d="M1248.1,505.4a.833.833,0,0,1-.66-.323l-8.706-11.211a.835.835,0,0,1,.147-1.171l3.42-2.656a1.929,1.929,0,0,1,2.708.339l7.363,9.481a1.931,1.931,0,0,1-.341,2.71l-3.421,2.655a.829.829,0,0,1-.511.175m-7.536-11.9,7.682,9.893,2.761-2.143a.264.264,0,0,0,.1-.177.252.252,0,0,0-.052-.19l-7.365-9.482a.26.26,0,0,0-.365-.046Z" transform="translate(-978.445 -386.805)" fill="#1a1818"/>
  <path id="Path_174" data-name="Path 174" d="M1227,587.784l6.624,8.529c-8.836,14.1-22.781,11.663-22.781,11.663.57-16.328,16.157-20.191,16.157-20.191" transform="translate(-956.554 -464.342)" fill="#fff"/>
  <path id="Path_175" data-name="Path 175" d="M1210.15,605.835a16.281,16.281,0,0,1-2.588-.176.835.835,0,0,1-.69-.851,21.39,21.39,0,0,1,8.622-16.855,24.788,24.788,0,0,1,8.167-4.117.835.835,0,0,1,.86.3l6.624,8.529a.835.835,0,0,1,.048.955,24.977,24.977,0,0,1-15.208,11.487,24.119,24.119,0,0,1-5.836.731m-1.572-1.737a21.932,21.932,0,0,0,7.073-.631,23.038,23.038,0,0,0,13.814-10.246l-5.915-7.615a24.241,24.241,0,0,0-7.1,3.715,19.431,19.431,0,0,0-7.874,14.778" transform="translate(-953.414 -461.203)" fill="#1a1818"/>
  <path id="Path_176" data-name="Path 176" d="M1252.92,599.991l-4.547-5.854c-3.881,2.339-9.869,7-11.788,14.308,0,0,8.247-.391,16.335-8.454" transform="translate(-976.888 -469.36)" fill="#ffc800"/>
  <path id="Path_177" data-name="Path 177" d="M1233.445,606.139a.835.835,0,0,1-.807-1.047c2.031-7.732,8.493-12.6,12.165-14.81a.834.834,0,0,1,1.09.2l4.547,5.854a.834.834,0,0,1-.07,1.1c-8.222,8.2-16.535,8.68-16.885,8.7h-.04m11.589-14.038c-3.3,2.1-8.348,6.138-10.418,12.207a27.95,27.95,0,0,0,14.047-7.534Z" transform="translate(-973.748 -466.22)" fill="#1a1818"/>
  <path id="Path_178" data-name="Path 178" d="M1291.724,587.3l-8.228-10.594,2.468-1.476,7.8,10.044Z" transform="translate(-1013.947 -454.428)" fill="#fff"/>
  <path id="Path_179" data-name="Path 179" d="M1288.585,585l-.054,0a.835.835,0,0,1-.605-.321l-8.227-10.594a.835.835,0,0,1,.231-1.228l2.468-1.476a.835.835,0,0,1,1.088.2l7.8,10.044a.835.835,0,0,1-.071,1.1l-2.041,2.026a.835.835,0,0,1-.588.242m-6.99-11.2,7.071,9.105.848-.841-6.894-8.877Z" transform="translate(-1010.808 -451.289)" fill="#1a1818"/>
  <path id="Path_180" data-name="Path 180" d="M1301.8,572.811l3.422-2.656a1.1,1.1,0,0,0,.192-1.538l-7.361-9.479a1.1,1.1,0,0,0-1.539-.193l-3.42,2.655Z" transform="translate(-1021.529 -441.376)" fill="#fff"/>
  <path id="Path_181" data-name="Path 181" d="M1298.661,570.507a.833.833,0,0,1-.66-.323l-8.706-11.212a.835.835,0,0,1,.147-1.171l3.42-2.654a1.931,1.931,0,0,1,2.709.339l7.362,9.481a1.937,1.937,0,0,1-.338,2.708l-3.424,2.657a.829.829,0,0,1-.511.175m-7.535-11.9,7.682,9.894,2.763-2.144a.263.263,0,0,0,.044-.367l-7.36-9.479a.264.264,0,0,0-.176-.1.253.253,0,0,0-.189.052Z" transform="translate(-1018.39 -438.237)" fill="#1a1818"/>
  <path id="Path_182" data-name="Path 182" d="M1246.961,323.2l-37.406-3.266c-11.261-1.024-14.254,7.086-5.95,17.832l9.227,11.94Z" transform="translate(-947.089 -252.676)" fill="#fff"/>
  <path id="Path_183" data-name="Path 183" d="M1209.692,347.408a.8.8,0,0,1-.105-.007.833.833,0,0,1-.555-.318l-9.227-11.94c-4.589-5.939-6.053-11.473-4.018-15.183,1.673-3.049,5.474-4.464,10.7-3.991l37.4,3.266a.835.835,0,0,1,.439,1.491L1210.2,347.233a.835.835,0,0,1-.512.175m-5.129-29.859c-3.6,0-6.161,1.116-7.312,3.215-1.677,3.055-.228,8.05,3.875,13.359l8.715,11.278,31.788-24.687-35.286-3.081q-.927-.084-1.78-.084" transform="translate(-943.948 -249.541)" fill="#1a1818"/>
  <path id="Path_184" data-name="Path 184" d="M1249.487,341.5l-32.424-2.831c-9.807-.892-12.414,6.172-5.181,15.531l7.971,10.315Z" transform="translate(-954.11 -267.486)" fill="#fff"/>
  <path id="Path_185" data-name="Path 185" d="M1216.717,362.217a.8.8,0,0,1-.1-.007.833.833,0,0,1-.556-.318l-7.971-10.315c-4.024-5.207-5.3-10.07-3.509-13.342,1.479-2.7,4.827-3.948,9.426-3.531l32.42,2.83a.835.835,0,0,1,.439,1.491l-29.634,23.016a.835.835,0,0,1-.512.175m-4.406-25.922c-3.089,0-5.289.952-6.272,2.744-1.439,2.623-.181,6.929,3.366,11.518l7.46,9.653,27.292-21.2-30.3-2.645q-.8-.073-1.543-.073" transform="translate(-950.974 -264.35)" fill="#1a1818"/>
  <path id="Path_186" data-name="Path 186" d="M1418.9,489.552l-6.095,37.051c-1.8,11.165-10.392,12.056-18.75,1.351l-9.284-11.9Z" transform="translate(-1093.955 -386.739)" fill="#fff"/>
  <path id="Path_187" data-name="Path 187" d="M1402.22,533.2c-3.723,0-7.982-2.775-11.96-7.869l-9.284-11.9a.835.835,0,0,1,.146-1.173l34.129-26.506a.835.835,0,0,1,1.335.795l-6.1,37.051c-.833,5.182-3.147,8.514-6.514,9.38a7.037,7.037,0,0,1-1.757.219m-19.413-20.133,8.77,11.237c4.13,5.29,8.611,7.929,11.985,7.061,2.685-.691,4.561-3.543,5.283-8.031l5.75-34.954Z" transform="translate(-1090.815 -383.6)" fill="#1a1818"/>
  <path id="Path_188" data-name="Path 188" d="M1414.407,506.177l-5.281,32.116c-1.565,9.722-9.052,10.5-16.331,1.175l-8.021-10.277Z" transform="translate(-1093.955 -399.873)" fill="#fff"/>
  <path id="Path_189" data-name="Path 189" d="M1399.5,543.738c-3.278,0-7.018-2.432-10.5-6.9l-8.021-10.277a.835.835,0,0,1,.146-1.173l29.633-23.014a.834.834,0,0,1,1.335.794l-5.281,32.116c-.733,4.557-2.777,7.49-5.754,8.255a6.231,6.231,0,0,1-1.556.194m-16.693-17.54,7.506,9.617c3.569,4.572,7.429,6.857,10.327,6.112,2.295-.59,3.9-3.043,4.523-6.907L1410.1,505Z" transform="translate(-1090.815 -396.734)" fill="#1a1818"/>
  <path id="Path_190" data-name="Path 190" d="M398.081,980.376c1.964.214,3.953.458,5.928.479a50.058,50.058,0,0,0,5.73-.32,77.656,77.656,0,0,0,11.339-2.049,87.122,87.122,0,0,0,21.183-8.708,110.844,110.844,0,0,0,34.27-30.864c9.415-12.839,15.444-27.682,19.837-42.9,4.685-16.232,7.487-32.913,11.56-49.294,4.04-16.247,9.495-32.405,18.372-46.694,1.079-1.736,2.039-3.541,3.14-5.263.161-.253-.232-.475-.4-.233-1.22,1.784-2.32,3.646-3.54,5.431q-1.74,2.545-3.333,5.187a109.2,109.2,0,0,0-5.82,11.022,159.653,159.653,0,0,0-8.272,23.317c-4.492,16.046-7.519,32.452-11.665,48.585-3.952,15.378-9.118,30.722-17.719,44.178a109.985,109.985,0,0,1-31.988,32.532A94.3,94.3,0,0,1,426.2,975a84.581,84.581,0,0,1-22.471,4.4c-1.888.13-3.75.317-5.647.328a.32.32,0,0,0,0,.641" transform="translate(-314.236 -627.585)" fill="#1a1818"/>
  <path id="Path_191" data-name="Path 191" d="M1093.5,670.218a34.347,34.347,0,0,0-2.576,2.382c-.808.891-1.6,1.787-2.38,2.708-1.571,1.867-3.127,3.746-4.653,5.651-1.572,1.963-3.112,3.953-4.6,5.981s-2.849,4.13-4.157,6.265a48.375,48.375,0,0,0-3.73,7.313c-.127.319.37.5.538.227,2.565-4.185,5.188-8.324,8.117-12.267,1.466-1.973,2.913-3.947,4.427-5.869s3.063-3.818,4.627-5.7c.858-1.033,1.691-2.045,2.519-3.1.217-.275.454-.544.655-.831s.357-.566.536-.848l1.038-1.636c.146-.229-.173-.449-.362-.279" transform="translate(-846.379 -529.416)" fill="#1a1818"/>
  <path id="Path_192" data-name="Path 192" d="M1092.029,650.289c-.292.183-.6.3-.88.5s-.585.42-.869.642a11.966,11.966,0,0,0-1.5,1.456,24.22,24.22,0,0,0-2.585,3.554,78.783,78.783,0,0,0-4.146,7.968c-.352.753-.706,1.5-1.071,2.25q-.263.538-.534,1.072a9.169,9.169,0,0,0-.492,1.2c-.177.515.587.987.942.548a6.351,6.351,0,0,0,.661-.918q.25-.455.494-.913c.338-.636.667-1.276.993-1.918.675-1.33,1.326-2.67,1.985-4.008s1.33-2.642,2.07-3.922a42.664,42.664,0,0,1,2.35-3.585c.44-.61.94-1.16,1.426-1.77.224-.281.471-.569.719-.84a3.712,3.712,0,0,0,.415-.454,1.91,1.91,0,0,1,.361-.413.283.283,0,0,0-.341-.442" transform="translate(-853.131 -513.688)" fill="#1a1818"/>
  <path id="Path_193" data-name="Path 193" d="M782.512,1248.811a43.881,43.881,0,0,0-.4,5.221q-.146,2.6-.336,5.2-.371,5.036-.946,10.053a165.063,165.063,0,0,1-3.248,19.19,119.206,119.206,0,0,1-5.723,17.986,102.317,102.317,0,0,1-8.987,17.04,144.541,144.541,0,0,1-12.719,16.585c-.609.689-1.222,1.373-1.821,2.07a.179.179,0,0,0,.253.254,80.2,80.2,0,0,0,7.493-7.91,97.478,97.478,0,0,0,6.282-8.271,110.66,110.66,0,0,0,9.429-17.172,116.8,116.8,0,0,0,6.168-17.964A155.951,155.951,0,0,0,781.529,1272c.867-6.8,1.322-13.648,1.6-20.494a18.391,18.391,0,0,0-.039-2.62c-.03-.3-.516-.432-.579-.078" transform="translate(-591.138 -986.377)" fill="#1a1818"/>
  <path id="Path_194" data-name="Path 194" d="M1.639,1599.26c-.038-.175-.069-.351-.1-.527-.026-.145-.01.02.006-.031.011-.036.023-.072.035-.108q.036-.109.074-.216l-.139.239.04-.033a.628.628,0,0,0,.161-.611c-.026-.122.006.163,0,.04,0-.021,0-.042-.005-.063,0-.052-.008-.1-.012-.158q-.01-.157-.015-.315-.01-.313,0-.626.005-.148.015-.3c.007-.1.035-.493,0-.132.014-.161.035-.326.054-.487.01-.083.051-.268-.01.066.011-.059.017-.12.027-.179.032-.2.072-.4.114-.594,0-.02.013-.039.017-.058l.035-.259-.026.2c.011-.049.016-.1.025-.151q.027-.158.06-.315a10.025,10.025,0,0,1,.316-1.168q.1-.293.214-.581c.019-.048.04-.1.059-.144-.139.363-.073.171-.036.087q.066-.15.135-.3a12.137,12.137,0,0,1,.6-1.114c.218-.361.455-.711.705-1.05l.1-.132c.158-.21-.129.164-.048.062.069-.086.137-.173.206-.259q.211-.259.434-.51a18.313,18.313,0,0,1,1.984-1.911q.13-.109.263-.215l.14-.112c.119-.1-.172.132-.151.116.1-.08.2-.158.306-.239l.27-.213c-.39.309-.015.012.082-.06q.591-.442,1.208-.845a26.373,26.373,0,0,1,2.616-1.5q.685-.344,1.389-.65l.179-.077.072-.031c.169-.073-.309.129-.139.059.121-.05.242-.1.363-.149q.365-.147.734-.285a29.922,29.922,0,0,1,6.109-1.572l.177-.025.1-.014c.162-.023-.227.024-.2.027a2.115,2.115,0,0,0,.433-.054q.384-.045.768-.079.775-.069,1.553-.093a24.35,24.35,0,0,1,3.108.1c.248.024.5.054.744.085-.458-.058-.1-.013.072.012q.2.03.4.063.737.125,1.463.3t1.439.415q.353.117.7.25.156.059.311.122l.171.07c.164.067-.3-.129-.175-.074l.119.051a15.6,15.6,0,0,1,2.547,1.4q.3.207.6.429l.059.045c.146.109-.276-.216-.133-.1l.131.1q.152.121.3.246a14.186,14.186,0,0,1,1.076,1.007c.348.361.67.744.983,1.135-.32-.4-.018-.021.063.089s.152.211.226.318q.225.324.432.661a15.564,15.564,0,0,1,.778,1.426q.081.169.159.34l.085.192.042.1c.089.205-.11-.265-.059-.14.109.266.215.532.312.8a23.612,23.612,0,0,1,.946,3.548q.094.489.167.982c.011.075.022.151.033.226.035.243-.039-.314,0-.031.024.19.047.38.067.571.075.707.165,1.412.22,2.122,0,.056.007.113.013.169s.1.493.008.113c.038.153.049.323.085.48s.076.343.112.515a5.653,5.653,0,0,0,.266,1.154l-.075-.278c0,.02,0,.04,0,.06a.551.551,0,1,0,1.1,0l0-.06-.075.278a4.826,4.826,0,0,0,.377-1.209q.068-.256.132-.514c.028-.113.146-.688.047-.272a3.417,3.417,0,0,0,.055-.55,17.623,17.623,0,0,0,.029-2.166,21.355,21.355,0,0,0-.612-4.2,17.854,17.854,0,0,0-3.181-6.479,15.455,15.455,0,0,0-4.809-4.024,18.852,18.852,0,0,0-5.935-1.995,25.512,25.512,0,0,0-6.547-.207,30.9,30.9,0,0,0-6.555,1.351,30.282,30.282,0,0,0-5.982,2.662,21.979,21.979,0,0,0-4.826,3.748,15.632,15.632,0,0,0-3.17,4.774,10.52,10.52,0,0,0-.684,2.394,6.89,6.89,0,0,0-.08,1.447q.008.154.021.308c0,.051.009.1.014.154,0,.021,0,.041,0,.062q.054.419.012.062l.006.046c.05.268.074.541.127.809.081.4.227.79.313,1.191a.621.621,0,0,0,.439.438l.044.011-.239-.139c.056.055.113.11.171.164a.612.612,0,0,0,.083.077c.065.039-.029-.094.017.019.075.184.158.364.244.542.106.218.421.059.375-.158" transform="translate(0 -1247.53)" fill="#1a1818"/>
  <path id="Path_195" data-name="Path 195" d="M158.884,1683.214c.125-.226.252-.452.4-.665.071-.1.144-.2.218-.305-.135.185.057-.075.1-.141s.084-.128.127-.192q.105-.155.215-.307c.034-.047.07-.093.1-.14.061-.088-.072.091-.067.085.08-.1.135-.175.2-.273.142-.216.284-.431.435-.641.067-.093.14-.182.206-.276-.184.262-.056.073-.007.012l.125-.154q.244-.3.5-.577a13.915,13.915,0,0,1,1.108-1.071c.2-.169.4-.331.593-.5q.142-.121.287-.239l.134-.108.09-.071c.113-.092-.231.174-.113.088.418-.309.839-.608,1.282-.88s.884-.516,1.343-.742q.352-.173.712-.33l.08-.035c.176-.077-.141.059-.14.059a1.266,1.266,0,0,1,.161-.066q.189-.076.379-.148a17.005,17.005,0,0,1,3.029-.831q.186-.033.373-.062l.173-.026c.261-.039-.278.034-.082.011.259-.031.519-.06.779-.08q.779-.062,1.562-.048a15.345,15.345,0,0,1,1.552.106c.059.007.281.037.026,0s-.007,0,.054.009q.2.03.4.065.381.067.758.155a13.78,13.78,0,0,1,1.454.425q.175.062.349.129l.186.073c.057.023.289.12.053.02s-.007,0,.051.024l.156.071q.182.084.362.173a12.541,12.541,0,0,1,1.345.779c.218.145.432.3.645.446.1.073.2.149.306.224.17.126-.248-.2-.081-.063l.184.148c.409.336.8.7,1.182,1.063.2.188.38.4.586.582s.435.353.648.535a2.084,2.084,0,0,0,.918.484.56.56,0,0,0,.678-.385,3,3,0,0,0-.426-2.037,4.975,4.975,0,0,0-.462-.678,8.929,8.929,0,0,0-.7-.857,12.054,12.054,0,0,0-2.768-2.171,15.278,15.278,0,0,0-6.591-1.89,17.882,17.882,0,0,0-12.633,4.315,12.712,12.712,0,0,0-2.175,2.6,8.06,8.06,0,0,0-1.305,3.039c-.046.269-.1.536-.137.805a.6.6,0,0,0,.341.7.589.589,0,0,0,.736-.241" transform="translate(-124.658 -1320.832)" fill="#1a1818"/>
  <path id="Path_196" data-name="Path 196" d="M257.111,1643.234a17.373,17.373,0,0,1,1.894-3.207c.105-.141-.122.151.016-.02l.133-.165c.139-.172.267-.352.4-.531l.109-.147c.151-.2-.112.139,0,0,.093-.117.186-.234.283-.349a13.6,13.6,0,0,1,1.154-1.218q.3-.277.611-.536c.1-.086.211-.168.316-.253,0,0-.246.187-.1.079l.069-.052.184-.135c.441-.318.891-.624,1.358-.9a15.154,15.154,0,0,1,1.449-.757c.122-.056.246-.109.369-.163s-.186.077-.16.068l.107-.044.215-.086q.378-.148.764-.278a19.574,19.574,0,0,1,3.278-.789c.123-.019.616-.081.144-.024.141-.017.281-.036.421-.052q.439-.05.88-.083.878-.067,1.759-.073a30.178,30.178,0,0,1,3.589.191q.222.025.444.052l.19.024c.206.026-.156-.021-.157-.021.042,0,.085.011.127.017q.46.065.918.141.9.151,1.8.348c1.191.261,2.363.594,3.535.924.579.163,1.15.354,1.735.491s1.149.275,1.719.427a1.711,1.711,0,0,0,.679.1,1.671,1.671,0,0,0,.554-.211.689.689,0,0,0,.312-.767,1.707,1.707,0,0,0-.164-.451,1.634,1.634,0,0,0-.634-.517q-.386-.225-.777-.44a13.929,13.929,0,0,0-1.882-.878,28.371,28.371,0,0,0-3.586-1.063,35.423,35.423,0,0,0-7.617-.928,24.134,24.134,0,0,0-7.252.984,15.792,15.792,0,0,0-6.221,3.483,14.873,14.873,0,0,0-2.327,2.834,10.067,10.067,0,0,0-.837,1.793,15.116,15.116,0,0,0-.563,1.8c-.08.323-.151.648-.213.975a.543.543,0,0,0,.311.635.533.533,0,0,0,.672-.22" transform="translate(-202.328 -1288.431)" fill="#1a1818"/>
  <path id="Path_197" data-name="Path 197" d="M55.153,1495.174a3.119,3.119,0,0,1,.646-.468,5.292,5.292,0,0,0,.663-.463c.445-.311.906-.6,1.355-.9a20.507,20.507,0,0,1,2.9-1.563c.082-.038-.052.022-.056.023l.108-.045.163-.066q.2-.081.41-.157.386-.141.778-.264.788-.246,1.6-.416.406-.086.815-.152c.137-.022.274-.04.411-.062.093-.015-.065.008-.067.009l.118-.015.236-.028q.829-.093,1.665-.114t1.675.029q.419.025.837.067.209.021.417.047l.179.023c-.189-.024,0,0,.079.012a19.961,19.961,0,0,1,3.262.761q.411.133.817.285.181.068.361.139l.193.078.082.034c.146.06-.1-.045-.007,0,.505.226,1.005.457,1.493.72s.955.544,1.411.849q.341.228.671.472l.164.123c.12.09-.127-.1.038.03.107.085.213.17.318.257a19.868,19.868,0,0,1,2.337,2.306q.123.143.242.289l.127.158.054.068c.055.07-.076-.1.009.012.164.22.324.442.478.669.311.458.609.918.881,1.4.136.242.316.458.474.687.192.278.765.221.716-.194a4.565,4.565,0,0,0-.151-.9c-.089-.269-.2-.533-.306-.794a11.735,11.735,0,0,0-.819-1.613,12.626,12.626,0,0,0-2.213-2.725,18.461,18.461,0,0,0-6.056-3.641,20.662,20.662,0,0,0-6.925-1.276,18.924,18.924,0,0,0-6.9,1.164,14.319,14.319,0,0,0-3.139,1.614,8.414,8.414,0,0,0-1.4,1.12q-.29.313-.562.644a3.565,3.565,0,0,0-.539.744,6.694,6.694,0,0,1-.43.733c-.148.249.179.466.382.295" transform="translate(-43.238 -1176.18)" fill="#1a1818"/>
  <path id="Path_198" data-name="Path 198" d="M169.52,1539.514c.155-.154.334-.273.492-.422s.33-.306.5-.454c.322-.281.618-.521.911-.736.184-.135.364-.273.54-.419q.122-.1.246-.2c.017-.014.133-.1.057-.045s.068-.051.083-.062q.472-.352.973-.661t1-.552c.154-.075.31-.145.466-.216.2-.089-.159.062-.028.011l.116-.047q.13-.052.262-.1a13.33,13.33,0,0,1,2.052-.623c.158-.031.316-.056.476-.081.211-.033-.209.023-.064.009l.119-.014q.134-.015.269-.026a9.412,9.412,0,0,1,1.077-.027q.24.007.479.027.12.01.24.023l.12.014c.223.024-.259-.04-.038-.005.351.055.7.122,1.043.211a10.131,10.131,0,0,1,1.034.329c.079.03.156.061.235.092s.158.09-.077-.034c.037.019.078.034.117.051q.264.116.522.247a13.252,13.252,0,0,1,1.978,1.262l.112.083c.157.115-.125-.1-.021-.017s.187.148.279.224q.267.22.522.452.546.5,1.042,1.041c.348.38.689.771,1.055,1.135.194.193.389.386.577.586a3.8,3.8,0,0,0,.7.55.5.5,0,0,0,.752-.431,3.022,3.022,0,0,0-.2-.874q-.152-.348-.317-.689a7.524,7.524,0,0,0-.889-1.4,15.364,15.364,0,0,0-1.85-1.96,12.2,12.2,0,0,0-4.505-2.529,10.515,10.515,0,0,0-9.055,1.421,12.641,12.641,0,0,0-2.191,1.892,10.268,10.268,0,0,0-.9,1.243q-.21.325-.4.66c-.136.234-.226.482-.348.722a.283.283,0,0,0,.443.341" transform="translate(-133.543 -1210.878)" fill="#1a1818"/>
  <path id="Path_199" data-name="Path 199" d="M231.081,1467.15a4.322,4.322,0,0,0,.4-.788q.134-.385.279-.765.131-.345.271-.686l.076-.184c-.075.181.009-.02.021-.047.081-.186.155-.374.231-.562.041-.1.083-.2.124-.3-.091.22.063-.146.088-.2q.153-.348.315-.691c.213-.45.441-.893.668-1.336a23.459,23.459,0,0,1,1.446-2.437q.2-.293.406-.579.086-.118.173-.236l.105-.14c.181-.24-.123.155,0,0,.277-.353.562-.7.859-1.035.591-.668,1.187-1.325,1.842-1.932q.467-.433.959-.837.128-.1.257-.208l.13-.1c.173-.137-.247.188-.071.055s.35-.264.528-.391a21.192,21.192,0,0,1,2.164-1.361q.571-.313,1.159-.59.27-.127.542-.247c.1-.043.484-.2.055-.025.117-.048.233-.1.351-.143a23.05,23.05,0,0,1,4.922-1.345l.325-.049.163-.023c-.415.061-.24.031-.143.019.227-.029.455-.056.683-.079q.632-.064,1.266-.1a26.387,26.387,0,0,1,2.673,0q.646.033,1.291.1.338.034.674.077l.141.018c.162.02-.365-.051-.142-.019l.394.058q1.331.205,2.637.54,1.325.339,2.613.8c.444.16.882.333,1.318.513.22.091-.306-.131-.088-.037l.163.07.272.12q.353.158.7.325a30.053,30.053,0,0,1,4.892,2.946l.3.224.148.114c-.332-.249-.136-.105-.064-.049q.3.231.586.47c.391.321.761.666,1.151.986s.754.63,1.121.957a13.988,13.988,0,0,0,1.387,1.073c.051.035.1.074.154.107.2.124-.229-.188.062.037.113.087.231.167.347.249q.306.216.607.439a.643.643,0,0,0,.776-.1.664.664,0,0,0,.1-.776q-.172-.349-.352-.694l-.09-.171c-.039-.073-.068-.22-.028,0a1.965,1.965,0,0,0-.266-.528,7.877,7.877,0,0,0-1.048-1.418,20.052,20.052,0,0,0-2.24-2.1,31.958,31.958,0,0,0-5.122-3.409,30.048,30.048,0,0,0-11.162-3.366,25.334,25.334,0,0,0-10.714,1.239,22.742,22.742,0,0,0-9.165,5.921,21.152,21.152,0,0,0-3.294,4.771q-.335.654-.629,1.327c-.076.174-.15.35-.224.525.151-.359-.1.254-.135.346q-.131.352-.252.707a20.347,20.347,0,0,0-.779,3.024q-.071.4-.13.806a3.041,3.041,0,0,0,0,.9.439.439,0,0,0,.811.22" transform="translate(-181.882 -1143.301)" fill="#1a1818"/>
  <path id="Path_200" data-name="Path 200" d="M394.545,1704.741q.172-.043.345-.081l.153-.033c.027-.005.173-.009.085-.019s.047.024.064.03a.822.822,0,0,0,.374,0c.134-.019.118-.018.231-.032a10.606,10.606,0,0,1,1.262-.072c.4,0,.8.007,1.2.041.1.009.208.021.311.032.268.029-.2-.032.064.009.172.027.344.053.518.07.081.008.16.056-.083-.012a1.526,1.526,0,0,0,.167.025,10.562,10.562,0,0,1,2.209.617c.22.086-.214-.1-.069-.029l.12.053q.12.053.238.11.266.128.525.27c.336.186.672.37,1,.579q.221.143.436.3c.081.058.16.117.239.176.04.03.165.124.006,0s-.008,0,.03.026q.465.374.891.793.4.4.772.831.087.1.171.206c.037.045.252.319.11.136s.058.079.084.114q.1.135.2.273a13.446,13.446,0,0,1,1.16,2.021q.057.123.112.248c.018.041.035.084.054.125-.158-.332-.071-.17-.036-.084.076.189.15.38.218.572.133.375.248.755.349,1.14.11.418.22.835.3,1.26q.031.167.059.336c.017.106.051.5.015.079.019.217.049.432.067.649s.041.457.055.686c.006.1.009.206.014.309,0,.047.005.091.009.138a1.873,1.873,0,0,0,.068.429c-.077-.1-.013-.223-.022-.085,0,.067,0,.138,0,.206,0,.115,0,.229.01.344a2.08,2.08,0,0,0,.24.949.8.8,0,0,0,1.247.161,2.211,2.211,0,0,0,.6-1.377l.01-.067q.049-.467.035-.208c0,.026,0,.051,0,.077.014-.043.028-.085.041-.128a3.11,3.11,0,0,0,.067-.507c.02-.217.034-.435.042-.653a12.481,12.481,0,0,0-.267-2.745,13.413,13.413,0,0,0-1.987-4.725,14.085,14.085,0,0,0-3.707-3.844,10.843,10.843,0,0,0-4.849-1.827,8.834,8.834,0,0,0-2.983.137,9.18,9.18,0,0,0-1.387.426,2.19,2.19,0,0,0-.827.412.735.735,0,0,1-.28.187c-.128.062-.255.127-.381.194-.42.221-.126.859.316.749" transform="translate(-311.275 -1345.007)" fill="#1a1818"/>
  <path id="Path_201" data-name="Path 201" d="M508.985,1702.96q.381-.356.783-.689c.121-.1.244-.2.368-.3.139-.11-.113.084.026-.02l.081-.061c.093-.07.187-.138.28-.209s.159-.126.238-.189c.041-.033.271-.207.089-.071.138-.1.274-.207.413-.307q.419-.3.855-.579a25.982,25.982,0,0,1,3.609-1.947l.121-.052c-.307.134-.187.078-.119.051l.242-.1q.243-.1.488-.189c.328-.122.659-.233.991-.341.649-.212,1.3-.405,1.968-.562s1.351-.283,2.034-.381c.253-.036-.331.041-.041.006l.258-.031q.258-.03.517-.053.516-.047,1.034-.069,1-.043,2.005.009.509.026,1.016.078c.151.016.3.034.453.052.312.037-.355-.052-.046-.006l.273.041a18.47,18.47,0,0,1,3.744.983c.143.055.285.113.427.171s-.356-.154-.164-.069l.089.038c.088.039.176.078.264.118q.424.195.836.417a13.719,13.719,0,0,1,1.586,1l.171.127c.205.153-.294-.233-.068-.052.123.1.245.2.365.3q.36.306.7.638t.647.692q.14.162.274.329c.074.092.265.367-.036-.05.047.065.1.127.143.191a12.023,12.023,0,0,1,1.019,1.656c.144.283.273.572.4.863.048.111.171.431-.017-.046.031.08.065.158.1.238q.1.241.18.486c.231.664.376,1.346.56,2.023.2.735.371,1.486.5,2.237.03.177.054.354.081.531a1.472,1.472,0,0,0,.316.637.622.622,0,0,0,.966.124,1.687,1.687,0,0,0,.431-.7c.059-.266.082-.55.116-.819.052-.4.091-.81.115-1.217a9.337,9.337,0,0,0-.223-2.5,12.853,12.853,0,0,0-1.629-4.064,14.127,14.127,0,0,0-6.171-5.348,19.239,19.239,0,0,0-8.384-1.646,22.626,22.626,0,0,0-8.665,1.912,16.07,16.07,0,0,0-6.763,5.308q-.294.421-.562.86a.463.463,0,0,0,.724.559" transform="translate(-401.465 -1338.489)" fill="#1a1818"/>
  <path id="Path_202" data-name="Path 202" d="M705.028,1746.971q.251-.032.5-.053l-.244-.066c.274.208.651.118.974.126.134,0,.266.014.4.024.193.014-.071-.018.069.007.055.01.11.018.165.029.107.021.213.047.317.078.06.018.119.037.177.058s.243.046.02,0a2.227,2.227,0,0,1,.577.287c.064.037.219.184.286.189-.071-.006-.143-.116-.009,0,.042.036.084.073.125.11.092.084.179.174.262.266q.071.078.138.159c.035.042.151.2.014.013.175.238.335.484.494.733a6.064,6.064,0,0,0,.729.862.715.715,0,0,0,.854.11.733.733,0,0,0,.324-.8,3.431,3.431,0,0,0-.383-1.151,6.775,6.775,0,0,0-.644-.9,4.5,4.5,0,0,0-1.351-1.134,3.389,3.389,0,0,0-1.758-.363,5.955,5.955,0,0,0-.947.127,1.374,1.374,0,0,0-1,.5l.289-.222c-.164.054-.326.111-.488.171a.427.427,0,0,0-.3.464.417.417,0,0,0,.415.366" transform="translate(-556.632 -1378.97)" fill="#1a1818"/>
  <path id="Path_203" data-name="Path 203" d="M900.434,1670.726a8.358,8.358,0,0,0,.928-.078c.265-.051.529-.1.8-.142l.209-.031c.044-.007.251-.035.087-.013s.077-.009.11-.013l.234-.027c.263-.029.526-.048.789-.075a22.316,22.316,0,0,1,3.4-.081q.86.044,1.715.15l.193.025c-.459-.057-.175-.024-.066-.008.242.036.485.067.728.1.208.026-.375-.052-.071-.009l.191.028q.218.033.436.07a21.413,21.413,0,0,1,3.309.832q.381.13.757.275c.133.051.264.1.4.159.19.078-.366-.158-.113-.047l.217.1q.737.328,1.439.727c.456.259.9.539,1.331.84q.153.108.3.22l.139.1c-.428-.319-.172-.133-.076-.056q.3.238.579.5a10.8,10.8,0,0,1,1.037,1.085c.041.049.081.1.121.149.168.208-.157-.208-.093-.121.076.1.153.2.226.309q.213.3.4.623t.352.654c.053.108.1.218.151.328.12.269-.114-.284-.052-.122.023.06.048.12.071.18a9.071,9.071,0,0,1,.422,1.468c.026.133.048.266.07.4.046.279-.033-.269-.02-.156.009.077.019.154.029.231.033.271.058.543.07.815a11.134,11.134,0,0,1-.059,1.725c-.007.067-.016.135-.024.2-.022.183.057-.4.009-.074-.024.16-.051.319-.076.479q-.073.482-.179.958-.111.5-.253.99c-.1.345-.159.7-.24,1.047a4.293,4.293,0,0,0-.124.72,1.359,1.359,0,0,0,.214.745.7.7,0,0,0,.767.312,1.8,1.8,0,0,0,1.154-.968,7.554,7.554,0,0,0,.631-1.194,14.721,14.721,0,0,0,.672-1.944,12.331,12.331,0,0,0,.33-2.15,9.764,9.764,0,0,0-.005-1.713,10.873,10.873,0,0,0-2.962-6.414,15.148,15.148,0,0,0-5.971-3.711,20.936,20.936,0,0,0-7.137-1.236,20.257,20.257,0,0,0-6.978,1.173,4.629,4.629,0,0,0-.844.459c-.511.323-.352,1.27.33,1.217" transform="translate(-710.834 -1317.602)" fill="#1a1818"/>
  <path id="Path_204" data-name="Path 204" d="M76.034,1708.061c-.005-.059-.012-.119-.016-.178,0,.006-.02-.181-.02-.1,0-.15.051-.289.038-.44-.025-.311-.083-.625-.132-.933a8.553,8.553,0,0,0-.344-1.528,21.628,21.628,0,0,0-1.406-3.18,29.718,29.718,0,0,0-4.048-5.675,20.56,20.56,0,0,0-5.345-4.32,14.794,14.794,0,0,0-6.493-1.817,12.352,12.352,0,0,0-3.881.51,9.736,9.736,0,0,0-2.021.877q-.46.259-.9.55a4.952,4.952,0,0,0-.91.789.478.478,0,0,0,.461.792,7.915,7.915,0,0,0,.923-.254q.438-.164.885-.3c.551-.168,1.113-.282,1.67-.426q.419-.109.845-.189.174-.033.35-.061l.209-.032-.067.009.138-.017a14.378,14.378,0,0,1,1.564-.1c.537,0,1.061.068,1.6.1-.359-.021.008,0,.1.018q.195.031.388.069.387.075.768.175a13.46,13.46,0,0,1,1.47.475c.113.043.223.095.337.135-.358-.127.066.031.151.069q.362.165.716.349a19.124,19.124,0,0,1,2.683,1.687c.055.041.108.085.164.124-.255-.178-.106-.083-.045-.033.1.079.2.157.3.237q.321.263.632.538.627.555,1.212,1.156.566.579,1.093,1.194.253.295.5.6.134.165.265.332c.05.064.152.258,0-.007a2.633,2.633,0,0,0,.172.226,29.519,29.519,0,0,1,1.82,2.725c.609,1.032,1.2,2.077,1.722,3.157.246.512.527,1,.814,1.485q.207.352.4.71c.153.281.329.448.465.715a.426.426,0,0,0,.788-.213" transform="translate(-39.834 -1334.99)" fill="#1a1818"/>
  <rect id="Rectangle_65" data-name="Rectangle 65" width="385.469" height="379.024" fill="none"/>
  <rect id="Rectangle_66" data-name="Rectangle 66" width="385.47" height="379.023" transform="translate(0 0.001)" fill="none"/>
</svg>
